<svg width="41" height="25" viewBox="0 0 41 25" fill="none" xmlns="http://www.w3.org/2000/svg">
<path d="M0.209545 4.33652C0.330373 4.23467 0.430325 4.11132 0.540399 3.99871C0.72765 3.88105 0.949695 3.84119 1.16225 3.79375C1.33495 3.74061 1.49563 3.63813 1.68099 3.63117C1.92771 3.62674 2.15671 3.52046 2.4009 3.50148C2.53691 3.4901 2.67418 3.47871 2.8007 3.42367C3.04173 3.44898 3.27516 3.34586 3.51618 3.37559C3.78441 3.39521 4.06022 3.42747 4.32402 3.35788C4.35903 3.36589 4.39424 3.37412 4.42967 3.38255C4.59731 3.35219 4.76811 3.35535 4.93575 3.37686C4.95789 3.35598 5.00218 3.31487 5.02432 3.29399C5.15716 3.30854 5.29507 3.31803 5.42223 3.26679C5.44247 3.2826 5.48106 3.3136 5.5013 3.32942C5.55275 3.31128 5.60463 3.29314 5.65692 3.27501C5.87644 3.31044 6.1086 3.31297 6.30724 3.19783C6.3549 3.22524 6.40298 3.25266 6.45148 3.28007C6.53709 3.25561 6.62249 3.23031 6.70768 3.20416C6.94807 3.23579 7.191 3.22567 7.43328 3.23326C7.56234 3.15924 7.69898 3.20416 7.83183 3.24085C8.10132 3.21681 8.37397 3.23389 8.6422 3.1972C8.66497 3.21428 8.70989 3.24907 8.73266 3.26615C8.79128 3.24675 8.8499 3.22693 8.90852 3.20669C9.00552 3.22018 9.10252 3.23494 9.19952 3.25097C9.24549 3.23157 9.2923 3.21217 9.33996 3.19277C9.49052 3.27122 9.66196 3.21618 9.81758 3.26868C9.83487 3.24338 9.85258 3.21829 9.87072 3.1934C9.93862 3.21744 10.0069 3.24127 10.0757 3.26489C10.0909 3.25983 10.1212 3.24971 10.1364 3.24528C10.2326 3.26109 10.3319 3.26046 10.4141 3.1991C10.5406 3.23073 10.671 3.23895 10.8007 3.22061C10.8222 3.22946 10.8664 3.24844 10.8879 3.2573C10.9164 3.24528 10.9721 3.22124 11.0006 3.20985C11.1125 3.23769 11.227 3.26742 11.3441 3.25919C11.6117 3.24464 11.8811 3.3136 12.1468 3.25287C12.169 3.26679 12.2133 3.29399 12.2354 3.30727C12.398 3.30474 12.5618 3.29209 12.713 3.22756C12.7193 3.25477 12.7314 3.31044 12.7371 3.33827C12.7668 3.30917 12.8263 3.25034 12.856 3.22061C12.8819 3.23579 12.9351 3.26489 12.9616 3.28007C13.0532 3.28134 13.1451 3.2826 13.2375 3.28387C13.3956 3.18771 13.5772 3.2282 13.7416 3.28387C13.8758 3.29336 14.0149 3.30538 14.1433 3.25603C14.1982 3.27501 14.2532 3.29399 14.3085 3.31297C14.3363 3.29947 14.3645 3.28597 14.3932 3.27248C14.4552 3.28134 14.5185 3.29146 14.5811 3.29968C14.6714 3.30221 14.7618 3.30474 14.8525 3.30727C15.0897 3.35092 15.3326 3.33258 15.5718 3.34839C15.6977 3.38445 15.8267 3.37686 15.9425 3.31107C16.1209 3.38698 16.3164 3.37623 16.5023 3.34143C16.6814 3.37686 16.8655 3.45657 17.0438 3.3699C17.1434 3.38171 17.2427 3.39626 17.3418 3.41355C17.4595 3.42494 17.5771 3.4378 17.6948 3.45214C17.7226 3.43105 17.7511 3.41018 17.7802 3.38951C17.7954 3.40849 17.8258 3.44708 17.8409 3.46606C17.9122 3.43485 17.9839 3.40427 18.056 3.37433C18.0668 3.39584 18.0883 3.43949 18.0984 3.461C18.2781 3.47428 18.4584 3.461 18.6355 3.4281C18.6798 3.45425 18.7243 3.4804 18.769 3.50654C18.8149 3.48714 18.8611 3.46796 18.9075 3.44898C19.0467 3.50907 19.2384 3.36864 19.3282 3.52299C19.5857 3.44328 19.84 3.58182 20.0987 3.52362C20.348 3.54893 20.6143 3.61282 20.849 3.48946C20.8661 3.50275 20.9002 3.52805 20.9173 3.54071C20.9873 3.53227 21.0575 3.53227 21.128 3.54071C21.1942 3.52131 21.2608 3.50148 21.3279 3.48124C21.3468 3.50844 21.3854 3.56348 21.405 3.59131C21.8523 3.54766 22.3014 3.60586 22.7481 3.63053C22.9783 3.71214 23.2213 3.64382 23.456 3.69316C23.5011 3.67503 23.5466 3.65753 23.5926 3.64066C23.6672 3.66027 23.7451 3.67861 23.8241 3.6647C24 3.63876 24.1664 3.7191 24.3403 3.72922C24.5124 3.75389 24.6965 3.72479 24.8578 3.80387C24.9552 3.7792 25.0558 3.77097 25.1564 3.7735C25.1691 3.76402 25.1956 3.74504 25.2083 3.73555C25.5265 3.80703 25.8788 3.83297 26.1869 3.71024C26.2329 3.74567 26.2793 3.78152 26.3261 3.81779C26.445 3.81526 26.5648 3.8142 26.6854 3.81462C26.6974 3.80513 26.7227 3.78552 26.7354 3.7754C26.9416 3.84499 27.1611 3.81652 27.375 3.82348C27.3935 3.80872 27.4131 3.79417 27.4338 3.77983C27.6584 3.8064 27.8855 3.80007 28.1119 3.80197C28.1558 3.77878 28.2001 3.75621 28.2448 3.73428C28.2498 3.75959 28.2619 3.81146 28.2669 3.8374C28.2918 3.81884 28.3173 3.80071 28.3435 3.78299C28.4287 3.7754 28.5139 3.76676 28.599 3.75706C28.768 3.79628 28.947 3.76402 29.1108 3.82728C29.1758 3.80872 29.2411 3.78995 29.3069 3.77097C29.3183 3.79311 29.3411 3.83677 29.3518 3.85827C29.397 3.81399 29.4429 3.76971 29.4898 3.72543C29.537 3.74862 29.5851 3.77182 29.634 3.79501C29.7441 3.76402 29.8586 3.76275 29.9693 3.79438C30.1084 3.73681 30.2514 3.77983 30.3931 3.79565C30.5563 3.78173 30.7177 3.75136 30.8809 3.73618C30.9661 3.74082 31.0519 3.7463 31.1383 3.75263C31.3534 3.77224 31.5774 3.76149 31.7792 3.67545C31.7952 3.71088 31.8121 3.74609 31.8298 3.7811C32.0607 3.77097 32.2909 3.73302 32.5237 3.7463C32.5383 3.73618 32.5674 3.71594 32.5826 3.70518C32.7433 3.82095 32.9457 3.80071 33.1298 3.76908C33.3341 3.83803 33.5511 3.79818 33.7618 3.82981C33.8472 3.84752 33.9205 3.79501 33.9952 3.76212C34.0173 3.7773 34.061 3.80703 34.0831 3.82158C34.1002 3.81462 34.1337 3.80007 34.1508 3.79312C34.2495 3.85827 34.357 3.92217 34.481 3.90951C34.6771 4.0411 34.9207 4.0411 35.1478 4.02718C35.4053 4.03604 35.6608 3.98226 35.9183 3.97024C36.3997 3.88737 36.871 4.06703 37.3132 4.23404C37.6371 4.45419 37.6997 4.88057 37.7991 5.23166C37.9572 5.71687 37.9743 6.23181 38.0983 6.72462C38.1603 7.26739 38.2843 7.80068 38.369 8.34029C38.4228 8.58069 38.3975 8.8312 38.4652 9.06906C38.5835 9.48911 38.5601 9.93257 38.655 10.357C38.6803 10.4905 38.6974 10.6246 38.7195 10.7594C38.7246 10.965 38.7695 11.1668 38.7967 11.3705C38.8283 11.5742 38.8384 11.7836 38.9055 11.9809C38.9021 12.0219 38.8994 12.0626 38.8973 12.103C38.9732 12.3548 38.9434 12.6224 39.0181 12.8736C38.982 13.1108 39.0655 13.3404 39.0788 13.5758C39.1541 14.1293 39.1585 14.6904 39.2521 15.2427C39.3736 15.9651 39.4426 16.6951 39.4982 17.4252C39.5615 17.868 39.5963 18.3133 39.6349 18.7587C39.7481 19.7241 39.8607 20.6894 39.9537 21.6567C39.9759 21.8022 40.0043 21.9477 39.9891 22.0957C40.0334 22.1849 40.0486 22.283 40.005 22.3766C40.0273 22.4702 40.0513 22.5636 40.0771 22.6568C40.0594 22.6771 40.0258 22.7169 40.0081 22.7372C40.0853 22.9339 40.0739 23.149 40.0891 23.3559C40.0992 23.533 40.0897 23.7114 40.06 23.8866C40.0958 23.8913 40.1321 23.8961 40.1688 23.9012C40.1372 23.9602 40.1062 24.0197 40.0758 24.0796C40.0853 24.1036 40.1036 24.1517 40.1131 24.1757C40.0958 24.2225 40.0794 24.2702 40.0638 24.3187C40.0752 24.3693 40.0853 24.4205 40.0941 24.4724C40.0494 24.5091 40.0045 24.5445 39.9594 24.5787C39.8892 24.6584 39.8272 24.7501 39.7361 24.8058C39.626 24.8589 39.509 24.8052 39.4027 24.7735C39.1921 24.9019 38.946 24.9576 38.6999 24.9399C38.6746 24.9507 38.624 24.9722 38.598 24.9823C38.3393 24.9051 38.0679 24.9317 37.8028 24.9431C37.778 24.9498 37.7539 24.9572 37.7307 24.9652C37.6215 24.9458 37.5121 24.9296 37.4024 24.9165C37.3708 24.9414 37.3398 24.9671 37.3094 24.9937C37.2911 24.9747 37.2531 24.9374 37.2341 24.919C37.0975 24.9182 36.9615 24.9108 36.8261 24.8969C36.7869 24.9306 36.7485 24.965 36.711 25C36.6945 24.9715 36.6616 24.914 36.6452 24.8849C36.6268 24.9032 36.5895 24.9405 36.5705 24.9595C36.5347 24.9431 36.4995 24.9272 36.4649 24.9121C36.2789 24.9216 36.0916 24.9026 35.9164 24.84C35.8692 24.8539 35.8226 24.8684 35.7766 24.8836C35.6495 24.8475 35.5166 24.8324 35.3876 24.8659C35.2231 24.9178 35.063 24.8222 34.8985 24.8551C34.864 24.829 34.8302 24.803 34.7973 24.7773C34.7714 24.7735 34.7202 24.7653 34.6942 24.7609C34.6655 24.7807 34.6375 24.8007 34.6101 24.821C34.5898 24.8052 34.5487 24.7748 34.5285 24.759C34.24 24.8108 33.9496 24.7539 33.6618 24.7375C33.4436 24.7849 33.2285 24.7096 33.0102 24.7179C32.8236 24.7141 32.6351 24.7141 32.4523 24.6742C32.3485 24.6881 32.2441 24.6869 32.1416 24.6679C32.1273 24.7008 32.1136 24.7337 32.1005 24.7666C31.974 24.7147 31.8386 24.6919 31.7058 24.7362C31.5495 24.6818 31.3813 24.666 31.2244 24.7261C31.1889 24.6869 31.1544 24.6478 31.1206 24.609C31.0489 24.6314 30.9774 24.6542 30.9062 24.6774C30.8509 24.6495 30.7963 24.6221 30.7423 24.5951C30.7212 24.639 30.701 24.6833 30.6816 24.728C30.6521 24.7082 30.623 24.6885 30.5943 24.6691C30.3121 24.7084 30.0325 24.6034 29.7491 24.6508C29.7308 24.6325 29.6941 24.5951 29.6751 24.5774C29.6587 24.5932 29.6258 24.6249 29.6093 24.6413C29.5056 24.5869 29.3942 24.5926 29.288 24.635C29.1412 24.5932 28.9868 24.5452 28.8356 24.5989C28.6629 24.6584 28.4839 24.6122 28.3144 24.5679C28.2998 24.5755 28.2714 24.5913 28.2568 24.5996C28.0114 24.5825 27.764 24.4939 27.5198 24.5527C27.4519 24.5224 27.3853 24.4918 27.3199 24.461C27.287 24.4939 27.2219 24.5597 27.1896 24.5926C27.1491 24.5521 27.1093 24.5116 27.07 24.4711C27.0329 24.499 26.9962 24.5272 26.96 24.5559C26.8676 24.5262 26.7721 24.4971 26.6747 24.5104C26.4735 24.5319 26.2736 24.4983 26.0756 24.4711C26.0338 24.4463 25.9929 24.422 25.9529 24.3984C25.7707 24.4787 25.56 24.4167 25.3772 24.3674C25.3392 24.3868 25.3023 24.407 25.2665 24.4281C25.1115 24.3921 24.9527 24.3775 24.7996 24.3358C24.7254 24.3568 24.6535 24.3826 24.5839 24.4129C24.4877 24.2738 24.303 24.3301 24.16 24.3105C24.1204 24.345 24.0812 24.3803 24.0424 24.4161C24.0436 24.3845 24.0455 24.3218 24.0468 24.2902C23.7906 24.2529 23.5325 24.2428 23.2776 24.1953C23.1131 24.1624 22.9537 24.2238 22.8056 24.2877C22.7784 24.282 22.7234 24.2706 22.6956 24.2655C22.6584 24.3149 22.6218 24.3646 22.5855 24.4148C22.4425 24.4878 22.3086 24.5747 22.1838 24.6755C22.0788 24.7065 21.9763 24.7438 21.8789 24.7925C21.863 24.7906 21.8314 24.7868 21.8156 24.7849C21.7528 24.8174 21.6897 24.849 21.6265 24.8798C21.4835 24.8343 21.3411 24.8912 21.2058 24.9367C21.0898 24.922 20.974 24.9043 20.8585 24.8836C20.8133 24.9051 20.7688 24.927 20.725 24.9494C20.6453 24.9038 20.5664 24.8581 20.4884 24.8121C20.4353 24.8349 20.3823 24.8585 20.3296 24.883C20.0709 24.7976 19.8071 24.7147 19.5768 24.5654C19.4288 24.4661 19.2814 24.3655 19.1333 24.2662C19.1013 24.2797 19.0699 24.2936 19.0391 24.3079C18.9587 24.177 18.8487 24.0688 18.738 23.9638C18.5823 23.8151 18.4634 23.6329 18.3394 23.459C18.0908 23.4495 17.8523 23.5551 17.6043 23.5241C17.4146 23.5051 17.2222 23.5058 17.0363 23.5488C17.028 23.5292 17.0129 23.4912 17.0053 23.4716C16.9856 23.4874 16.9471 23.5191 16.9281 23.5349C16.9066 23.5127 16.8636 23.4678 16.842 23.4451C16.7982 23.4809 16.755 23.5167 16.7124 23.5526C16.5542 23.4786 16.379 23.4558 16.2132 23.5191C16.0235 23.4552 15.8242 23.4596 15.6281 23.471C15.5986 23.4883 15.5699 23.5062 15.542 23.5248C15.5041 23.4961 15.4668 23.468 15.4301 23.4406C15.4174 23.4558 15.3921 23.4874 15.3795 23.5026C15.1701 23.4798 14.9594 23.464 14.7506 23.4362C14.7355 23.452 14.707 23.483 14.6918 23.4995C14.5936 23.4779 14.4951 23.4569 14.3964 23.4362C14.1687 23.4564 13.939 23.3976 13.7138 23.4476C13.5348 23.3628 13.3349 23.4311 13.1502 23.3748C13.1244 23.4006 13.0993 23.4265 13.0749 23.4526C12.9821 23.4071 12.8889 23.3628 12.7953 23.3198C12.8022 23.3559 12.8161 23.4292 12.8231 23.4653C12.7984 23.4419 12.7491 23.3944 12.7244 23.3704C12.6413 23.3772 12.5587 23.3835 12.4764 23.3894C12.3651 23.3432 12.2455 23.335 12.1329 23.3843C12.0197 23.3381 11.89 23.2508 11.7806 23.3596C11.7257 23.3445 11.6713 23.3297 11.6173 23.3154C11.5882 23.3305 11.5281 23.3609 11.4984 23.3761C11.4166 23.3449 11.335 23.3143 11.2536 23.2844C11.2203 23.3164 11.187 23.3487 11.1536 23.3812C11.1492 23.3495 11.1385 23.2844 11.1334 23.2521C11.0841 23.266 11.0349 23.2799 10.986 23.2939C10.8915 23.2639 10.7962 23.238 10.7001 23.216C10.6969 23.2521 10.6912 23.323 10.6887 23.3584C10.6627 23.3419 10.6102 23.3078 10.5843 23.2907C10.5558 23.2989 10.5002 23.316 10.4723 23.3249C10.3218 23.2002 10.1351 23.2078 9.95549 23.2515C9.86692 23.2034 9.77203 23.2034 9.68157 23.2414C9.54408 23.2329 9.4066 23.2245 9.26911 23.216C9.24127 23.2331 9.18434 23.2667 9.15587 23.2837C9.14069 23.2458 9.12572 23.208 9.11096 23.1705C8.85222 23.1952 8.57704 23.2445 8.33601 23.1148C8.30607 23.1347 8.27676 23.1551 8.24808 23.1762C8.22974 23.1496 8.19241 23.0977 8.17407 23.0718C8.15888 23.0826 8.12789 23.1041 8.11207 23.1155C8.0505 23.1319 7.98892 23.1486 7.92735 23.1654C7.73187 23.0908 7.51426 23.1496 7.32511 23.0585C7.28209 23.0906 7.2395 23.1233 7.19732 23.1566C7.17202 23.0623 7.11002 23.0446 7.02968 23.0921C6.92214 23.0756 6.82029 23.1034 6.72666 23.1553C6.67141 23.1258 6.61659 23.0969 6.56218 23.0687C6.39264 23.0959 6.22121 23.0756 6.05294 23.049C6.03965 23.063 6.01371 23.0895 6.00043 23.1034C5.9378 23.0794 5.87581 23.0528 5.81381 23.0301C5.7767 23.0385 5.74001 23.0474 5.70374 23.0566C5.6215 23.0292 5.53736 23.0117 5.45133 23.0041C5.43741 23.0282 5.40894 23.0762 5.39502 23.1009C5.33303 23.0583 5.27103 23.0161 5.20904 22.9744C5.16602 22.9883 5.12321 23.0029 5.08062 23.018C5.03549 23.0117 4.991 23.0058 4.94714 23.0003C4.86743 23.0478 4.78076 23.0547 4.69536 23.0199C4.56884 23.0054 4.44105 23.0029 4.3139 23.0022C4.30125 23.0136 4.27594 23.0364 4.26329 23.0478C4.00708 22.9415 3.7357 23.0022 3.47506 23.0547C3.4681 23.0294 3.45419 22.9795 3.44723 22.9541C3.36119 22.9664 3.27579 22.9797 3.19102 22.994C3.14885 22.9695 3.10689 22.9455 3.06513 22.9219C2.82095 22.9238 2.57296 22.92 2.3351 22.8599C2.1993 22.8262 2.06203 22.8042 1.92328 22.7941C1.86002 22.7663 1.79697 22.7386 1.73413 22.7112C1.71726 22.6855 1.70102 22.66 1.68542 22.6347C1.63397 22.6144 1.58294 22.5946 1.53233 22.5752C1.47666 22.1084 1.34381 21.6503 1.36026 21.1765C1.32019 21.0559 1.28266 20.9347 1.24765 20.8128C1.29889 20.5876 1.1806 20.3668 1.23374 20.1416C1.21982 20.0382 1.2078 19.9351 1.19768 19.8322C1.22361 19.8531 1.27612 19.8961 1.30206 19.917C1.13252 19.7057 1.17427 19.4217 1.1515 19.1705C1.11164 18.5904 1.05028 18.0129 0.99208 17.4353C0.99208 17.4075 0.991448 17.3524 0.991448 17.3252C0.973735 17.2468 0.978163 17.1671 0.98955 17.0886C0.964878 17.0766 0.915535 17.0519 0.890863 17.0393C0.921228 17.0184 0.981325 16.976 1.01169 16.9551C0.982591 16.8733 0.951382 16.7928 0.918065 16.7135C0.922493 16.6932 0.931983 16.6534 0.937043 16.6325C0.906678 16.4661 0.893393 16.2979 0.881374 16.1296C0.904148 15.9063 0.776993 15.6975 0.81495 15.4748C0.840254 15.3274 0.799135 15.1819 0.733976 15.0504C0.80293 14.7366 0.743466 14.414 0.675144 14.1052C0.70087 14.061 0.726807 14.0169 0.752954 13.973C0.698972 13.9562 0.64499 13.9395 0.591007 13.9231C0.686531 13.7459 0.621373 13.5473 0.611883 13.3588C0.599231 13.3381 0.587211 13.3174 0.575824 13.2968C0.658063 12.9324 0.522685 12.568 0.525216 12.2024C0.518257 11.7102 0.387308 11.2231 0.436019 10.7315C0.403123 10.6885 0.370649 10.6457 0.338597 10.6031C0.358208 10.5785 0.396797 10.5297 0.415143 10.5057C0.391525 10.4602 0.367908 10.4144 0.344291 10.3684C0.351882 10.1616 0.360106 9.95471 0.357575 9.74785C0.336699 9.53782 0.293049 9.33222 0.240542 9.12789C0.217769 8.90205 0.206382 8.67178 0.231686 8.44594C0.186771 8.222 0.177282 7.99236 0.129204 7.76842C0.141224 7.74375 0.16463 7.6944 0.176017 7.67036C0.157461 7.64295 0.139115 7.61554 0.12098 7.58812C0.110225 7.34457 0.151978 7.07824 0.00837582 6.86379C0.0298845 6.78408 0.0518154 6.70437 0.0741675 6.62466C0.0488632 6.39882 0.0368438 6.17172 0.000152588 5.94714C0.0823915 5.81682 0.0640452 5.66753 0.00141711 5.53468C0.06278 5.17093 0.0507608 4.77998 0.229156 4.4485C0.224095 4.42003 0.214606 4.36499 0.209545 4.33652Z" fill="#3D88B3"/>
<path d="M1.6091 3.36928C1.62112 2.99351 1.78117 2.58548 2.14112 2.41594C2.55864 2.16163 3.01349 1.97817 3.43607 1.73272C3.76945 1.5828 4.08892 1.39681 4.44508 1.30318C4.69622 1.20956 4.95749 1.14756 5.20737 1.05267C5.7046 0.822402 6.26192 0.78318 6.76864 0.582011C6.90782 0.523811 7.06344 0.537097 7.20704 0.495977C7.47653 0.419432 7.74665 0.340355 8.02374 0.293542C8.15089 0.271401 8.28247 0.264442 8.4033 0.212569C8.60067 0.201814 8.8069 0.210671 8.99163 0.1278C9.17951 0.0158281 9.39143 0.166388 9.58817 0.101862C9.82287 0.0227865 10.0721 0.0746605 10.31 0.0170933C10.4941 -0.0221283 10.6813 0.0177257 10.866 0.0227865C11.3044 0.00823657 11.7466 -0.00568024 12.18 0.072763C12.3356 0.100598 12.4925 0.0442953 12.6487 0.0683343C13.1833 0.179041 13.74 0.176511 14.2625 0.341621C14.754 0.411208 15.2 0.645905 15.6625 0.80975C15.8984 0.972962 16.1901 1.01725 16.4342 1.16654C16.7189 1.33734 17.0156 1.4879 17.3047 1.65238C17.4009 1.70426 17.4603 1.80104 17.5287 1.88265C17.6944 1.81939 17.85 1.73525 18.005 1.64985C18.1821 1.55117 18.3877 1.51511 18.5573 1.39997C18.7452 1.27092 18.9786 1.23929 19.1747 1.12416C19.4024 0.998899 19.6536 0.929946 19.9066 0.875541C20.1635 0.822402 20.402 0.702208 20.6639 0.66868C20.6795 0.645484 20.6959 0.622288 20.7132 0.599092C20.9289 0.666149 21.1333 0.538362 21.3445 0.509895C21.602 0.468775 21.8551 0.401086 22.117 0.396657C22.5642 0.330866 23.0102 0.2442 23.4631 0.233446C23.732 0.190428 24.0091 0.22965 24.276 0.163859C24.6271 0.0607436 24.996 0.147412 25.3527 0.0816205C25.6785 0.0132989 26.0056 0.102495 26.332 0.108189C26.6331 0.0835172 26.9349 0.0879465 27.2366 0.0974356C27.6934 0.124638 28.1444 0.211937 28.6012 0.223957C28.7441 0.22965 28.8852 0.257484 29.0269 0.27836C29.2445 0.312521 29.4685 0.296073 29.6842 0.349212C29.7816 0.373884 29.8841 0.387168 29.9847 0.364394C30.0294 0.388433 30.0749 0.412684 30.1213 0.437145C30.1327 0.41395 30.1449 0.390333 30.158 0.366294C30.2713 0.443472 30.3978 0.501037 30.5357 0.516852C30.7457 0.540259 30.9191 0.696513 31.136 0.688922C31.2891 0.685759 31.4378 0.720553 31.5763 0.786344C31.7661 0.874909 31.9894 0.847706 32.1716 0.953984C32.2747 1.01092 32.3797 1.06659 32.4942 1.09632C32.7131 1.15136 32.8985 1.28674 33.0902 1.39997C33.2451 1.49676 33.4533 1.45248 33.5994 1.57014C33.6975 1.64606 33.7942 1.7245 33.8993 1.79219C33.925 1.77954 33.9518 1.76688 33.9796 1.75423C34.27 2.05915 34.6635 2.2426 34.9519 2.54942C35.1537 2.75628 35.3808 2.96251 35.4732 3.24402C35.5428 3.43317 35.6459 3.60967 35.6927 3.80768C35.7851 4.21381 35.8414 4.62753 35.9527 5.02924C36.0014 5.49547 36.0988 5.95538 36.2121 6.40959C36.2715 6.62278 36.2045 6.84988 36.2911 7.05738C36.4809 7.66405 36.474 8.30551 36.5948 8.92546C36.6796 9.3259 36.7118 9.73584 36.8112 10.1331C36.8656 10.3311 36.8516 10.5405 36.9105 10.7373C36.9971 11.0396 36.9699 11.3604 37.0376 11.6659C37.0977 11.9335 37.0768 12.2144 37.18 12.4731C37.2274 12.8008 37.2685 13.131 37.29 13.4625C37.4311 13.8743 37.3622 14.3273 37.5247 14.7341C37.5083 14.7505 37.4741 14.7847 37.457 14.8011C37.4836 14.815 37.5112 14.829 37.5399 14.8429C37.5266 14.9795 37.4975 15.1237 37.5551 15.2553C37.6253 15.416 37.6133 15.595 37.6456 15.7652C37.6879 16.0012 37.6797 16.2428 37.7322 16.4775C37.7854 16.7034 37.7955 16.9374 37.8663 17.1595C37.9366 17.398 37.9049 17.6504 37.9498 17.8927C38.0144 18.2292 37.9979 18.5753 38.0681 18.9112C38.1137 19.1218 38.0802 19.3375 38.1036 19.5495C38.2579 20.4282 38.2573 21.3246 38.3642 22.2089C38.4167 22.6201 38.4515 23.037 38.4097 23.4501C38.3408 23.645 38.3478 23.9024 38.1485 24.0188C38.0239 24.0992 37.8638 24.1289 37.7227 24.0802C37.5165 24.0106 37.3141 23.9303 37.1097 23.8563C36.9782 23.8037 36.8301 23.8246 36.7004 23.7671C36.4531 23.6601 36.183 23.6355 35.9287 23.5545C35.6756 23.4748 35.4169 23.4204 35.1594 23.3622C34.9772 23.3223 34.7855 23.3438 34.6071 23.2844C34.3345 23.2002 34.0561 23.0933 33.7651 23.1205C33.7099 23.0838 33.6557 23.0474 33.6026 23.0111C33.5347 23.0254 33.4674 23.04 33.4008 23.0547C33.2717 22.9896 33.1338 22.9466 32.9927 22.92C32.9527 22.9381 32.9132 22.9567 32.8744 22.9757C32.7365 22.8871 32.5714 22.8998 32.4171 22.8744C31.9584 22.7618 31.4751 22.7796 31.0266 22.6208C30.8697 22.6929 30.7166 22.5702 30.5559 22.5872C30.2947 22.6005 30.0479 22.4816 29.7873 22.5069C29.588 22.5196 29.3938 22.4696 29.1965 22.4557C28.8783 22.4386 28.5601 22.4145 28.2419 22.4095C27.9325 22.3747 27.6194 22.3563 27.3113 22.4095C27.1411 22.4443 26.9684 22.3753 26.7989 22.4183C26.6407 22.4563 26.4763 22.4424 26.3168 22.4702C25.8645 22.5569 25.3983 22.4791 24.9479 22.5809C24.4677 22.6182 23.9977 22.7252 23.5226 22.7979C22.914 22.8896 22.3017 23.0528 21.7848 23.397C21.6672 23.4786 21.5634 23.5792 21.4388 23.6488C21.306 23.7177 21.1522 23.6968 21.0093 23.688C20.8188 23.6722 20.6291 23.7 20.4393 23.7051C20.3033 23.5014 20.0844 23.3938 19.8554 23.3325C19.5043 23.2129 19.1753 23.0358 18.8166 22.9402C18.6889 22.913 18.5832 22.8346 18.4674 22.7827C18.0676 22.7112 17.6976 22.5234 17.299 22.4512C17.0827 22.4481 16.8935 22.3285 16.6822 22.3038C16.4431 22.2728 16.2255 22.1438 15.98 22.1533C15.8244 22.1621 15.696 22.0533 15.5423 22.0508C15.2766 22.0324 15.0077 22.0211 14.7534 21.9331C14.2663 21.88 13.7862 21.7636 13.294 21.7471C12.7373 21.6636 12.1755 21.5947 11.6119 21.6042C11.2734 21.5529 10.9318 21.5517 10.5928 21.5124C10.0595 21.5194 9.52491 21.4947 8.99415 21.4422C8.85814 21.4378 8.72656 21.5049 8.58992 21.4814C8.19201 21.441 7.79094 21.4296 7.39303 21.4802C7.08368 21.4694 6.77434 21.4909 6.47005 21.551C6.05949 21.5238 5.64703 21.5599 5.24216 21.6269C4.93029 21.7269 4.60007 21.7301 4.27617 21.7427C4.01301 21.7762 3.73656 21.8623 3.47339 21.7851C3.32726 21.6307 3.11407 21.4973 3.09446 21.2657C3.01096 20.7413 2.95972 20.2105 2.94137 19.6798C2.98376 19.3129 2.92113 18.9466 2.8895 18.5816C2.87685 18.3032 2.9167 18.0243 2.8857 17.7465C2.84521 17.3853 2.87748 17.0178 2.81169 16.6597C2.76551 16.4294 2.81295 16.1948 2.78322 15.9626C2.79397 15.5115 2.71616 15.0643 2.71237 14.6139C2.71173 14.4747 2.69655 14.3355 2.67188 14.1989C2.63203 14.0059 2.68327 13.8086 2.63772 13.6169C2.60735 13.3487 2.51816 13.0823 2.55675 12.8097C2.53524 12.4447 2.49728 12.0796 2.44098 11.7184C2.46059 11.4047 2.39606 11.0966 2.38088 10.7847C2.29358 10.2615 2.25373 9.7333 2.17655 9.20887C2.11645 8.88941 2.11708 8.56298 2.06268 8.24288C1.97411 7.63621 1.97285 7.02195 1.91592 6.41212C1.88302 5.789 1.76725 5.17347 1.72044 4.55162C1.68312 4.15751 1.63694 3.76466 1.6091 3.36928Z" fill="#EEF9FF"/>
<path d="M2.55825 3.52617C2.56458 3.50972 2.57786 3.47683 2.58419 3.46038C2.64028 3.56202 2.69489 3.66471 2.74803 3.76846C2.81952 4.41562 2.88468 5.06404 2.91884 5.71436C2.95679 5.96108 2.97261 6.20906 2.97134 6.45831C3.06307 7.10863 3.10292 7.7659 3.15733 8.42002C3.182 8.79579 3.24589 9.16966 3.24083 9.54606C3.28638 9.64411 3.28195 9.75292 3.28954 9.85857C3.33952 10.371 3.38823 10.8847 3.43125 11.3977C3.48375 11.504 3.46351 11.6248 3.47237 11.7387C3.49957 12.1024 3.54955 12.4636 3.57105 12.828C3.63305 13.2253 3.62862 13.6276 3.67037 14.0274C3.65582 14.2451 3.74249 14.4633 3.68872 14.6784C3.69631 14.6885 3.71149 14.7081 3.71908 14.7183C3.69378 14.9549 3.78867 15.1826 3.76337 15.4186C3.7387 15.6495 3.78677 15.8791 3.78551 16.11C3.78108 16.3403 3.83422 16.5712 3.79247 16.8002C3.81313 16.8752 3.83569 16.9503 3.86016 17.0254C3.84687 17.0475 3.8203 17.0931 3.80638 17.1152C3.83548 17.4328 3.88989 17.7541 3.84371 18.0717C3.86838 18.5525 3.91899 19.0396 3.8475 19.5178C3.85446 19.5425 3.86901 19.5925 3.8766 19.6172C3.87218 19.6431 3.86458 19.695 3.86016 19.7203C3.87787 20.091 3.87281 20.463 3.92974 20.8311C3.96939 20.8037 4.00924 20.7769 4.04931 20.7508C4.46936 20.5275 4.90649 20.3352 5.36133 20.1954C5.37335 20.1878 5.39613 20.1739 5.40814 20.1669C5.59413 20.1036 5.76873 20.01 5.96104 19.9638C5.9699 19.955 5.98698 19.9373 5.99584 19.929C6.25268 19.8076 6.52343 19.7222 6.78786 19.6203C7.06115 19.5957 7.31482 19.459 7.59127 19.4521C7.59823 19.4394 7.61215 19.4166 7.61911 19.4046C7.68574 19.3932 7.75238 19.3812 7.81901 19.3686C7.9721 19.3407 8.13278 19.3281 8.27006 19.2477C8.28714 19.2502 8.32067 19.2553 8.33775 19.2572C8.82549 19.132 9.33094 19.1073 9.82121 18.994C9.99202 18.9871 10.1584 18.9377 10.3298 18.946C10.3387 18.9352 10.3558 18.9137 10.364 18.9023C10.6158 18.9289 10.8656 18.8663 11.1174 18.8745C11.1288 18.8669 11.1522 18.8523 11.1636 18.8447C11.3584 18.8878 11.5552 18.8239 11.7526 18.8251C11.9885 18.7834 12.2239 18.8504 12.4598 18.827C12.6395 18.8074 12.8141 18.8694 12.9937 18.865C13.2227 18.8637 13.4505 18.8954 13.6763 18.9276C13.7035 18.9194 13.7554 18.9023 13.7813 18.8941L13.7902 18.9434C13.9591 18.9352 14.1274 18.9593 14.2906 19.0048C14.5392 19.0478 14.7948 19.0655 15.032 19.1579C15.1535 19.2079 15.2844 19.2294 15.4154 19.2376C15.614 19.3584 15.8538 19.3616 16.0682 19.4438C16.6502 19.6412 17.2316 19.8462 17.7984 20.0872C17.8003 20.0986 17.8034 20.1207 17.8047 20.1315C18.0976 20.246 18.338 20.4522 18.6126 20.599C18.8561 20.7925 19.1104 20.9722 19.3508 21.1715C19.6614 21.4713 19.991 21.7554 20.2706 22.0862C20.3927 22.2355 20.4496 22.4639 20.2984 22.6157C20.2453 22.6077 20.1928 22.6001 20.1409 22.5929C19.874 22.3241 19.6323 22.0261 19.3078 21.8237C19.3027 21.8079 19.2926 21.7775 19.2869 21.7617C19.142 21.6485 18.9845 21.5491 18.8567 21.4157C18.6372 21.1816 18.331 21.062 18.0881 20.8577C17.7952 20.6913 17.5169 20.4819 17.1854 20.3972C17.1479 20.3702 17.111 20.3432 17.0747 20.3162C16.771 20.2453 16.499 20.0866 16.1966 20.01C15.5944 19.7576 14.9384 19.6899 14.3228 19.4837C14.3146 19.4951 14.2982 19.5185 14.2899 19.5305C14.0717 19.4685 13.8459 19.4495 13.6206 19.4331C13.4081 19.3989 13.1936 19.3812 12.9792 19.3742C12.6566 19.3122 12.3263 19.3578 12.0024 19.3173C11.9436 19.3085 11.8848 19.3192 11.8272 19.3262C11.5697 19.3167 11.3129 19.3445 11.0561 19.3451C10.5905 19.4052 10.1217 19.4337 9.6561 19.4862C9.44038 19.5381 9.2196 19.5647 9.00072 19.6001C8.9014 19.6051 8.80335 19.6248 8.70782 19.6494C8.56928 19.6703 8.43327 19.6981 8.296 19.719C8.11887 19.7671 7.93667 19.7861 7.75828 19.824C7.40212 19.886 7.06558 20.0233 6.71195 20.0948C6.49749 20.165 6.28114 20.2295 6.06985 20.308C5.8573 20.3788 5.65739 20.4889 5.43282 20.5231C5.38769 20.5522 5.34299 20.5821 5.2987 20.6129C5.2734 20.6047 5.22279 20.5876 5.19749 20.5794C5.1842 20.5952 5.1589 20.6287 5.14625 20.6452C4.69836 20.7653 4.26186 20.9305 3.8532 21.1493C3.78804 21.2025 3.72161 21.1417 3.66974 21.1044C3.75831 20.933 3.5584 20.778 3.58624 20.5964C3.57422 20.5838 3.54955 20.5597 3.53689 20.5477C3.54512 20.4389 3.51918 20.3333 3.50273 20.227C3.45086 19.8044 3.46161 19.3787 3.46161 18.9542C3.44896 18.9472 3.42366 18.9333 3.41164 18.9264C3.45655 18.8701 3.44643 18.8017 3.43884 18.7359C3.45466 18.4804 3.41543 18.2254 3.41227 17.9705C3.40721 17.9445 3.39646 17.892 3.39139 17.8655C3.39392 17.756 3.3895 17.6466 3.3876 17.5372C3.35344 17.219 3.36229 16.8982 3.33256 16.58C3.33193 16.3403 3.33762 16.0999 3.29144 15.8633C3.30072 15.7815 3.30262 15.6996 3.29714 15.6178C3.26487 15.3464 3.26867 15.0706 3.2693 14.7973C3.26044 14.791 3.24147 14.7777 3.23261 14.7714C3.28259 14.6651 3.23134 14.5506 3.22818 14.4405C3.21237 14.1862 3.17251 13.9326 3.19845 13.6776C3.18643 13.6669 3.16239 13.646 3.15037 13.6359C3.1801 13.4334 3.13203 13.2316 3.1295 13.0286C3.06813 12.5471 3.0694 12.0594 2.98463 11.5812C2.98589 11.5571 2.98779 11.5103 2.98906 11.4869C2.96945 11.3079 2.98463 11.1263 2.94794 10.9492C2.92326 10.8258 2.90112 10.6999 2.91314 10.5734C2.87645 10.3273 2.86696 10.0787 2.83976 9.83137C2.82015 9.57643 2.77144 9.32338 2.7746 9.06655C2.74487 8.81667 2.73728 8.56489 2.73348 8.31311C2.72589 8.30552 2.70944 8.2897 2.70122 8.28211C2.70691 7.90318 2.63859 7.52741 2.63353 7.14848C2.63037 6.86571 2.57407 6.58546 2.58798 6.30269C2.52346 5.53597 2.51017 4.76545 2.44691 3.9981C2.4602 3.83994 2.40136 3.62802 2.55825 3.52617Z" fill="#253638"/>
<path d="M4.97511 7.39076C5.20348 7.30915 5.42869 7.20288 5.67604 7.19528C6.0575 7.08964 6.45352 7.05105 6.84194 6.97704C7.42583 6.85747 8.01732 6.78282 8.60691 6.69932C9.20029 6.59368 9.8019 6.53927 10.4022 6.49625C10.5838 6.4855 10.7749 6.4292 10.9495 6.50131C10.9583 6.49119 10.976 6.47032 10.9842 6.45893C11.0391 6.47074 11.0941 6.48213 11.1494 6.49309C11.1595 6.48487 11.1804 6.46715 11.1905 6.4583C11.8047 6.48677 12.4279 6.45134 13.0402 6.54876C14.172 6.65441 15.2746 6.953 16.3513 7.30789C16.4272 7.33193 16.4797 7.39456 16.536 7.44833C16.4896 7.4808 16.4436 7.51328 16.3981 7.54575C16.3703 7.54195 16.3152 7.53563 16.288 7.53247C15.8749 7.4167 15.4599 7.30473 15.0412 7.2111C14.7502 7.13898 14.4547 7.07952 14.1587 7.02954C13.7532 6.93465 13.3363 6.8929 12.9232 6.84482C12.5411 6.7746 12.1508 6.8037 11.7655 6.77776C11.5821 6.78451 11.399 6.78472 11.2164 6.7784C10.6907 6.79991 10.1574 6.77776 9.63932 6.87961C9.61718 6.87455 9.5729 6.86506 9.55013 6.86127C9.33567 6.90175 9.11742 6.9239 8.90044 6.94857C8.55693 7.02448 8.20331 7.03397 7.85664 7.08964C7.49099 7.13013 7.12914 7.20477 6.76286 7.2364C6.1777 7.35091 5.57799 7.37937 5.00548 7.55587C4.99493 7.50062 4.98481 7.44559 4.97511 7.39076Z" fill="#253638"/>
<path d="M18.2774 5.22216C18.2743 5.13169 18.3255 5.05768 18.4065 5.01213C18.5419 5.25948 18.5526 5.54732 18.633 5.81301C18.6735 5.98318 18.7241 6.15146 18.7607 6.32289C18.7848 6.43803 18.8114 6.5519 18.8544 6.66134C18.8641 6.72165 18.8736 6.78196 18.8828 6.84226C18.8923 6.84796 18.9107 6.85808 18.9195 6.86314C18.9246 6.95487 18.9372 7.04533 18.9493 7.13643C18.9581 7.14528 18.9758 7.16426 18.9847 7.17375C19.0695 7.56428 19.1473 7.95628 19.2181 8.34977C19.3162 8.90773 19.4554 9.45683 19.5433 10.018C19.5901 10.1723 19.5933 10.3387 19.6496 10.4911C19.647 10.5108 19.6445 10.5512 19.6426 10.5715C19.7229 10.9492 19.79 11.3312 19.8121 11.719C19.8216 11.7254 19.8406 11.7386 19.8507 11.7443C19.8564 11.8544 19.8824 11.9632 19.8684 12.0746C19.8735 12.084 19.883 12.1024 19.8881 12.1119C19.9342 12.3301 19.9735 12.5496 19.9829 12.7742C19.995 12.7805 20.0196 12.7926 20.0317 12.7989C20.0165 12.8428 20.0144 12.8864 20.0253 12.9298C20.1019 13.2544 20.1095 13.5922 20.1645 13.9218C20.1847 14.2064 20.2436 14.4867 20.2467 14.7745C20.2701 14.8909 20.2815 15.0105 20.3049 15.1281C20.3733 15.4786 20.3587 15.8443 20.4593 16.1878C20.4713 16.2624 20.4802 16.339 20.4587 16.4136C20.4701 16.4326 20.4823 16.452 20.4954 16.4718C20.497 16.5511 20.5034 16.63 20.5143 16.7084C20.5763 16.9595 20.5839 17.2221 20.6383 17.4751C20.663 17.6915 20.6756 17.9097 20.7351 18.1198C20.7073 18.2494 20.7667 18.3709 20.7699 18.4987C20.7743 18.6587 20.8066 18.8144 20.8262 18.9725C20.8597 19.1914 20.8578 19.4166 20.9047 19.6342C20.9603 19.8835 20.9319 20.1447 20.9768 20.3965C20.9932 20.5104 21.0217 20.6299 20.9736 20.7444C21.0107 20.7571 21.0483 20.7702 21.0862 20.7837C21.0679 20.7925 21.0312 20.8102 21.0122 20.8191C21.0407 20.9646 21.0539 21.1126 21.0634 21.2613C21.0881 21.3188 21.0622 21.3745 21.0337 21.4277C21.0432 21.4352 21.0628 21.4492 21.0717 21.4561C21.0963 21.5782 21.1197 21.7016 21.109 21.8275C21.1229 21.8663 21.1375 21.9051 21.1526 21.9439C21.1514 22.0008 21.1507 22.0579 21.1507 22.1153C21.1183 22.1254 21.0864 22.1362 21.0552 22.1476C21.0717 22.1691 21.1039 22.2134 21.1204 22.2349C21.0499 22.2475 20.9799 22.26 20.9103 22.2722C20.8034 22.1754 20.7446 22.0457 20.7022 21.9116C20.6877 21.8369 20.6693 21.7642 20.6503 21.6921C20.6162 21.4795 20.5991 21.2613 20.5219 21.0607C20.5295 21.0373 20.5447 20.9912 20.5529 20.9684C20.5226 20.8823 20.4814 20.7982 20.484 20.7039C20.4783 20.5066 20.4416 20.3136 20.4258 20.1175C20.422 19.972 20.3828 19.8316 20.3783 19.6867C20.3707 19.4938 20.3682 19.2945 20.2936 19.1167C20.3132 18.8827 20.2499 18.6556 20.2442 18.4234C20.1999 18.3766 20.2012 18.3184 20.2183 18.2589C20.1164 18.0736 20.1727 17.8477 20.1392 17.644L20.1171 17.6251C20.1152 17.5441 20.1088 17.4631 20.105 17.3821C20.093 17.3771 20.0683 17.3663 20.0563 17.3613C20.0728 17.1025 19.9937 16.852 20.0133 16.5939C19.9981 16.5825 19.9684 16.5591 19.9538 16.5484C19.9614 16.5338 19.9766 16.5047 19.9842 16.4908C19.9127 16.1587 19.8817 15.8177 19.833 15.4818C19.8381 15.471 19.8488 15.4495 19.8539 15.4388C19.8077 15.3217 19.7792 15.1914 19.8147 15.0649C19.7927 15.021 19.771 14.9772 19.7495 14.9333C19.7592 14.8916 19.7691 14.8498 19.7792 14.8081C19.7084 14.6461 19.7679 14.4601 19.6989 14.2994C19.6989 14.2874 19.6989 14.264 19.6989 14.2526C19.6768 14.1482 19.6609 14.042 19.6641 13.9338C19.6597 13.7459 19.6046 13.5662 19.5952 13.379C19.5831 13.3739 19.5591 13.3644 19.5471 13.3594C19.5578 13.3474 19.5787 13.3233 19.5895 13.3119C19.53 13.1038 19.5192 12.8849 19.4984 12.6698C19.4914 12.6578 19.4762 12.6338 19.4693 12.6224C19.4714 12.5638 19.4737 12.5054 19.4762 12.4472C19.4642 12.4364 19.4402 12.4155 19.4275 12.4048C19.4364 12.3782 19.4541 12.3263 19.4629 12.2998C19.4484 12.2871 19.4187 12.2618 19.4041 12.2485C19.4041 12.0398 19.356 11.8373 19.3326 11.6311C19.3149 11.6151 19.2976 11.599 19.2808 11.583C19.3219 11.5147 19.2991 11.4451 19.2801 11.3774C19.2681 11.0561 19.1928 10.7448 19.1631 10.426C19.1112 10.3077 19.1024 10.178 19.1245 10.0489C19.1131 10.0471 19.091 10.0439 19.0796 10.042C19.0897 9.92876 19.0682 9.81805 19.0302 9.71304C18.9366 9.3069 18.9195 8.88305 18.8 8.48451C18.7974 8.27196 18.726 8.07205 18.7063 7.86203C18.6975 7.85064 18.6798 7.82787 18.6703 7.81585C18.6772 7.79434 18.6899 7.75069 18.6962 7.72918C18.6425 7.56913 18.6108 7.40022 18.6279 7.22879C18.6146 7.22183 18.5874 7.20665 18.5741 7.19969C18.5773 7.17818 18.5836 7.13516 18.5868 7.11428C18.5381 6.9245 18.5026 6.73092 18.4754 6.53671C18.4506 6.45279 18.4312 6.3676 18.4172 6.28114C18.3926 6.13058 18.3426 5.98382 18.3407 5.82883C18.3141 5.62766 18.2762 5.42712 18.2774 5.22216Z" fill="#253638"/>
<path d="M5.34051 9.89903C5.33165 9.74088 5.50246 9.69281 5.62329 9.65295C5.87443 9.57451 6.12874 9.49164 6.39507 9.48531C6.40329 9.47772 6.41974 9.46443 6.42796 9.45748C6.60572 9.47645 6.77779 9.41383 6.95239 9.39042C7.38257 9.28351 7.83109 9.29996 8.26379 9.20696C8.28973 9.21076 8.3416 9.21835 8.36754 9.22151C8.69902 9.16015 9.03683 9.12599 9.37338 9.10322C10.3166 9.03995 11.2604 8.92356 12.2075 8.97922C12.532 8.94633 12.859 8.99061 13.1848 9.00832C13.343 9.01339 13.5024 9.02414 13.6587 9.0602C13.8276 9.07728 13.9958 9.10069 14.161 9.14497C14.1641 9.13232 14.1704 9.10701 14.1742 9.09436C14.2305 9.12599 14.2894 9.15635 14.3552 9.16584C14.7037 9.23796 15.0548 9.29869 15.4009 9.38283C15.776 9.48721 16.1726 9.53782 16.5206 9.72127C16.5067 9.76893 16.4932 9.8168 16.4801 9.86487C16.1885 9.86487 15.9114 9.75986 15.6235 9.72886C14.965 9.59475 14.3052 9.46254 13.6391 9.3746C13.4537 9.33032 13.2633 9.33285 13.0748 9.3202C12.9046 9.29996 12.7325 9.28477 12.5617 9.30755C12.3005 9.293 12.0386 9.2873 11.7779 9.29553C11.59 9.2892 11.4022 9.28857 11.2149 9.29996C10.9568 9.30059 10.7 9.33222 10.4431 9.32526C10.4191 9.33159 10.3716 9.34361 10.3476 9.34993C10.2363 9.36069 10.1243 9.36322 10.0142 9.3474C10.0022 9.35689 9.98068 9.37587 9.9693 9.38536C9.87651 9.3765 9.78373 9.36828 9.69095 9.36069C9.68209 9.37144 9.66565 9.39295 9.65679 9.4037C9.56949 9.39042 9.48156 9.38093 9.39552 9.40117C9.17664 9.44419 8.95207 9.4347 8.73065 9.45937C8.23279 9.5239 7.72481 9.51251 7.22884 9.60551C7.2086 9.60298 7.16685 9.59728 7.14534 9.59475C7.03526 9.63018 6.92013 9.64979 6.80373 9.65548C6.514 9.68901 6.22679 9.74911 5.93579 9.77947C5.73336 9.80225 5.54927 9.92307 5.34051 9.89903Z" fill="#253638"/>
<path d="M22.2279 10.3671C22.2184 10.2096 22.3892 10.1615 22.5101 10.1217C22.7612 10.0432 23.0161 9.96036 23.2818 9.95404C23.2901 9.94645 23.3065 9.93316 23.3147 9.9262C23.4925 9.94518 23.6646 9.88255 23.8392 9.85915C24.27 9.75224 24.7179 9.76868 25.1512 9.67569C25.1771 9.67885 25.2284 9.68708 25.2543 9.69024C25.5858 9.62888 25.9236 9.59472 26.2602 9.57194C27.2034 9.50868 28.1479 9.39228 29.0942 9.44795C29.4194 9.41506 29.7465 9.45934 30.0716 9.47705C30.2298 9.48211 30.3898 9.49287 30.5454 9.52893C30.7143 9.54601 30.8832 9.56941 31.0477 9.61369C31.0515 9.60104 31.0572 9.57574 31.061 9.56309C31.1179 9.59472 31.1761 9.62508 31.2426 9.63457C31.5911 9.70669 31.9416 9.76742 32.2876 9.85155C32.6628 9.95593 33.06 10.0065 33.408 10.19C33.3936 10.2377 33.3799 10.2853 33.3669 10.333C33.0752 10.3336 32.7981 10.2286 32.5103 10.1976C31.8524 10.0635 31.1926 9.93126 30.5265 9.84333C30.3411 9.79905 30.1501 9.80158 29.9622 9.78893C29.792 9.76805 29.6199 9.7535 29.4485 9.77564C29.1879 9.76172 28.926 9.75603 28.6647 9.76426C28.4768 9.75793 28.2889 9.7573 28.1017 9.76868C27.8442 9.76931 27.5874 9.80095 27.3299 9.79335C27.3059 9.80031 27.2584 9.81233 27.235 9.81866C27.1237 9.82941 27.0111 9.83194 26.901 9.81613C26.8896 9.82562 26.8675 9.8446 26.8561 9.85408C26.7633 9.84523 26.6707 9.83701 26.5784 9.82941C26.5695 9.84017 26.5524 9.86168 26.5436 9.87243C26.4569 9.85915 26.3683 9.84966 26.2823 9.86927C26.0634 9.91292 25.8388 9.90343 25.6181 9.9281C25.1196 9.99262 24.6116 9.98124 24.1162 10.0742C24.0954 10.0717 24.0536 10.066 24.0327 10.0635C23.922 10.0989 23.8069 10.1185 23.6911 10.1242C23.4008 10.1577 23.1136 10.2178 22.8232 10.2482C22.6201 10.271 22.436 10.3918 22.2279 10.3671Z" fill="#253638"/>
<path d="M6.18217 12.6528C6.31122 12.5592 6.47443 12.5395 6.62373 12.4991C6.62752 12.4896 6.63575 12.4706 6.63954 12.4611C6.84451 12.4099 7.05264 12.377 7.26203 12.3479C7.38096 12.3207 7.50115 12.2947 7.62198 12.2776C7.63084 12.2663 7.64792 12.2435 7.65677 12.2321C7.68018 12.241 7.72636 12.258 7.74977 12.2663C8.05595 12.1631 8.38174 12.1809 8.69551 12.1138C9.14909 12.0626 9.60647 12.0486 10.0607 11.9942C10.3523 11.9879 10.642 11.9689 10.9324 11.95C11.5657 11.9481 12.2002 11.9316 12.8334 11.9753C13.4964 11.9936 14.1644 12.0082 14.8179 12.134C15.4631 12.2327 16.1122 12.3352 16.7303 12.5503C16.9213 12.5895 17.1067 12.6509 17.2926 12.7078C17.3774 12.7268 17.4312 12.7977 17.4837 12.8609C17.4438 12.8837 17.366 12.9292 17.3262 12.9514C16.9371 12.8603 16.5519 12.7483 16.1559 12.6945C15.8193 12.5996 15.4707 12.5724 15.1291 12.5029C14.3276 12.3504 13.5116 12.3289 12.7006 12.2675C12.6936 12.2776 12.679 12.2985 12.6721 12.3086C12.314 12.241 11.9446 12.2713 11.5815 12.2732C11.355 12.2258 11.1235 12.2644 10.8951 12.253C10.8704 12.2606 10.8223 12.2764 10.7983 12.2846C10.773 12.2802 10.723 12.2701 10.6977 12.2656C10.3523 12.3112 10.0012 12.3042 9.65328 12.303C9.64253 12.3093 9.62229 12.3219 9.61216 12.3289C9.28511 12.3194 8.96121 12.3719 8.63732 12.4054C8.28495 12.4016 7.94524 12.5079 7.59605 12.5326C7.22344 12.6053 6.83692 12.6098 6.47443 12.7319C6.36499 12.7502 6.26251 12.7939 6.16319 12.8426C6.16382 12.7806 6.12587 12.7009 6.18217 12.6528Z" fill="#253638"/>
<path d="M21.7402 7.28826C21.899 7.16553 22.078 7.07317 22.2634 6.99599C22.4665 6.94918 22.6683 6.89667 22.8739 6.86378C22.8878 6.85492 22.9169 6.83594 22.9314 6.82645C23.3622 6.76889 23.781 6.64489 24.2131 6.59808C25.2044 6.38489 26.2102 6.2685 27.2161 6.21789C27.3179 6.21662 27.4204 6.22295 27.5229 6.22927C27.5349 6.21599 27.5589 6.19068 27.5703 6.17803C27.9638 6.24319 28.3693 6.20713 28.7679 6.23813C29.3688 6.28874 29.9736 6.30202 30.5752 6.34567C31.4994 6.46966 32.4199 6.62718 33.3125 6.87643C33.342 6.93463 33.3724 6.99262 33.4036 7.0504C33.0778 7.132 32.7723 7.00611 32.4591 6.96246C31.8354 6.82835 31.1958 6.77142 30.5645 6.674C30.1691 6.62339 29.7648 6.64616 29.3695 6.59808C29.3404 6.60567 29.2822 6.61959 29.2531 6.62655C29.0388 6.6004 28.8237 6.58058 28.6078 6.56708C28.2074 6.56582 27.805 6.59555 27.4058 6.56962C26.4848 6.62971 25.5637 6.72018 24.6477 6.84037C24.1941 6.9321 23.7361 6.98777 23.2831 7.08139C22.9694 7.13264 22.6575 7.20096 22.3406 7.22879C22.3248 7.23765 22.2931 7.25473 22.2773 7.26295C22.1154 7.3123 21.954 7.36354 21.7927 7.41162C21.7794 7.38062 21.7529 7.31862 21.7402 7.28826Z" fill="#253638"/>
<path d="M6.54111 15.8329C6.68155 15.6994 6.87576 15.6703 7.05605 15.6279C7.2123 15.5976 7.35527 15.5109 7.51785 15.5147C7.88287 15.4577 8.24282 15.3654 8.61479 15.3679C8.62049 15.3578 8.63187 15.3388 8.63757 15.3293C8.933 15.3357 9.22652 15.2863 9.52258 15.2939C9.87115 15.2901 10.2191 15.237 10.5689 15.2648C10.9055 15.2072 11.2496 15.2522 11.5893 15.2553C12.5648 15.3123 13.5434 15.3869 14.5037 15.5779C14.5923 15.6108 14.7359 15.6184 14.7346 15.7418C14.6908 15.765 14.6465 15.7873 14.6018 15.8088C14.2924 15.7823 13.9869 15.7203 13.6775 15.6906C12.6388 15.6102 11.5975 15.5425 10.5544 15.5387C10.3412 15.5697 10.1248 15.5628 9.91037 15.552C9.88191 15.5609 9.82497 15.5773 9.79714 15.5862C9.63962 15.5609 9.48146 15.5855 9.32394 15.5849C8.9311 15.5628 8.54015 15.6165 8.15109 15.6608C7.95119 15.6994 7.75065 15.7374 7.54569 15.738C7.35148 15.7994 7.14461 15.8 6.94914 15.8544C6.81376 15.8803 6.65624 15.9499 6.54111 15.8329Z" fill="#253638"/>
<path d="M5.15407 21.1771C5.16862 21.1404 5.19772 21.0671 5.21227 21.0304C5.23567 21.0392 5.28312 21.0563 5.30716 21.0652C5.29324 21.0512 5.26604 21.0234 5.25275 21.0095C5.93724 20.7773 6.65841 20.7046 7.36629 20.5749C7.9426 20.4382 8.53852 20.4079 9.11925 20.294C9.39127 20.3022 9.65443 20.182 9.92519 20.2301C9.93341 20.2206 9.94986 20.201 9.95745 20.1922C10.3908 20.2054 10.8178 20.1004 11.2499 20.1314C11.3625 20.1264 11.4751 20.1169 11.5877 20.1087C11.9407 20.0954 12.293 20.1074 12.6454 20.1036C13.1724 20.1403 13.7025 20.1441 14.2257 20.2263C14.4806 20.2693 14.7583 20.2428 14.9898 20.3775C14.9974 20.3655 15.012 20.3421 15.0196 20.3307C15.1227 20.3908 15.2372 20.4256 15.3574 20.4275C16.1538 20.654 16.9471 20.8912 17.7208 21.186C17.8834 21.2834 18.0687 21.3315 18.2345 21.4226C18.4869 21.5662 18.7425 21.7047 18.9727 21.8831C19.1581 21.985 19.3112 22.1336 19.4782 22.2621C19.661 22.3955 19.7945 22.5847 19.9874 22.7055C20.0014 22.7831 20.0155 22.8609 20.0298 22.9389C19.9817 22.9571 19.9341 22.9756 19.8869 22.9946C19.8067 22.9697 19.727 22.9461 19.6477 22.9238C19.6439 22.9086 19.6363 22.8788 19.6325 22.8643C19.2992 22.6397 18.9746 22.4012 18.64 22.1785C18.5875 22.1387 18.5248 22.1235 18.4635 22.1083C18.466 22.0957 18.4717 22.0691 18.4742 22.0558C18.2674 22.0267 18.1004 21.8945 17.9239 21.7958C17.7803 21.7838 17.6677 21.6902 17.5456 21.6263C17.3393 21.5871 17.154 21.4688 16.9408 21.4466C16.7662 21.3486 16.5701 21.3049 16.3771 21.2613C16.2658 21.2012 16.1519 21.1449 16.0273 21.1221C15.5952 20.9728 15.1379 20.9184 14.7045 20.7742C14.6824 20.7799 14.6362 20.79 14.6134 20.795C14.4667 20.7583 14.3104 20.7634 14.1706 20.6995C14.1573 20.709 14.1308 20.728 14.1175 20.7375C13.9675 20.6742 13.8062 20.647 13.643 20.6552C12.9712 20.5806 12.2949 20.5395 11.6199 20.5793C11.1929 20.5844 10.7634 20.5654 10.3377 20.6192C9.94733 20.6344 9.55258 20.6451 9.16922 20.7261C8.03433 20.7855 6.91967 21.0278 5.78604 21.1126C5.57665 21.143 5.36726 21.1866 5.15407 21.1771Z" fill="#253638"/>
<path d="M23.2082 13.2411C23.5315 13.0058 23.9414 12.959 24.3317 12.8995C25.2737 12.73 26.2403 12.6857 27.212 12.6958C27.8939 12.6559 28.5923 12.7192 29.2844 12.8166C29.9044 12.9134 30.5376 13.0861 31.1031 13.4347C31.1314 13.5089 31.1609 13.5831 31.1917 13.6574C31.0939 13.6578 30.9964 13.6586 30.8994 13.6599C30.0271 13.2531 29.0908 13.1715 28.1849 13.1291C27.3315 13.045 26.4933 13.1424 25.652 13.1759C24.853 13.1962 24.0825 13.391 23.281 13.3872C23.2632 13.3512 23.2259 13.2778 23.2082 13.2411Z" fill="#253638"/>
<path d="M23.2066 16.8305C23.5431 16.5926 23.953 16.5192 24.337 16.3921C24.9266 16.1808 25.5529 16.1138 26.1678 16.0182C26.9877 15.9385 27.8145 15.8702 28.6381 15.9322C28.6641 15.9246 28.7153 15.9107 28.7412 15.9031C29.594 15.9701 30.4556 15.9898 31.2944 16.1726C31.7974 16.2219 32.2668 16.4231 32.7627 16.5034C33.5649 16.7837 34.4024 16.9766 35.1635 17.3669C35.4159 17.5124 35.7151 17.5618 35.9485 17.744C35.8612 17.7971 35.7663 17.8363 35.6645 17.8458C35.4039 17.7326 35.1382 17.632 34.8737 17.527C34.6302 17.4498 34.4113 17.3075 34.1583 17.2581C33.6692 17.1164 33.1885 16.9463 32.6944 16.8229C32.1206 16.6844 31.5544 16.5015 30.9642 16.4503C30.8725 16.4263 30.7795 16.4066 30.6859 16.3972C30.3576 16.3548 30.0292 16.3111 29.699 16.2915C29.0923 16.2472 28.4844 16.2346 27.8765 16.2156C27.612 16.2143 27.3482 16.2491 27.0832 16.2434C26.646 16.2346 26.2171 16.3579 25.7819 16.3402C25.7711 16.3522 25.7496 16.3769 25.7389 16.3889C25.7161 16.3845 25.6699 16.3744 25.6472 16.3693C24.8425 16.4965 24.046 16.6856 23.2768 16.9532C23.2527 16.9119 23.2293 16.871 23.2066 16.8305Z" fill="#253638"/>
<path d="M21.5102 21.8534C22.0789 21.494 22.709 21.2511 23.2999 20.9317C23.6655 20.7906 24.0052 20.5806 24.3905 20.4882C24.61 20.4003 24.8358 20.3206 25.0686 20.2801C25.1454 20.2518 25.2228 20.2244 25.3008 20.1978C25.514 20.1687 25.7152 20.0878 25.929 20.0618C26.1093 20.0384 26.2833 19.9865 26.456 19.9315C26.4863 19.9423 26.547 19.9631 26.5774 19.9739C26.5875 19.9549 26.6071 19.9176 26.6173 19.8986C26.8874 19.9062 27.1392 19.7816 27.4093 19.7923C27.4219 19.7721 27.4479 19.731 27.4605 19.7107C27.4675 19.7278 27.4814 19.762 27.489 19.779C27.6288 19.7702 27.7699 19.7702 27.9097 19.7499C28.0799 19.7215 28.2513 19.6949 28.4189 19.6525C28.4607 19.6677 28.5031 19.6833 28.5461 19.6993C28.5562 19.6842 28.5752 19.6544 28.5847 19.6392C28.6783 19.6335 28.7726 19.6297 28.8668 19.6392C28.971 19.627 29.076 19.6173 29.1819 19.6101C29.2413 19.6085 29.301 19.612 29.3609 19.6209C29.3716 19.6127 29.3931 19.5969 29.4039 19.5893C29.8132 19.5791 30.2244 19.631 30.6324 19.5905C30.7703 19.6133 30.9095 19.6291 31.0493 19.6468C31.0588 19.6348 31.0778 19.6108 31.0873 19.5987C31.3118 19.6614 31.5472 19.6487 31.7755 19.6924C32.0412 19.7367 32.3152 19.7367 32.5758 19.8107C32.9351 19.9024 33.3153 19.9328 33.6557 20.0859C33.6778 20.0865 33.7233 20.0884 33.7461 20.089C34.0567 20.2212 34.3907 20.3085 34.6779 20.4901C35.0303 20.6476 35.3713 20.8279 35.7123 21.0088C35.7726 21.0493 35.8348 21.0881 35.8989 21.1252C36.0159 21.2132 36.1323 21.3036 36.262 21.3738C36.3499 21.4377 36.4398 21.4997 36.5346 21.5541C36.6232 21.6345 36.7225 21.7041 36.8263 21.7654C36.8307 21.7819 36.8421 21.816 36.8478 21.8331C36.8916 21.8525 36.9357 21.8725 36.98 21.8932C37.1862 22.1096 37.4443 22.2753 37.6297 22.5119C37.7252 22.6498 37.8384 22.7738 37.9561 22.8927C37.989 22.953 38.0204 23.0144 38.0504 23.0768C38.0712 23.0958 38.1117 23.1344 38.1326 23.1534C38.1364 23.185 38.1427 23.2476 38.1465 23.2793C38.163 23.2894 38.1965 23.3084 38.213 23.3178C38.1813 23.3857 38.1501 23.4536 38.1193 23.5215C38.0845 23.5253 38.0156 23.5329 37.9808 23.5367C37.9445 23.508 37.9089 23.4798 37.8739 23.452C37.8675 23.4393 37.8543 23.4127 37.8479 23.3988C37.376 22.8788 36.8763 22.3677 36.2702 22.0033C36.0387 21.8692 35.8483 21.6699 35.5908 21.5807C35.5914 21.5655 35.5921 21.5364 35.5927 21.5212C35.3384 21.5061 35.1701 21.2846 34.9449 21.1936C34.6887 21.093 34.4603 20.9329 34.1953 20.8532C34.0757 20.7722 33.9359 20.7336 33.8012 20.6887C33.5671 20.6147 33.3368 20.5255 33.0933 20.4876C33.003 20.4602 32.9128 20.4332 32.8225 20.4066C32.7985 20.4116 32.7491 20.423 32.7251 20.4281C32.5581 20.3389 32.367 20.3326 32.1886 20.2813C31.8894 20.2408 31.5832 20.2358 31.2922 20.151C31.2408 20.1708 31.1897 20.1913 31.1391 20.2124C31.0957 20.1896 31.0525 20.1675 31.0095 20.146C30.7798 20.1833 30.5502 20.1225 30.3205 20.1352C30.151 20.1346 29.9815 20.1649 29.8132 20.1422C29.704 20.143 29.5954 20.1457 29.4874 20.1504C29.4804 20.1618 29.4659 20.1845 29.4583 20.1959C29.3419 20.1137 29.1964 20.146 29.0648 20.1472C28.708 20.194 28.3493 20.2162 27.9926 20.2529C27.7591 20.3092 27.5194 20.3206 27.2802 20.3199C26.9854 20.3699 26.6938 20.4445 26.3946 20.4591C26.3933 20.4724 26.3908 20.4977 26.3902 20.5103C26.1105 20.473 25.848 20.5983 25.5785 20.6476C24.9972 20.7596 24.4322 20.9399 23.8844 21.1619C23.5751 21.2701 23.2651 21.3916 22.976 21.544C22.7767 21.6294 22.5502 21.6667 22.3877 21.8211C22.3699 21.8217 22.3345 21.823 22.3162 21.8236C22.2765 21.8359 22.2373 21.8481 22.1985 21.8603C22.1903 21.8698 22.1726 21.8882 22.1643 21.897C21.9347 21.94 21.7146 22.0204 21.4976 22.1039C21.4756 22.0655 21.4539 22.0277 21.4324 21.9906C21.4586 21.9451 21.4845 21.8993 21.5102 21.8534Z" fill="#253638"/>
<path d="M21.8553 22.3519C21.8812 22.3254 21.9331 22.2722 21.959 22.2456C22.4 22.1134 22.8169 21.9085 23.2685 21.8098C23.6108 21.6953 23.9613 21.6067 24.3174 21.5403C24.7874 21.4144 25.2632 21.3144 25.7382 21.2145C25.7981 21.2149 25.8584 21.2147 25.9192 21.2139C26.1165 21.1348 26.3335 21.138 26.5366 21.0798C26.5613 21.0829 26.6106 21.0886 26.6353 21.0918C26.8561 21.0386 27.087 21.0557 27.309 21.0064C27.6025 21.0127 27.8992 20.9918 28.1883 20.9406C28.263 20.944 28.3383 20.9484 28.4142 20.9539C28.4224 20.9418 28.4407 20.9178 28.4496 20.9064C28.7248 20.926 29.0012 20.9425 29.2764 20.9159C29.5712 20.933 29.866 20.9336 30.1602 20.9545C30.3683 20.9343 30.5745 20.995 30.782 20.9665C31.2128 21.0507 31.6493 21.1032 32.0852 21.1569C32.5596 21.2543 33.0411 21.3176 33.513 21.4315C33.6983 21.4878 33.9058 21.4587 34.0766 21.5593C34.0811 21.5409 34.0906 21.5049 34.0944 21.4872C34.107 21.5023 34.1323 21.5321 34.145 21.5472C34.3841 21.6124 34.6125 21.7098 34.8503 21.7813C35.0869 21.8547 35.2893 22.0116 35.5304 22.0736C35.694 22.19 35.8654 22.2937 36.0447 22.3848C36.2754 22.5598 36.4972 22.7456 36.7102 22.9421C36.7317 22.9757 36.7734 23.0421 36.7943 23.0763C36.7576 23.1711 36.6785 23.2319 36.5919 23.28C36.3047 23.1288 36.0561 22.9137 35.7657 22.7663C35.4329 22.5746 35.0812 22.419 34.7377 22.2482C34.7339 22.2634 34.727 22.2925 34.7232 22.307C34.5087 22.1273 34.2152 22.1058 33.9545 22.0356C33.6022 21.9471 33.2454 21.8743 32.8842 21.8401C32.7298 21.7959 32.5774 21.7402 32.4167 21.7282C32.3977 21.7345 32.3604 21.7478 32.342 21.7541C32.2758 21.7313 32.21 21.7096 32.1447 21.689C31.6721 21.6244 31.204 21.5308 30.7257 21.5093C30.5714 21.5042 30.4189 21.4726 30.2664 21.4498C30.2411 21.4555 30.1899 21.4688 30.164 21.4745C29.8363 21.3929 29.4915 21.4764 29.1632 21.4011C29.1682 21.4214 29.179 21.4618 29.1841 21.4827C29.1056 21.4492 29.031 21.4188 28.9538 21.3878C28.9418 21.403 28.9171 21.434 28.9057 21.4492C28.8108 21.4435 28.7166 21.4384 28.6223 21.4296C28.4249 21.4599 28.2231 21.4119 28.0276 21.4562C27.7537 21.4612 27.4804 21.4947 27.2072 21.4922C27.1951 21.4992 27.1724 21.5125 27.1603 21.5194C26.9623 21.5036 26.7612 21.5118 26.5682 21.5612C26.1539 21.5707 25.7528 21.6776 25.3454 21.737C25.0734 21.8041 24.783 21.7984 24.5236 21.9148C24.4155 21.9211 24.3079 21.9281 24.2004 21.9306C24.1746 21.9471 24.1493 21.9639 24.1245 21.9812C23.3976 22.1147 22.6815 22.314 21.9616 22.4835C21.959 22.4639 21.954 22.4228 21.9515 22.4032L21.9059 22.4626L21.8553 22.3519Z" fill="#253638"/>
</svg>
