<svg width="20" height="20" viewBox="0 0 20 20" fill="none" xmlns="http://www.w3.org/2000/svg">
<g clip-path="url(#clip0_1_889)">
<path d="M7.59822 8.17496C6.8383 6.38948 7.18622 4.24484 8.64246 2.78856C9.43814 1.99288 10.4394 1.52844 11.4753 1.39436C10.8516 2.91568 11.2679 4.7258 12.6154 5.80732C14.1887 7.07004 14.6789 9.309 13.5461 10.9381C13.7823 10.8407 14.0057 10.715 14.2115 10.5637C15.5175 9.60452 15.8703 7.8306 15.0855 6.45672C16.603 7.83864 17.5556 9.83016 17.5556 12.0443C17.5556 16.2172 14.1729 19.6 9.99998 19.6C5.8271 19.6 2.44434 16.2172 2.44434 12.0444C2.44434 11.2012 2.58258 10.3904 2.83738 9.63324C2.83674 9.6308 2.83598 9.62844 2.83534 9.626L2.83738 9.63324C3.25158 11.1653 4.68286 12.1515 6.20846 12.0591C5.1619 11.3424 4.4751 10.1388 4.4751 8.7746C4.4751 7.54448 5.03354 6.44488 5.91062 5.71512C5.80554 6.82112 6.49002 7.8386 7.52518 8.175" fill="#FD8F01"/>
<path d="M11.5908 4.53604C11.1071 3.5632 11.0573 2.41404 11.4753 1.39436C10.4394 1.52844 9.43814 1.99288 8.64246 2.78856C7.18618 4.24484 6.8383 6.38948 7.59822 8.17496H7.52518C6.49002 7.83856 5.80554 6.82108 5.91062 5.71508C5.03354 6.4448 4.4751 7.5444 4.4751 8.77456C4.4751 10.1388 5.1619 11.3424 6.20846 12.059C4.68286 12.1514 3.25154 11.1652 2.83738 9.6332C2.58258 10.3904 2.44434 11.2012 2.44434 12.0443C2.44434 16.2172 5.8271 19.6 9.99998 19.6C10.8211 19.6 11.6114 19.4685 12.3516 19.2263C8.55946 15.2507 8.14377 9.0044 11.5908 4.53604Z" fill="#FD6050"/>
<path d="M9.99997 19.6C10.8604 19.5998 11.7232 19.2979 12.4105 18.6858C13.8674 17.3884 14.0317 15.1808 12.8104 13.6842C12.7863 13.9939 12.6729 14.2899 12.484 14.5364C12.1101 15.0251 11.3239 14.7922 11.2832 14.1783C11.1959 12.8629 10.434 11.6539 9.24653 11.025L8.93945 11.7749L9.99997 19.6Z" fill="#FDCB50"/>
<path d="M9.24633 11.0256C9.09507 10.9452 8.93857 10.8752 8.77789 10.8158C8.72509 11.7371 8.32329 12.6375 7.58009 13.3001C6.07621 14.6409 5.96065 16.9582 7.33613 18.443C8.57849 19.7841 10.6269 19.971 12.0889 18.9401C10.1186 16.7264 9.14505 13.8731 9.24633 11.0256Z" fill="#FD8F01"/>
<path d="M3.51926 3.2364C3.0451 3.9066 2.11738 4.06552 1.44718 3.59136C0.732941 3.086 0.563581 2.09736 1.0689 1.38308C1.47398 0.81048 1.97618 0.34728 2.5373 0C2.5525 0.44856 2.76966 0.88508 3.1643 1.16432C3.8345 1.63848 3.99342 2.5662 3.51926 3.2364ZM16.4808 5.26156C16.9549 5.93176 17.8827 6.09068 18.5529 5.61652C19.2671 5.11116 19.4365 4.12252 18.9311 3.40824C18.526 2.83564 18.0238 2.37244 17.4627 2.02516C17.4475 2.47372 17.2303 2.91024 16.8357 3.18948C16.1655 3.66364 16.0066 4.59136 16.4808 5.26156Z" fill="#FDCB50"/>
<path d="M7.59822 8.17496C6.8383 6.38948 7.18622 4.24484 8.64246 2.78856C9.43814 1.99288 10.4394 1.52844 11.4753 1.39436C10.8516 2.91568 11.2679 4.7258 12.6154 5.80732C14.1887 7.07004 14.6789 9.309 13.5461 10.9381C13.7823 10.8407 14.0057 10.715 14.2115 10.5637C15.5175 9.60452 15.8703 7.8306 15.0855 6.45672C16.603 7.83864 17.5556 9.83016 17.5556 12.0443C17.5556 16.2172 14.1729 19.6 9.99998 19.6C5.8271 19.6 2.44434 16.2172 2.44434 12.0444C2.44434 11.2012 2.58258 10.3904 2.83738 9.63324M2.83738 9.63324C2.83674 9.6308 2.83598 9.62844 2.83534 9.626L2.83738 9.63324ZM2.83738 9.63324C3.25158 11.1653 4.68286 12.1515 6.20846 12.0591C5.1619 11.3424 4.4751 10.1388 4.4751 8.7746C4.4751 7.54448 5.03354 6.44488 5.91062 5.71512C5.80554 6.82112 6.49002 7.8386 7.52518 8.175" stroke="#052A75" stroke-miterlimit="10" stroke-linecap="round" stroke-linejoin="round"/>
</g>
<defs>
<clipPath id="clip0_1_889">
<rect width="20" height="20" fill="white"/>
</clipPath>
</defs>
</svg>
