<svg width="145" height="146" viewBox="0 0 145 146" fill="none" xmlns="http://www.w3.org/2000/svg">
<path d="M105.419 27.9535C106.003 28.2004 106.516 29.5473 106.1 30.238C105.984 30.4255 105.672 30.5224 105.431 30.588C104.259 30.9161 104.059 31.2255 104.422 32.3974C104.637 33.1319 104.915 33.8538 105.184 34.5726C105.406 35.1757 105.256 35.6132 104.637 35.8351C104.144 36.0101 103.634 36.3008 103.147 36.2695C101.859 36.1851 100.725 36.4726 99.6652 37.1883C99.5215 37.2852 99.3402 37.3414 99.1715 37.4196C99.1485 37.3758 99.1225 37.3352 99.0933 37.2977C99.2183 37.1539 99.334 36.9977 99.4652 36.8664C100.556 35.757 100.812 34.41 100.609 32.9319C100.434 31.663 100.693 31.1349 101.806 30.5224C102.562 30.1067 103.35 29.738 104.065 29.2536C104.553 28.9223 104.937 28.4285 105.419 27.9535Z" fill="#0C0115"/>
<path d="M104.246 26.5093C104.524 27.1093 104.324 27.875 103.759 28.2187C102.943 28.7156 102.099 29.1782 101.252 29.6251C99.9649 30.2907 99.4055 31.3189 99.6211 32.7565C99.9524 34.9409 99.1242 36.4848 97.121 37.4192C96.9397 37.5004 96.8085 37.6942 96.6272 37.8504C95.4803 37.3504 95.3303 36.8535 95.6584 35.741C95.8709 35.0534 95.8834 34.2847 95.8459 33.5627C95.8272 33.1659 95.9053 32.9315 96.1178 32.6065C96.6647 31.7845 97.2647 30.9345 97.5585 30.0032C97.8429 29.1063 98.3586 28.8188 99.1711 28.625C100.018 28.4219 100.868 28.1344 101.662 27.7656C102.612 27.3218 103.187 26.4843 103.596 25.3624C103.862 25.8249 104.084 26.1562 104.246 26.5093Z" fill="#0C0115"/>
<path d="M102.502 22.4034C102.762 23.4129 103.34 24.3035 102.683 25.3848C101.936 26.613 100.89 27.2849 99.5488 27.6099C99.2738 27.6756 98.9832 27.7131 98.7019 27.7599C97.6206 27.9412 96.9206 28.5256 96.6987 29.6382C96.5206 30.5444 96.1174 31.3445 95.3112 32.0289C94.8705 30.9976 94.408 30.0507 94.0892 29.0538C93.9861 28.735 94.1798 28.1881 94.4267 27.9099C95.2205 27.0037 96.2549 26.4505 97.4394 26.1849C99.052 25.8255 100.483 25.1379 101.527 23.8035C101.852 23.3816 102.143 22.9253 102.502 22.4034Z" fill="#0C0115"/>
<path d="M128.998 6.59282C128.95 6.64074 128.904 6.68865 128.86 6.73657C128.091 6.52094 126.141 4.63335 125.848 3.58643C126.896 4.58856 127.946 5.59069 128.998 6.59282Z" fill="#0C0115"/>
<path d="M129.857 8.53698C130.248 9.55265 130.61 10.5808 131.029 11.7403C127.298 10.4496 122.335 5.16807 121.554 1.62103C122.647 2.12418 123.579 2.53983 124.494 2.99297C124.613 3.0461 124.663 3.26173 124.723 3.41174C125.654 5.70247 127.37 7.22442 129.526 8.31197C129.648 8.37448 129.823 8.43385 129.857 8.53698Z" fill="#0C0115"/>
<path d="M111.684 1.90814C109.225 5.09579 106.075 7.14588 102.703 9.02722C103.153 6.58023 108.372 2.41442 111.684 1.90814Z" fill="#0C0115"/>
<path d="M113.856 1.4144C114.831 1.35503 115.797 1.24877 116.81 1.15814C115.803 4.93332 104.597 13.215 100.968 12.8306C101.365 11.8743 101.74 10.9524 102.131 10.0398C102.159 9.97418 102.275 9.93043 102.353 9.8898C103.447 9.35227 104.603 8.91475 105.619 8.25847C107.716 6.91779 109.822 5.55835 111.506 3.67701C111.884 3.24887 112.288 2.81134 112.541 2.30507C112.828 1.72379 113.225 1.45191 113.856 1.4144Z" fill="#0C0115"/>
<path d="M130.904 13.0148C130.904 13.2992 130.904 13.6273 130.904 13.8742C130.235 14.1273 129.629 14.3555 128.944 14.6149C127.669 13.8805 126.263 13.0742 124.86 12.2523C123.104 11.2241 121.716 9.8459 120.707 8.05519C120.266 7.26765 119.6 6.59262 118.985 5.92072C118.906 5.83634 118.45 5.95509 118.288 6.1051C117.031 7.2614 115.913 8.57709 114.547 9.58026C111.565 11.7772 108.422 13.7242 104.759 14.6399C104.409 14.7243 104.018 14.7649 103.737 14.9586C103.453 15.1368 103.278 15.4868 103.062 15.7649C102.703 14.7336 102.093 14.4336 100.687 14.5742C100.621 14.043 100.712 13.8086 101.371 13.743C102.378 13.6336 103.453 13.4773 104.337 13.0273C106.465 11.9335 108.54 10.7053 110.572 9.43025C112.412 8.27707 113.947 6.74888 115.306 5.05505C115.725 4.53003 116.25 4.08625 116.647 3.54873C117.163 2.85182 117.603 2.09554 118.175 1.21112C118.703 1.258 119.466 1.31425 120.219 1.43301C120.394 1.45801 120.622 1.70489 120.657 1.88303C121.182 4.49565 122.685 6.52699 124.494 8.36771C126.363 10.2678 128.654 11.596 130.904 13.0148Z" fill="#0C0115"/>
<path fill-rule="evenodd" clip-rule="evenodd" d="M132.154 143.387C126.082 143.64 120.003 143.831 113.928 144.137C108.022 144.437 102.131 144.949 96.2241 145.184C92.652 145.321 89.0675 145.171 85.4955 145.034C82.014 144.896 78.5451 144.553 75.0637 144.396C67.3071 144.037 59.5505 143.734 51.7908 143.406C49.0312 143.284 46.2717 143.14 43.4497 143.009C43.3497 143.915 42.6341 144.156 41.8403 144.246C39.6433 144.493 37.4495 144.746 35.2494 144.931C33.0649 145.118 30.8835 145.274 28.6991 145.334C27.8834 145.365 27.0333 145.153 26.2302 144.949C25.4364 144.753 25.0614 144.137 25.0489 143.331C25.0333 142.496 25.0458 141.662 25.0458 140.806C24.2613 140.706 24.1676 140.543 24.1676 139.627C24.177 136.165 24.0832 132.699 24.1832 129.242C24.3332 124.03 24.6176 118.82 24.8645 113.607C24.9489 111.726 25.0989 109.838 25.2114 107.954C25.1551 107.937 25.0999 107.918 25.0458 107.895C24.252 109.417 23.4144 110.92 22.6738 112.467C21.3893 115.176 20.1674 117.92 18.9173 120.648C17.3485 124.077 15.7953 127.511 14.1827 130.921C13.5296 132.308 12.7702 133.649 12.0014 134.986C11.7358 135.449 11.317 135.827 10.9295 136.283C11.1357 136.837 10.9795 137.149 10.2982 137.155C9.75754 137.155 9.21689 137.03 8.46686 136.933C9.24814 137.765 9.90755 138.502 10.6076 139.205C11.9045 140.531 13.239 141.812 14.514 143.146C14.9422 143.596 15.5359 144.149 15.0984 144.84C14.714 145.456 14.0327 145.131 13.5171 144.949C11.2482 144.156 9.01376 143.296 6.75115 142.496C4.7073 141.774 2.71659 140.949 0.966503 139.621C-0.0554195 138.84 -0.192925 138.527 0.210218 137.305C0.483148 136.457 0.775869 135.618 1.08838 134.786C1.16651 134.565 1.3509 134.377 1.53216 134.102C0.297724 133.171 0.763369 131.902 1.20089 130.686C2.16968 127.999 3.19786 125.327 4.17915 122.645C5.90423 117.954 7.58869 113.248 9.33252 108.57C10.8451 104.516 12.417 100.488 13.9734 96.4503C14.1234 96.0534 14.214 95.7722 13.8609 95.3753C13.3171 94.7784 13.239 94.0533 13.4921 93.2345C14.7484 89.2 15.8078 85.1029 17.486 81.2027C17.9173 80.1964 18.1298 79.0901 18.4173 78.0276C18.4704 77.8463 18.4767 77.5588 18.3767 77.4369C17.0454 75.9087 17.0891 74.143 17.4423 72.3273C17.7985 70.4803 18.6955 68.8928 19.9924 67.5677C20.583 66.9739 21.305 66.6489 22.2706 66.7645C22.3102 66.7645 22.3488 66.7677 22.3863 66.7739C23.4144 66.927 24.4895 66.8114 25.4645 67.2864C26.2646 67.6833 27.0333 68.1396 27.8271 68.549C28.0146 68.6521 28.224 68.724 28.4365 68.749C29.7158 68.8844 31.0044 69.0167 32.3023 69.1459C32.2836 69.0959 32.2305 68.9646 32.1586 68.7771C32.3336 68.7115 30.3491 65.4332 29.7647 64.3457C29.5116 63.8707 29.921 63.7675 30.2522 63.6957C31.1898 63.4863 32.1273 63.2769 33.0711 63.1144C36.1932 62.5706 38.9527 61.1893 41.5465 59.4454C42.6466 58.711 43.2216 57.5704 43.9154 56.4578C45.8499 53.3483 45.2905 50.1669 44.5029 46.998C44.0404 45.1198 43.1997 43.3416 42.4466 41.5477C42.2434 41.0633 41.7497 40.7008 41.4309 40.2571C41.2684 40.0289 41.1965 39.7445 41.0871 39.482C41.3215 39.5351 41.6278 39.5289 41.7559 39.6726C42.3028 40.3227 42.9028 40.9665 43.2654 41.7165C44.1842 43.6103 44.9779 45.5667 45.8311 47.5011C47.0343 46.8949 48.3281 46.2167 49.6438 45.5854C51.7376 44.5791 53.9752 44.0385 56.2535 43.6603C62.2069 42.6728 68.1978 42.8947 74.173 43.1853C77.0294 43.3228 79.9108 43.4978 82.6953 44.0635C85.5798 44.6448 88.3643 45.7104 91.1801 46.6073C91.6676 46.7636 92.0708 46.798 92.552 46.6011C93.4396 46.2323 94.5459 46.1542 95.2084 45.5604C95.8584 44.9698 96.0866 43.9072 96.4647 43.0353C96.8554 42.1384 97.5648 41.729 98.4867 41.6259C99.0148 41.5665 99.4774 41.5009 99.8461 40.9915C100.109 40.6227 100.577 40.3477 101.012 40.1664C102.426 39.5706 103.843 38.981 105.262 38.3976C107.129 37.6288 108.998 36.8631 110.869 36.1006C111.215 35.9569 111.606 35.8975 112.065 35.7693C112.228 33.9786 112.394 32.1504 112.55 30.4253C110.722 29.9784 109.009 29.5659 107.362 29.1628C107.284 29.6847 107.356 30.3878 107.056 30.8504C106.756 31.3098 106.081 31.5254 105.437 31.9285C105.559 32.2754 105.725 32.788 105.906 33.2942C106.062 33.7192 106.278 34.1349 106.393 34.5724C106.653 35.5787 106.309 36.3006 105.403 36.8038C105.178 36.9256 104.962 37.0319 104.734 37.1163C104.056 37.3882 103.343 37.5069 102.574 37.5069C101.924 37.5069 101.215 37.7476 100.627 38.0663C99.3274 38.7664 98.0179 39.3008 96.5085 39.0414C94.9084 38.7664 93.8021 37.2257 94.4271 35.8068C95.0209 34.4537 94.6146 33.3474 94.1334 32.1817C93.824 31.4223 93.4646 30.6879 93.1521 29.9316C92.6052 28.6034 92.8021 27.7908 93.8302 26.822C94.7865 25.9251 95.8928 25.3189 97.1679 25.047C98.7086 24.7251 99.9586 23.9407 101.006 22.7812C101.618 22.1031 101.662 21.8687 100.946 21.2905C99.7368 20.3155 99.3805 18.9998 99.4305 17.5622C99.4711 16.2497 99.5492 14.9277 99.8024 13.6527C100.506 10.0338 101.981 6.73048 104.793 4.27724C106.843 2.48653 109.268 1.19272 111.975 0.598944C115.059 -0.0760877 118.175 -0.260471 121.272 0.464563C124.338 1.18647 127.122 2.58966 129.094 5.05853C131.151 7.63365 132.51 10.5869 132.048 14.0558C132.023 14.2058 132.029 14.3996 132.107 14.5183C133.254 16.2809 133.266 18.1154 132.46 19.9967C132.445 20.0405 132.457 20.0874 132.457 20.1186C133.641 20.1186 134.832 20.0342 135.998 20.1405C138.179 20.3405 139.479 21.5843 139.739 23.7563C139.87 24.8501 140.279 25.5845 141.339 25.9814C142.589 26.4502 143.304 27.4721 143.839 28.6378C144.267 29.569 144.223 30.4972 143.67 31.3254C142.758 32.6848 141.511 33.5817 139.804 33.6349C138.81 33.6661 137.923 33.238 137.476 32.4223C136.479 30.5878 134.932 30.491 133.154 30.7004C131.204 30.9285 129.804 30.1003 128.972 28.3127C128.722 27.7721 128.522 27.2064 128.247 26.5283C126.238 28.144 124.05 29.2034 121.428 29.1315C121.764 30.9399 122.084 32.6796 122.388 34.3505C125.294 35.0068 128.282 35.4756 131.119 36.3944C133.435 37.1538 135.463 38.5851 136.37 41.0915C136.395 41.1571 136.46 41.2258 136.454 41.2852C136.351 42.3728 137.285 42.7384 137.845 43.401C138.77 44.4885 139.532 45.7104 140.357 46.8824C140.442 46.998 140.495 47.1605 140.495 47.2918C140.461 49.32 142.017 49.7981 143.479 50.2638C144.236 50.5044 144.411 50.8513 144.404 51.5857C144.386 61.0393 144.392 70.4928 144.398 79.9433C144.398 80.2089 144.489 80.4746 144.542 80.7371C144.542 83.8643 144.542 86.9915 144.542 90.1188C144.501 90.6438 144.436 91.1719 144.429 91.6938C144.398 96.7941 144.351 101.888 144.358 106.988C144.361 115.311 144.398 123.633 144.423 131.955C144.427 134.741 144.432 137.528 144.436 140.318C144.436 140.831 144.289 141.402 144.542 141.352C144.542 141.738 144.542 142.123 144.542 142.509C143.742 142.671 134.867 143.277 132.154 143.387ZM143.389 80.6121C143.448 71.0616 143.401 61.5143 143.401 51.9639C143.401 51.6638 143.401 51.3638 143.401 51.1513C142.779 50.9357 142.27 50.7982 141.795 50.5763C141.332 50.3544 140.904 50.0388 140.467 49.77C139.292 51.3138 136.448 52.1795 134.488 51.5982C131.529 50.7138 130.891 48.5012 131.266 45.7479C130.813 45.6136 130.429 45.4823 130.038 45.3854C129.407 45.2292 128.704 45.2229 128.157 44.9229C127.441 44.526 126.826 44.7354 126.419 45.1698C125.641 45.9917 124.741 46.8636 124.385 47.8887C123.478 50.52 122.863 53.2639 122.775 56.0672C122.685 58.7298 122.647 61.3987 122.775 64.0644C122.941 67.4896 123.31 70.9116 123.557 74.3399C123.669 75.8931 123.779 77.4557 123.741 79.0057C123.719 80.1558 123.016 80.4152 122.113 79.7402C121.938 79.6089 121.757 79.4808 121.613 79.3245C119.51 77.1494 117.313 75.0493 115.775 72.3929C115.503 71.9304 115.125 71.5273 114.753 71.0335C114.612 71.2554 114.525 71.3648 114.462 71.4898C113.159 74.243 111.865 77.0056 110.537 79.7526C110.394 80.0589 110.05 80.2808 109.797 80.5402C109.55 80.2871 109.262 80.0589 109.056 79.7714C108.897 79.5433 108.834 79.2401 108.737 78.9651C106.25 71.946 105.087 64.6832 104.89 57.2672C104.793 53.6889 104.943 50.1075 104.981 46.5292C104.987 45.9104 104.981 45.2948 104.981 44.676C103.134 44.8573 103.134 44.8573 103.115 46.5823C103.115 46.6073 103.115 46.6313 103.115 46.6542C103.087 49.2294 101.74 50.9732 99.2555 51.6451C97.5429 52.1076 96.2678 51.4701 95.7553 49.795C95.4803 48.9043 95.3709 47.973 95.1709 46.9792C94.6678 47.148 94.1427 47.3043 93.6271 47.4918C92.7302 47.8105 92.5739 48.0543 92.5739 49.0231C92.5802 52.8733 92.5989 56.7141 92.5802 60.5643C92.5635 64.4832 92.526 68.4021 92.4677 72.3211C92.4052 76.9369 92.3333 81.5559 92.227 86.1686C92.1364 89.7781 91.8895 93.3783 91.8958 96.9878C91.9083 100.854 92.1426 104.713 92.2614 108.582C92.3708 111.923 92.527 115.261 92.5333 118.598C92.552 126.464 92.4895 134.33 92.4614 142.19C92.4614 142.443 92.4614 142.693 92.4614 143.115C94.8053 140.799 97.3679 139.062 100.012 137.455C101.449 136.59 102.865 135.665 104.384 134.993C105.715 134.408 107.181 134.149 108.581 133.724C112.119 132.646 115.716 131.974 119.438 132.08C122.582 132.171 125.6 132.99 128.672 133.549C133.641 134.455 138.067 136.405 141.901 139.687C142.27 139.999 142.72 140.218 143.233 140.543C143.233 140.037 143.233 139.699 143.233 139.362C143.245 133.686 143.259 128.01 143.273 122.333C143.279 121.564 143.473 120.751 142.804 120.126C142.773 120.095 142.817 119.995 142.829 119.923C142.95 119.923 143.063 119.923 143.167 119.923C143.136 119.573 143.083 119.242 143.083 118.904C143.07 114.382 143.008 109.86 143.058 105.344C143.142 97.1003 143.339 88.8562 143.389 80.6121ZM142.817 29.8784C142.733 28.6034 142.076 27.5565 140.873 27.0564C139.414 26.4502 138.739 25.4345 138.589 23.8813C138.439 22.3375 137.598 21.5374 136.038 21.2905C135.329 21.1812 134.607 21.1874 133.885 21.1343C133.629 21.1093 133.351 21.1218 133.11 21.0437C132.082 20.6999 131.432 21.0062 131.066 21.9624C131.685 22.0343 132.329 22.0593 132.954 22.1937C133.585 22.3312 134.182 22.625 134.813 22.7562C136.16 23.0406 136.954 23.8625 137.548 25.0782C137.867 25.7345 138.482 26.2564 139.004 26.8033C140.136 27.994 142.142 28.0784 142.817 29.8784ZM142.136 31.316C142.239 31.2254 142.251 30.9347 142.192 30.791C141.829 29.9066 141.32 29.1784 140.392 28.7409C138.745 27.9596 137.307 26.9314 136.545 25.1376C136.323 24.6094 135.829 24.0625 135.317 23.8219C134.351 23.3719 133.285 23.1 132.245 22.825C131.685 22.6719 131.001 22.5 130.623 23.1375C129.894 24.3688 129.876 25.047 130.604 25.7282C131.026 26.1189 131.579 26.4439 132.132 26.6064C132.835 26.8095 133.591 26.872 134.332 26.9002C137.079 27.0221 139.01 28.5971 139.61 31.2473C139.695 31.6223 139.773 31.9942 139.864 32.4161C140.892 32.4504 141.523 31.8785 142.136 31.316ZM141.464 141.246C141.529 140.721 141.17 140.552 140.795 140.531C140.376 140.505 139.948 140.643 139.52 140.674C135.932 140.949 132.341 141.306 128.738 141.462C123.597 141.69 118.456 141.762 113.309 141.924C107.421 142.106 101.534 142.346 95.6491 142.477C94.4334 142.509 94.0052 143.393 93.3021 144.071C109.4 142.731 125.541 142.777 141.554 141.806C141.517 141.593 141.439 141.415 141.464 141.246ZM139.907 139.815C139.928 139.738 139.95 139.662 139.973 139.587C139.239 139.112 138.504 138.63 137.929 138.255C137.457 138.43 137.17 138.624 136.876 138.643C135.27 138.743 133.657 138.865 132.054 138.877C125.95 138.924 119.844 138.912 113.741 138.965C109.706 139.002 105.671 139.112 101.631 139.165C101.193 139.165 100.752 138.984 100.096 138.84C99.0805 139.496 97.8617 140.277 96.6397 141.065C96.6731 141.144 96.7074 141.224 96.7429 141.306C111.125 140.784 125.529 140.602 139.907 139.815ZM139.42 48.0199C139.317 47.6574 139.285 47.3574 139.148 47.1292C138.348 45.7542 137.501 44.4166 136.11 43.5291C135.667 43.2447 135.27 42.8728 134.717 42.4259C135.173 42.2759 135.42 42.1978 135.726 42.104C135.548 41.7727 135.354 41.4946 135.223 41.1883C134.392 39.2476 132.738 38.0976 130.91 37.4975C128.132 36.5819 125.222 36.0662 122.36 35.3724C122.31 36.7913 121.078 37.4288 120.35 38.3913C121.344 38.3913 122.275 38.3913 123.213 38.3913C124.819 38.3913 126.429 38.3257 128.035 38.4163C129.16 38.4757 129.523 38.9757 129.523 40.1227C129.523 41.1571 129.438 42.1915 129.473 43.2197C129.485 43.5385 129.713 43.9979 129.973 44.1291C130.488 44.3947 131.104 44.4729 131.679 44.6354C132.029 44.0697 132.329 43.5166 132.695 43.0166C132.901 42.7384 133.188 42.4822 133.501 42.3384C133.641 42.2696 133.857 42.3603 134.054 42.4259C134.108 42.4447 134.158 42.4592 134.204 42.4697C134.132 42.6603 134.11 42.8916 133.988 43.0541C133.154 44.1822 132.413 45.3604 132.341 46.8167C132.238 48.6387 132.841 49.6606 134.41 50.2856C135.973 50.9107 137.435 50.4325 138.848 49.77C139.057 49.6731 139.179 49.3919 139.37 49.1575C138.992 48.945 138.692 48.77 138.367 48.5856C138.457 48.3012 138.535 48.0543 138.62 47.7793C138.873 47.8574 139.089 47.9168 139.42 48.0199ZM137.782 30.9847C138.007 31.3379 138.301 31.6566 138.56 31.9879C138.36 29.4753 136.773 28.0377 134.332 27.9033C132.379 27.8033 130.382 27.694 129.304 25.5251C129.191 25.7282 129.063 25.9564 129.126 26.1064C129.382 26.7189 129.679 27.3283 129.991 27.9158C130.688 29.2409 131.619 29.7222 133.116 29.5878C133.735 29.5347 134.36 29.4972 134.982 29.5097C136.154 29.5284 137.123 29.9566 137.782 30.9847ZM101.468 138.005C113.331 138.005 125.188 138.005 137.039 138.005C134.998 136.693 133.057 135.424 130.416 135.658C127.482 135.924 124.507 135.808 121.553 135.808C117.272 135.808 112.997 135.802 108.715 135.724C106.015 135.677 103.646 136.53 101.468 138.005ZM130.832 20.2374C132.016 19.0529 132.029 17.6154 131.716 16.1372C131.482 14.9934 130.629 14.7121 129.682 15.4153C129.129 15.8309 129.051 15.7934 128.938 15.3059C126.588 14.759 124.716 13.5152 122.9 12.2276C121 10.8869 119.7 9.02434 118.956 6.7086C116.844 9.50874 114.162 11.3994 111.222 13.0152C109.153 14.159 107.084 15.2653 104.746 15.7215C104.199 15.8309 103.621 15.759 103.062 15.7653C103.278 15.4871 103.453 15.1371 103.737 14.959C104.018 14.7652 104.409 14.7246 104.759 14.6402C108.422 13.7246 111.565 11.7776 114.547 9.58062C115.913 8.57744 117.031 7.26176 118.288 6.10545C118.45 5.95545 118.906 5.83669 118.985 5.92107C119.6 6.59298 120.266 7.26801 120.706 8.05554C121.716 9.84625 123.103 11.2244 124.86 12.2526C126.263 13.0745 127.669 13.8808 128.944 14.6152C129.629 14.3558 130.235 14.1277 130.904 13.8746C130.904 13.6277 130.904 13.2995 130.904 13.0152C128.654 11.5963 126.363 10.2681 124.494 8.36806C122.685 6.52735 121.182 4.496 120.656 1.88338C120.622 1.70525 120.394 1.45836 120.219 1.43336C119.466 1.3146 118.703 1.25835 118.175 1.21147C117.603 2.09589 117.163 2.85218 116.647 3.54908C116.25 4.08661 115.725 4.53038 115.306 5.0554C113.947 6.74923 112.412 8.27743 110.572 9.43061C108.54 10.7057 106.465 11.9338 104.337 13.0277C103.453 13.4777 102.377 13.6339 101.371 13.7433C100.712 13.8089 100.621 14.0433 100.687 14.5746C102.093 14.434 102.703 14.734 103.062 15.7653C102.997 16.0132 102.935 16.2611 102.874 16.5091C102.654 16.3778 102.432 16.2434 102.209 16.1059C101.918 15.9247 101.612 15.5653 101.362 15.6028C101.102 15.6371 100.777 16.034 100.706 16.3278C100.102 18.6685 100.699 20.3092 103.146 21.478C103.412 21.6031 103.746 21.8749 103.79 22.1187C104.181 24.3563 105.015 26.397 107.09 27.4658C108.487 28.194 110.115 28.4815 111.656 28.9221C112.262 29.0909 112.9 29.1378 113.622 29.2565C113.472 31.6504 113.328 33.9599 113.172 36.3912C113.875 37.0944 115.178 37.3757 115.803 38.5663C115.319 38.5976 114.819 38.6132 114.441 38.4163C113.784 38.0726 113.166 37.6413 112.612 37.1475C112.269 36.8413 112.015 36.7913 111.606 36.96C108.84 38.1163 106.056 39.2414 103.284 40.3946C102.412 40.7602 101.577 41.2071 100.862 41.5477C101.506 42.254 102.074 42.8978 102.665 43.5166C102.762 43.6103 102.965 43.6603 103.109 43.6478C103.724 43.5947 104.343 43.5103 104.943 43.4447C105.196 41.6102 105.131 41.2134 107.309 40.6289C110.122 39.8789 112.947 39.1976 115.841 38.8257C116.551 38.7382 117.267 38.6695 117.988 38.6195C118.3 38.6038 118.66 38.3976 118.891 38.1695C119.953 37.1163 120.975 36.0287 122.066 34.8974C121.241 34.8818 121.125 34.3224 121.035 33.7317C120.819 32.3317 120.616 30.9285 120.381 29.5284C120.194 28.4159 120.175 28.4159 121.194 28.2784C121.216 28.2721 121.235 28.2534 121.26 28.2534C123.603 28.0565 125.679 27.2002 127.469 25.6689C128.491 24.8032 129.213 23.7688 129.491 22.4375C129.557 22.1093 129.666 21.7593 129.844 21.478C130.129 21.0312 130.46 20.6093 130.832 20.2374ZM131.029 11.7401C130.61 10.5807 130.248 9.55249 129.857 8.53681C129.823 8.43369 129.648 8.37431 129.526 8.31181C127.369 7.22426 125.654 5.70231 124.722 3.41158C124.663 3.26157 124.613 3.04593 124.494 2.99281C123.578 2.53966 122.647 2.12402 121.553 1.62087C122.335 5.16791 127.297 10.4494 131.029 11.7401ZM128.86 6.73673C128.904 6.68881 128.95 6.64089 128.997 6.59298C127.945 5.59085 126.895 4.58871 125.847 3.58658C126.141 4.63351 128.091 6.5211 128.86 6.73673ZM128.488 43.4322C128.488 42.4572 128.504 41.5259 128.482 40.5883C128.451 39.4914 128.404 39.4383 127.313 39.4695C124.357 39.5508 121.402 39.6466 118.45 39.757C114.584 39.907 110.862 40.8633 107.14 41.8446C106.437 42.0259 106.14 42.4384 106.134 43.1978C106.118 45.2823 106.021 47.3761 105.971 49.47C105.775 57.811 106.165 66.0895 108.462 74.1774C108.859 75.5806 109.275 76.9744 109.684 78.3682C110.89 76.2587 111.931 74.1524 112.965 72.0492C113.259 71.4491 113.519 70.821 113.837 70.2335C114.272 69.4334 114.697 69.3428 115.262 70.0459C116.353 71.3866 117.297 72.8429 118.397 74.1649C119.688 75.7118 121.085 77.1619 122.438 78.6526C122.507 78.6151 122.576 78.5786 122.647 78.5432C122.66 78.362 122.707 78.1776 122.691 77.9963C122.607 76.7931 122.503 75.5962 122.419 74.3993C122.1 69.6303 121.678 64.8707 121.494 60.0955C121.338 56.0422 121.872 52.0295 123.063 48.1387C123.735 45.9386 124.95 44.1479 127.391 43.5697C127.704 43.4978 128.035 43.4853 128.488 43.4322ZM109.593 134.818C115.834 134.818 122.028 134.818 128.379 134.818C122.263 132.88 113.062 132.893 109.593 134.818ZM116.809 1.15835C115.797 1.24897 114.831 1.35523 113.856 1.41461C113.225 1.45211 112.828 1.724 112.54 2.30527C112.287 2.81155 111.884 3.24907 111.506 3.67721C109.822 5.55855 107.715 6.91799 105.618 8.25868C104.603 8.91496 103.446 9.35248 102.353 9.89C102.274 9.93063 102.159 9.97438 102.131 10.04C101.74 10.9526 101.365 11.8745 100.968 12.8308C104.596 13.2152 115.803 4.93352 116.809 1.15835ZM102.703 9.02746C106.075 7.14612 109.225 5.09603 111.684 1.90838C108.372 2.41465 103.153 6.58047 102.703 9.02746ZM106.1 30.2378C106.515 29.5472 106.003 28.2002 105.418 27.9533C104.937 28.4284 104.553 28.9221 104.065 29.2534C103.349 29.7378 102.562 30.1066 101.806 30.5222C100.693 31.1347 100.434 31.6629 100.609 32.9317C100.812 34.4099 100.556 35.7568 99.4649 36.8663C99.3336 36.9975 99.218 37.1538 99.093 37.2975C99.1221 37.335 99.1482 37.3757 99.1711 37.4194C99.3399 37.3413 99.5211 37.285 99.6649 37.1882C100.724 36.4725 101.859 36.185 103.146 36.2694C103.634 36.3006 104.143 36.01 104.637 35.8381C105.256 35.6131 105.406 35.1756 105.184 34.5724C104.915 33.8536 104.637 33.1317 104.421 32.3973C104.059 31.2254 104.259 30.9191 105.431 30.5878C105.671 30.5222 105.984 30.4253 106.1 30.2378ZM103.759 28.219C104.324 27.8752 104.524 27.1096 104.246 26.5095C104.084 26.1564 103.862 25.8251 103.596 25.3626C103.187 26.4845 102.612 27.3221 101.662 27.7658C100.868 28.1346 100.018 28.4221 99.1711 28.6253C98.3586 28.819 97.8429 29.1065 97.5585 30.0034C97.2648 30.9347 96.6647 31.7848 96.1178 32.6067C95.9053 32.9317 95.8272 33.1661 95.8459 33.563C95.8834 34.2849 95.8709 35.0537 95.6584 35.7412C95.3303 36.8538 95.4803 37.3507 96.6272 37.8507C96.8085 37.6944 96.9398 37.5038 97.121 37.4194C99.1242 36.485 99.9524 34.9412 99.6211 32.7567C99.4055 31.3191 99.9649 30.291 101.252 29.6253C102.099 29.1784 102.943 28.7159 103.759 28.219ZM102.684 25.3845C103.34 24.3032 102.762 23.4125 102.503 22.4031C102.143 22.925 101.852 23.3813 101.527 23.8032C100.484 25.1376 99.0523 25.8251 97.4398 26.1845C96.2553 26.4502 95.2209 27.0033 94.4271 27.9096C94.1802 28.1877 93.9865 28.7346 94.0896 29.0534C94.4084 30.0503 94.8709 30.9972 95.3115 32.0285C96.1178 31.3441 96.521 30.5441 96.6991 29.6378C96.921 28.5252 97.621 27.9408 98.7023 27.7596C98.9836 27.7127 99.2742 27.6752 99.5492 27.6096C100.89 27.2846 101.937 26.6127 102.684 25.3845ZM101.974 46.223C101.974 46.0042 101.987 45.7886 101.968 45.5729C101.824 43.601 100.784 42.3728 98.643 42.7822C98.2148 42.8603 97.6679 43.1134 97.471 43.4541C96.4366 45.2542 96.1397 47.1792 96.771 49.2043C97.1741 50.4857 97.9148 50.8638 99.1836 50.4013C101.193 49.6731 101.949 48.5356 101.974 46.223ZM91.2707 143.115C91.2707 142.737 91.2707 142.549 91.2707 142.365C91.227 138.877 91.1738 135.396 91.1551 131.905C91.127 126.302 91.1926 120.698 91.102 115.092C90.9926 108.604 90.6926 102.122 90.5894 95.6346C90.4894 89.2125 90.5488 82.7903 90.4926 76.3681C90.4582 71.7554 90.2582 67.1364 90.2894 62.5175C90.3207 57.6235 90.5363 52.7295 90.6738 47.7074C90.0425 47.4855 89.2238 47.2011 88.4143 46.9136C85.2517 45.8073 82.0328 44.9541 78.6764 44.6635C73.4511 44.2197 68.2072 44.0854 62.9694 44.2322C57.0723 44.3947 51.3407 45.276 46.2186 48.5262C45.9061 48.7231 45.778 48.8793 45.8217 49.245C45.978 50.6044 46.1624 51.9639 46.2124 53.3233C46.2342 54.1483 46.228 55.0859 45.8749 55.789C44.8779 57.7735 43.5341 59.5486 41.659 60.8111C40.709 61.4424 39.6496 61.9112 38.5745 62.4893C39.0027 62.8487 38.6276 63.0362 38.3276 63.1925C37.9307 63.3894 37.8776 63.655 37.9682 64.0707C38.0557 64.4613 38.0089 64.8863 38.0464 65.2895C38.1245 66.0301 38.1964 66.7708 38.3151 67.5021C38.3651 67.7927 38.587 68.0552 38.6214 68.3459C38.7683 69.6303 38.8683 70.9179 39.0027 72.3492C41.7434 72.0304 44.281 71.7304 46.8436 71.4304C46.8436 71.0335 46.8499 70.821 46.8436 70.6116C46.7468 67.4614 46.5905 64.3144 46.578 61.1705C46.5718 60.358 46.9874 59.5423 47.228 58.736C47.2593 58.6454 47.3968 58.536 47.4937 58.5235C48.7906 58.3204 50.0844 58.0485 51.3876 57.9673C53.5971 57.8204 55.8097 57.7985 58.0223 57.736C61.8881 57.6235 65.7602 57.4297 69.6291 57.436C73.7824 57.4485 77.9389 57.6485 82.0922 57.7797C82.2859 57.786 82.6172 57.9673 82.636 58.0923C82.7297 58.8861 82.8078 59.6923 82.8016 60.4986C82.7922 61.4299 82.6578 62.3675 82.6391 63.2988C82.5609 67.2677 82.6047 71.2366 82.4297 75.1993C82.1234 82.1746 82.2672 89.1468 82.5922 96.1159C82.6891 98.166 82.4891 100.241 82.3828 102.297C82.3703 102.538 82.0765 102.76 81.9078 102.988C81.7515 102.735 81.5578 102.494 81.4453 102.226C81.3765 102.063 81.4453 101.844 81.4484 101.654C81.4859 100.21 81.589 98.7723 81.5515 97.3285C81.4203 92.2845 81.1734 87.2405 81.0953 82.1934C81.0515 79.0714 81.2453 75.9462 81.3234 72.8179C81.4203 69.2334 81.5047 65.6582 81.6109 62.0737C81.6422 61.0018 81.739 59.933 81.8047 58.8736C76.1169 58.7892 70.501 58.586 64.882 58.6517C59.2536 58.7235 53.619 59.0736 47.9843 59.3017C47.2999 63.3175 47.9124 67.1614 47.8468 71.0272C51.7314 70.2585 55.3222 68.9178 58.7786 67.2083C58.9411 67.1302 59.0848 66.9864 59.1942 66.8427C60.1505 65.5739 61.0756 64.2863 62.0569 63.0456C62.3444 62.68 62.7475 62.3612 63.1632 62.1456C63.8976 61.7674 64.5163 62.1456 64.5945 62.9675C64.6257 63.3363 64.6007 63.7019 64.6007 64.0082C65.8383 63.5769 66.9883 63.0956 68.1853 62.7769C69.7853 62.3487 71.8479 63.205 72.5636 64.7238C72.7011 65.0145 72.7917 65.3332 72.8136 65.6645C72.8761 66.4145 72.3636 67.0333 72.6886 67.8927C73.0199 68.7584 73.0324 69.1209 74.0043 69.1928C74.9793 69.2647 75.7731 69.6209 76.2356 70.5335C76.294 70.6439 76.3607 70.7439 76.4357 70.8335C76.8013 71.2804 77.1513 71.2491 77.3201 70.7022C77.4701 70.2085 77.6138 69.6678 77.5826 69.1553C77.4826 67.1771 77.3076 65.1988 77.1576 63.1863C75.7544 63.3769 74.2168 63.3831 73.223 64.8738C73.073 63.8519 73.5293 62.98 74.4449 62.6987C75.3106 62.4331 76.2169 62.2831 77.1138 62.1581C78.192 62.0018 78.4545 62.3425 78.4201 63.455C78.3889 64.4301 78.3545 65.4395 78.5639 66.3833C79.2202 69.3928 78.5983 72.0492 76.4763 74.2493C75.67 75.0931 74.5574 75.64 73.5293 76.3556C73.7762 77.4057 72.4011 78.6651 71.1604 78.3213C71.0573 78.6151 70.9979 78.9276 70.8541 79.1995C69.7478 81.2183 68.7134 83.2872 67.4884 85.2373C66.1446 87.3655 64.6195 89.3812 63.1944 91.4594C61.6162 93.7564 59.7005 95.7347 57.4879 97.4066C56.9879 97.7879 56.266 97.966 55.6284 98.0285C54.6128 98.1285 53.9877 97.5222 53.919 96.5066C53.8784 95.8878 53.8909 95.2503 54.0002 94.6409C54.4565 92.097 55.5878 89.825 56.8597 87.5999C58.6286 84.5091 60.4255 81.4434 62.8256 78.7839C63.7226 77.7869 64.6976 76.8525 65.6539 75.8806C65.2664 74.8462 65.382 74.4055 66.2414 73.6742C66.3446 73.5836 66.4696 73.468 66.4883 73.3492C66.5914 72.6492 66.6633 71.9523 66.7352 71.3398C65.1101 71.3398 63.4632 71.3335 61.8162 71.346C61.7131 71.346 61.5756 71.4054 61.5162 71.4835C60.4755 72.8242 58.9848 73.5399 57.5285 74.2493C55.4191 75.2899 53.2846 76.2962 51.0876 77.1369C49.7063 77.6651 48.2968 78.1338 46.878 78.5807C45.9113 78.8787 44.9436 79.1735 43.9748 79.4651C42.5059 79.9027 41.0028 80.2089 39.5496 80.5714C39.7839 81.6715 40.1152 82.6684 40.1871 83.6841C40.3777 86.3436 40.534 89.0125 40.5527 91.6782C40.6246 100.191 40.6309 108.707 40.6621 117.217C40.6621 118.123 40.6621 119.028 40.6621 119.933C40.7996 120.067 40.8527 120.23 40.8059 120.355C40.7027 120.655 40.4433 120.933 40.4433 121.22C40.4433 127.402 40.4746 133.583 40.4996 139.765C40.4996 139.984 40.4996 140.205 40.4996 140.637C41.2871 140.049 41.8934 139.621 42.4716 139.159C44.8279 137.258 47.4156 135.73 50.2751 134.768C52.2064 134.121 54.2346 133.777 56.2222 133.308C59.5067 132.527 62.8069 131.936 66.2071 132.086C69.6447 132.243 72.9605 132.996 76.2169 134.065C77.2169 134.39 78.2764 134.565 79.2483 134.943C80.1077 135.28 80.9077 135.793 81.7078 136.262C85.0454 138.221 88.3425 140.246 91.2707 143.115ZM90.3926 144.193C90.4197 144.104 90.4478 144.015 90.4769 143.928C90.0863 143.578 89.705 143.224 89.3019 142.893C89.105 142.731 88.8831 142.537 88.6487 142.509C88.005 142.424 87.3549 142.399 86.7111 142.381C79.3566 142.139 72.0021 141.9 64.6476 141.665C59.988 141.515 55.3222 141.421 50.6626 141.202C48.1 141.084 45.5498 140.759 42.9872 140.549C42.5434 140.512 42.2247 140.709 42.2653 141.252C42.2841 141.421 42.2122 141.599 42.1778 141.806C58.1911 142.777 74.3231 142.731 90.3926 144.193ZM87.0112 141.324C87.0362 141.237 87.0601 141.15 87.083 141.065C85.8663 140.279 84.6485 139.494 83.4297 138.709C83.4256 138.779 83.4214 138.847 83.4172 138.912C82.9047 138.996 82.3953 139.159 81.8828 139.152C75.6825 139.087 69.4822 138.996 63.2819 138.918C58.0223 138.852 52.7596 138.805 47.4968 138.715C46.9687 138.709 46.4405 138.487 45.6936 138.318C45.1842 138.652 44.4748 139.121 43.7591 139.587C43.7862 139.701 43.8143 139.815 43.8435 139.927C58.2317 140.394 72.6209 140.86 87.0112 141.324ZM82.2672 138.005C82.2901 137.972 82.3161 137.94 82.3453 137.908C81.0765 137.324 79.8077 136.724 78.5264 136.158C78.1857 136.008 77.7951 135.887 77.4201 135.88C72.4011 135.846 67.379 135.84 62.3506 135.802C59.2786 135.787 56.1878 135.887 53.1283 135.658C50.5532 135.462 48.6656 136.737 46.6874 138.005C58.5442 138.005 70.4041 138.005 82.2672 138.005ZM76.47 72.3492C76.0388 71.846 75.72 71.3929 75.3231 71.0335C74.9731 70.7147 74.5418 70.2928 74.1262 70.2678C72.948 70.2022 72.1667 69.7209 71.8698 68.6146C70.8979 69.2522 70.0604 69.9928 69.0853 70.396C67.9134 70.8772 67.6384 71.7492 67.5165 72.8117C67.4759 73.168 67.6009 73.3492 67.9853 73.3649C69.2134 73.4149 70.2354 73.9305 71.1323 74.7743C71.4011 75.0306 71.7698 75.1931 72.1042 75.3681C72.2323 75.4275 72.4292 75.4275 72.5636 75.3806C73.0324 75.1993 73.5012 75.0212 73.9449 74.7868C75.0637 74.1961 75.9763 73.3899 76.47 72.3492ZM55.3034 134.83C61.6975 134.83 67.8884 134.83 74.1481 134.83C70.7166 132.899 61.5381 132.88 55.3034 134.83ZM71.8511 66.3301C72.1761 65.5114 71.7011 64.6644 70.976 64.1707C69.7791 63.3488 68.5165 63.3894 67.2634 63.9144C66.0383 64.4301 64.8601 65.0613 63.5851 65.6739C63.1163 64.8207 64.0538 63.93 63.3663 62.8019C63.1569 63.1206 62.96 63.4488 62.7288 63.7582C62.2006 64.4738 61.685 65.1926 61.1193 65.8801C60.5599 66.5645 60.0474 67.3521 59.338 67.8334C58.2754 68.549 57.091 69.1397 55.8816 69.5959C49.0438 72.2179 41.9966 73.643 34.6306 73.1086C32.5961 72.9586 30.5398 72.9742 28.8334 71.8335C27.9678 74.568 27.1115 77.2807 26.2239 80.0964C26.999 80.1433 27.7803 80.2277 28.5553 80.2339C30.9148 80.2464 33.2993 80.4808 35.6087 80.1558C38.762 79.7214 41.8997 79.0182 44.9592 78.1276C48.0625 77.2275 51.1063 76.0712 54.0877 74.8087C56.5129 73.7867 58.9286 72.6804 61.0037 70.9835C61.1412 70.871 61.3475 70.7991 61.5287 70.7866C62.6756 70.671 63.8194 70.5647 64.9664 70.4991C67.0665 70.371 69.0197 69.8303 70.5729 68.3615C71.1354 67.8271 71.5573 67.0646 71.8511 66.3301ZM71.1198 77.9244C71.6854 77.54 72.1886 77.2025 72.6824 76.8713C71.5636 76.1556 70.601 75.4462 69.5541 74.9056C68.9416 74.593 68.1978 74.4899 67.4977 74.418C67.1977 74.3899 66.8665 74.6712 66.5539 74.8149C66.5664 74.8983 66.5789 74.9847 66.5915 75.0743C67.4759 75.4118 68.3478 75.7587 69.2353 76.0837C70.0979 76.4087 70.8417 76.8431 71.1198 77.9244ZM69.7791 78.7495C70.1197 78.0807 69.976 77.6526 69.2853 77.3525C68.4895 77.0171 67.679 76.7181 66.854 76.4556C66.6821 76.3962 66.3633 76.4744 66.2352 76.6119C64.782 78.237 63.1569 79.7589 61.9475 81.5559C60.0536 84.3779 58.3879 87.3655 56.7347 90.3406C55.7972 92.0251 55.2847 93.8908 55.0159 95.969C55.1003 96.1691 55.1909 96.6972 55.3878 96.741C55.7659 96.8316 56.291 96.7597 56.6035 96.5347C57.4254 95.9597 58.2754 95.3628 58.9223 94.6127C60.6724 92.5783 62.3756 90.4969 64.0038 88.3624C65.9164 85.8623 67.3415 83.0466 68.8697 80.2996C69.1634 79.7776 69.5072 79.2839 69.7791 78.7495ZM41.5622 143.231C41.5642 143.16 41.5663 143.089 41.5684 143.018C41.3465 142.959 41.1246 142.874 40.8965 142.834C39.1683 142.527 37.437 142.274 35.7244 141.918C34.3899 141.643 32.993 141.424 31.7961 140.837C31.0992 140.493 30.5648 140.368 29.8366 140.471C28.5428 140.649 27.2396 140.734 25.9177 140.862C25.952 141.331 26.0114 141.827 26.0364 142.334C26.0958 143.881 26.3083 144.103 27.8834 144.228C28.1438 144.253 28.4084 144.257 28.6772 144.24C31.2367 144.071 33.7993 143.915 36.3619 143.721C38.0995 143.59 39.8308 143.399 41.5622 143.231ZM39.2964 140.18C39.3308 128.714 39.4058 117.251 39.3933 105.785C39.3871 99.6255 39.2777 93.4752 39.1652 87.3218C39.1214 85.1717 38.9245 83.0247 38.7964 80.7996C38.0151 80.9371 37.3901 81.0527 36.6932 81.1777C36.8776 83.0466 37.0526 84.8623 37.2401 86.6686C37.4557 88.7468 37.7807 90.8157 37.8901 92.9033C37.9901 94.9065 37.8901 96.9253 37.8589 98.941C37.8401 100.085 37.8151 101.232 37.7276 102.382C37.3651 107.145 37.0963 111.923 36.565 116.67C36.0744 121.13 35.3212 125.558 34.6462 129.996C34.1306 133.405 33.5649 136.808 33.0055 140.302C35.44 140.734 37.6838 141.131 39.934 141.527C39.1995 141.293 39.2964 140.706 39.2964 140.18ZM37.8651 63.0112C37.8443 62.9612 37.8245 62.9154 37.8057 62.8737C36.7338 63.2081 35.6713 63.5831 34.5806 63.8707C33.4743 64.1582 32.3398 64.3582 31.0929 64.6176C31.6398 65.4051 32.2773 66.0489 32.5836 66.8302C32.9805 67.8458 33.9618 67.5208 34.6181 67.8583C35.2806 68.2021 36.2588 67.9302 36.9932 67.9302C36.9932 66.7333 37.1026 65.6676 36.9557 64.6332C36.8494 63.8832 37.0057 63.4488 37.6588 63.155C37.737 63.1206 37.7995 63.0581 37.8651 63.0112ZM35.7181 72.1742C36.3744 72.1742 37.0963 72.1742 37.8589 72.1742C37.6588 71.0595 37.4703 70.0178 37.2932 69.049C36.2588 69.049 35.3337 69.049 34.3712 69.049C34.8337 70.1241 35.2744 71.1397 35.7181 72.1742ZM36.7869 97.3722C36.7869 96.0253 36.7869 94.769 36.7869 93.3533C29.4772 94.2752 22.3269 93.0314 15.0797 92.1157C14.8765 92.772 14.5984 93.5658 14.4015 94.3783C14.3515 94.5877 14.4953 94.9846 14.6703 95.0752C15.3672 95.4346 16.0891 95.7847 16.8422 96.0065C19.8549 96.891 22.9519 97.2941 26.0771 97.4566C28.3522 97.5754 30.6366 97.6066 32.9149 97.6066C34.1837 97.6066 35.4462 97.4566 36.7869 97.3722ZM36.6494 100.919C36.6807 100.119 36.6682 99.3192 36.6682 98.5317C29.2491 99.1098 21.9487 98.8879 15.0078 96.5597C10.5763 108.579 6.11362 120.698 1.60403 132.93C4.1104 134.758 7.26367 135.002 10.2701 136.14C12.4108 131.714 14.5015 127.389 16.6016 123.048C14.9109 122.533 14.3828 121.826 14.4484 120.151C14.5203 118.401 15.0672 116.814 16.1516 115.411C16.8766 114.467 17.8173 114.036 18.983 114.232C19.4642 114.317 19.9205 114.545 20.433 114.726C20.5174 114.545 20.6049 114.329 20.7081 114.114C21.481 112.459 22.2571 110.807 23.0363 109.157C23.6634 107.836 24.2947 106.517 24.9301 105.201C25.3458 104.335 25.6927 103.432 26.1864 102.616C26.4021 102.254 26.8708 101.913 27.2802 101.829C28.1959 101.647 29.1397 101.616 30.071 101.557C30.9304 101.497 31.868 101.257 32.6399 101.504C33.943 101.922 35.0993 101.563 36.2963 101.282C36.44 101.244 36.6432 101.051 36.6494 100.919ZM36.7463 92.0439C36.6942 91.4709 36.6401 90.9011 36.5838 90.3344C36.5182 89.7469 36.4525 89.1562 36.3869 88.6093C29.6929 88.6593 23.0769 88.5812 16.5766 86.7749C16.186 88.1905 15.8266 89.5 15.3859 91.0688C22.5956 91.6345 29.5772 93.1095 36.7463 92.0439ZM16.8891 85.8873C23.3238 87.3343 29.7241 87.553 36.2307 87.4624C36.14 86.4092 36.0619 85.5123 35.9775 84.5498C34.6431 84.5498 33.3618 84.6591 32.1055 84.5279C29.0959 84.2154 26.1083 83.7747 23.1082 83.4091C21.455 83.2091 19.7643 83.1966 18.2361 82.2434C17.7735 83.4935 17.3298 84.6966 16.8891 85.8873ZM35.9056 83.3497C35.9056 82.6997 35.9056 82.0309 35.9056 81.3152C35.6338 81.3152 35.3994 81.3152 35.165 81.3152C32.4336 81.2746 29.6991 81.2371 26.9677 81.184C26.6365 81.1777 26.1989 81.1652 26.0052 80.9683C25.2426 80.1902 24.2082 80.4621 23.3488 80.1433C21.9644 79.6433 20.6174 79.0557 19.2549 78.5089C19.0423 79.4026 18.7955 80.4246 18.5392 81.484C21.1581 82.5059 34.1556 83.9028 35.9056 83.3497ZM35.515 116.411C35.8869 111.773 36.2588 107.107 36.6307 102.476C35.2806 102.551 34.0399 102.632 32.8024 102.669C32.1086 102.688 31.4179 102.572 30.7335 102.591C30.0835 102.604 29.4085 102.872 28.8022 102.747C27.3646 102.46 26.949 103.385 26.5833 104.401C26.4396 104.798 26.3927 105.244 26.3677 105.669C26.1614 109.345 25.9989 113.02 25.777 116.686C25.3208 124.108 25.2426 131.539 25.3989 138.965C25.4114 139.424 25.5427 139.652 26.0114 139.627C28.0396 139.515 30.0585 139.405 31.9492 139.302C32.668 134.915 33.3618 130.674 34.0524 126.433C32.0617 125.695 30.9742 124.064 31.0867 121.955C31.2492 118.961 32.6992 117.114 35.515 116.411ZM34.3774 125.261C34.7212 122.664 35.0431 120.151 35.3869 117.57C33.468 118.183 32.4055 119.848 32.2773 122.202C32.218 123.445 33.018 124.683 34.3774 125.261ZM34.9243 72.3867C34.7556 71.7898 34.6837 71.4429 34.5525 71.1179C34.4743 70.9304 34.3056 70.6897 34.1368 70.6554C32.418 70.2803 30.6835 69.9491 28.9053 69.5959C28.6991 70.9491 28.6772 71.1179 29.8491 71.4366C31.4554 71.8679 33.1211 72.0617 34.9243 72.3867ZM28.3397 69.8053C27.3521 69.3865 26.6208 69.0303 25.8552 68.7584C24.703 68.3563 23.5384 67.9917 22.3613 67.6646C21.7862 67.5021 21.2425 67.6365 20.7799 68.0927C19.3736 69.4647 18.683 71.1898 18.4361 73.0773C18.0861 75.765 18.7173 76.6806 20.9862 78.0151C22.2894 78.7839 23.7926 79.2245 25.2958 79.8495C26.3364 76.4275 27.3365 73.1086 28.3397 69.8053ZM19.7299 116.301C19.9205 115.898 19.7893 115.67 19.4517 115.473C18.7173 115.039 17.7673 115.207 17.1923 115.923C16.1578 117.204 15.6391 118.676 15.6578 120.32C15.6641 121.42 15.911 121.67 17.0298 121.851C17.9423 119.964 18.8205 118.129 19.7299 116.301ZM13.3671 143.89C13.4088 143.815 13.4504 143.739 13.4921 143.662C12.267 142.449 11.0326 141.246 9.82317 140.018C8.80125 138.984 7.67619 138.021 7.10117 136.621C7.04491 136.49 6.87928 136.368 6.7324 136.321C5.1292 135.73 3.51037 135.158 1.99468 134.618C1.74779 135.54 1.49465 136.602 1.17589 137.649C1.03838 138.118 1.08838 138.443 1.5259 138.671C3.0041 139.459 4.45417 140.296 5.96361 141.012C7.28555 141.637 8.66999 142.131 10.0357 142.659C11.1357 143.087 12.2545 143.484 13.3671 143.89Z" fill="#0C0115"/>
<path d="M140.873 27.0562C142.076 27.5562 142.732 28.6031 142.817 29.8782C142.142 28.0781 140.135 27.9937 139.004 26.803C138.482 26.2561 137.867 25.7342 137.548 25.078C136.954 23.8623 136.16 23.0404 134.813 22.756C134.182 22.6247 133.585 22.331 132.954 22.1903C132.329 22.0591 131.685 22.0341 131.066 21.9622C131.432 21.0059 132.082 20.6996 133.11 21.0434C133.351 21.1215 133.629 21.109 133.885 21.134C134.607 21.1871 135.329 21.1809 136.038 21.2903C137.598 21.5372 138.438 22.3372 138.588 23.881C138.738 25.4342 139.413 26.4499 140.873 27.0562Z" fill="#0C0115"/>
<path d="M142.191 30.7913C142.25 30.935 142.238 31.2257 142.135 31.3132C141.522 31.8788 140.891 32.4507 139.863 32.4164C139.772 31.9945 139.694 31.6226 139.61 31.2476C139.01 28.5974 137.078 27.0224 134.331 26.9005C133.591 26.8723 132.834 26.8098 132.131 26.6067C131.578 26.4442 131.025 26.1192 130.603 25.7285C129.875 25.0473 129.894 24.3691 130.622 23.1378C131 22.5003 131.684 22.6721 132.244 22.8253C133.284 23.1003 134.35 23.3722 135.316 23.8222C135.828 24.0628 136.322 24.6097 136.544 25.1379C137.306 26.9317 138.744 27.9599 140.391 28.7412C141.319 29.1787 141.829 29.9069 142.191 30.7913Z" fill="#0C0115"/>
<path d="M140.795 140.53C141.17 140.552 141.53 140.721 141.464 141.246C141.439 141.415 141.517 141.593 141.555 141.806C125.542 142.777 109.4 142.731 93.3026 144.071C94.0058 143.393 94.4339 142.509 95.6496 142.477C101.534 142.346 107.422 142.106 113.31 141.924C118.457 141.762 123.598 141.69 128.739 141.462C132.342 141.306 135.933 140.949 139.52 140.674C139.949 140.643 140.377 140.505 140.795 140.53Z" fill="#0C0115"/>
<path d="M140.924 69.0554C140.722 69.4242 140.518 69.7929 140.314 70.1617C140.099 69.7992 139.727 69.4523 139.695 69.0741C139.533 66.9428 139.442 64.8146 139.361 62.6863C139.349 62.4988 139.545 62.3082 139.649 62.1144C139.852 62.2769 140.189 62.4113 140.227 62.602C140.346 63.2332 140.358 63.8895 140.411 64.5333C140.528 66.0105 140.647 67.4918 140.767 68.9773C140.815 69.0023 140.867 69.0283 140.924 69.0554Z" fill="#0C0115"/>
<path d="M140.755 117.769C141.036 120.088 141.049 122.41 140.624 124.72C140.599 124.842 140.489 124.948 140.311 125.248C140.142 124.738 139.936 124.388 139.93 124.048C139.896 121.985 139.892 119.923 139.917 117.86C139.917 117.666 140.17 117.472 140.311 117.282C140.467 117.444 140.736 117.594 140.755 117.769Z" fill="#0C0115"/>
<path d="M140.958 128.852C140.945 130.23 140.867 131.611 140.754 132.99C140.723 133.308 140.442 133.608 140.273 133.915C140.179 133.898 140.086 133.878 139.992 133.855C139.936 133.477 139.829 133.093 139.839 132.712C139.883 131.421 139.948 130.133 140.064 128.846C140.086 128.539 140.333 128.252 140.483 127.955C140.645 128.255 140.958 128.552 140.958 128.852Z" fill="#0C0115"/>
<path d="M140.663 72.3304C140.729 73.5774 140.773 74.8149 140.754 76.0587C140.754 76.3056 140.476 76.5587 140.326 76.8056C140.151 76.5525 139.876 76.3181 139.838 76.0493C139.766 75.4587 139.816 74.8587 139.816 74.2555C139.791 74.2555 139.767 74.2555 139.745 74.2555C139.773 73.6117 139.766 72.9617 139.851 72.3273C139.882 72.121 140.135 71.9398 140.285 71.7491C140.416 71.9398 140.651 72.1335 140.663 72.3304Z" fill="#0C0115"/>
<path d="M137.515 68.9044C138.946 69.2169 139.521 72.2046 138.405 73.6765C137.599 72.0889 138.008 70.442 137.515 68.9044Z" fill="#0C0115"/>
<path d="M138.258 124.733C138.362 125.677 138.415 126.633 138.38 127.577C138.368 128.077 138.14 128.571 138.008 129.061C137.902 129.057 137.796 129.055 137.69 129.055C137.58 128.455 137.424 127.858 137.371 127.258C137.308 126.471 137.308 125.677 137.327 124.889C137.333 124.661 137.508 124.446 137.599 124.221C137.827 124.389 138.237 124.539 138.258 124.733Z" fill="#0C0115"/>
<path d="M138.561 31.9871C138.301 31.6558 138.008 31.3371 137.783 30.9839C137.123 29.9558 136.154 29.5276 134.982 29.5089C134.36 29.4964 133.735 29.5339 133.117 29.587C131.62 29.7214 130.688 29.2401 129.992 27.915C129.679 27.3275 129.382 26.7181 129.126 26.1056C129.063 25.9556 129.191 25.7274 129.304 25.5212C130.382 27.6932 132.379 27.8025 134.332 27.9025C136.773 28.0369 138.361 29.4745 138.561 31.9871Z" fill="#0C0115"/>
<path fill-rule="evenodd" clip-rule="evenodd" d="M137.533 97.6342C137.568 97.7133 137.604 97.7935 137.639 97.8748C137.223 97.9435 136.811 98.081 136.395 98.0748C133.011 97.9904 129.617 97.7498 126.232 97.8029C122.295 97.8685 118.36 98.2061 114.429 98.3936C112.094 98.5029 109.763 98.5498 107.435 98.6342C105.009 98.7248 102.581 98.8373 100.159 98.9155C99.5936 98.9342 99.0092 98.8998 98.4623 98.7717C98.2466 98.7248 97.9685 98.3467 97.956 98.1061C97.7935 94.0027 96.9966 89.9369 97.181 85.8117C97.206 85.343 97.181 84.9961 97.8622 85.2304C98.1748 85.3367 98.5935 85.0929 98.9685 85.0742C101.078 84.9648 103.187 84.8398 105.306 84.8023C115.476 84.6335 125.642 84.4898 135.811 84.3398C136.07 84.3398 136.352 84.3148 136.592 84.3867C136.767 84.4429 137.014 84.6398 137.02 84.7836C137.117 86.6899 137.202 88.5962 137.223 90.5026C137.248 92.5964 137.189 94.6903 137.202 96.781C137.202 97.0654 137.417 97.3529 137.533 97.6342ZM136.195 97.0216C136.195 93.1183 136.195 89.265 136.195 85.3336C123.526 85.2367 110.825 85.6211 98.0779 85.993C98.4435 89.9557 98.8185 93.8965 99.1904 97.8748C99.5498 97.8748 99.8561 97.8873 100.165 97.8748C103.166 97.7415 106.166 97.6081 109.166 97.4748C111.619 97.3654 114.072 97.3404 116.513 97.1498C122.204 96.6904 127.886 96.4403 133.586 96.8841C134.417 96.9497 135.251 96.9747 136.195 97.0216Z" fill="#0C0115"/>
<path d="M136.196 85.3342C136.196 89.2656 136.196 93.1189 136.196 97.0223C135.252 96.9754 134.417 96.9504 133.586 96.8847C127.886 96.441 122.204 96.691 116.513 97.1504C114.073 97.341 111.619 97.366 109.166 97.4754C106.166 97.6087 103.166 97.7421 100.166 97.8754C99.8564 97.8879 99.5501 97.8754 99.1907 97.8754C98.8188 93.8971 98.4438 89.9563 98.0782 85.9936C110.826 85.6217 123.526 85.2373 136.196 85.3342Z" fill="#0C0115"/>
<path d="M135.223 41.188C135.354 41.4942 135.548 41.7724 135.726 42.1036C135.42 42.1974 135.173 42.2755 134.716 42.4255H134.054C133.857 42.3599 133.641 42.2693 133.501 42.338C133.188 42.4818 132.901 42.738 132.694 43.0162C132.329 43.5162 132.029 44.0694 131.679 44.635C131.104 44.4725 130.488 44.3944 129.972 44.1287C129.713 43.9975 129.485 43.5381 129.472 43.2193C129.438 42.1911 129.522 41.1567 129.522 40.1223C129.522 38.9754 129.16 38.4753 128.035 38.416C126.429 38.3253 124.819 38.391 123.213 38.391C122.275 38.391 121.344 38.391 120.35 38.391C121.078 37.4284 122.31 36.7909 122.36 35.3721C125.222 36.0659 128.132 36.5815 130.91 37.4972C132.738 38.0972 134.391 39.2473 135.223 41.188Z" fill="#8242CB"/>
<path d="M133.322 106.625C133.472 107.21 132.822 107.204 132.45 107.354C131.452 107.768 130.451 108.177 129.447 108.579C128.216 109.072 127.05 108.869 126.075 108.022C125.237 107.288 124.434 107.154 123.447 107.641C121.84 108.435 120.231 108.579 118.54 107.757C117.512 107.257 116.412 107.582 115.378 107.944C114.812 108.147 114.246 108.357 113.693 108.591C111.69 109.435 109.627 109.573 107.552 108.988C106.268 108.635 105.124 108.76 103.952 109.391C102.683 110.066 101.311 110.413 99.8457 110.041C98.9613 109.813 98.2643 109.319 97.7925 108.563C97.6081 108.263 97.5831 107.86 97.4924 107.497C97.5883 107.468 97.6872 107.438 97.7893 107.407C97.9456 107.547 98.1175 107.666 98.2518 107.829C99.3519 109.104 100.724 109.279 102.255 108.844C102.483 108.785 102.724 108.719 102.93 108.597C104.662 107.563 106.458 107.426 108.402 107.991C109.965 108.447 111.534 108.172 113.068 107.629C114.134 107.257 115.215 106.885 116.321 106.729C117.168 106.607 118.143 106.625 118.912 106.944C120.29 107.504 121.572 107.569 122.869 106.919C124.294 106.204 125.562 106.332 126.825 107.329C127.475 107.835 128.294 107.894 129.088 107.541C129.706 107.269 130.319 106.994 130.941 106.735C131.313 106.572 131.691 106.397 132.082 106.307C132.538 106.2 133.153 106 133.322 106.625Z" fill="#0C0115"/>
<path d="M132.804 122.392C132.823 122.502 132.845 122.613 132.87 122.723C132.473 122.873 132.07 123.17 131.685 123.145C130.398 123.061 129.095 122.976 127.851 122.676C126.713 122.404 125.679 122.307 124.541 122.682C123.798 122.923 122.919 122.976 122.147 122.851C121.157 122.689 120.819 121.504 121.429 120.717C121.482 120.739 121.566 120.757 121.601 120.804C122.347 121.967 122.582 122.157 123.876 121.66C125.51 121.039 127.038 121.179 128.66 121.648C129.682 121.948 130.792 121.967 131.86 122.135C132.179 122.182 132.485 122.304 132.804 122.392Z" fill="#0C0115"/>
<path d="M130.748 114.575C130.75 114.673 130.752 114.773 130.754 114.875C129.432 115.572 128.029 116.066 126.538 116.21C124.682 116.391 122.804 116.56 120.935 116.56C119.628 116.566 118.3 116.379 117.019 116.104C115.709 115.813 114.441 115.879 113.166 116.144C111.156 116.56 109.297 116.326 107.615 115.085C106.868 114.538 106.14 114.641 105.325 115.032C104.168 115.591 102.971 116.104 101.74 116.469C99.9775 116.991 98.7618 115.779 97.8774 114.485C97.7836 114.347 97.9149 114.057 97.9399 113.835C98.1368 113.866 98.3368 113.891 98.5274 113.932C98.593 113.944 98.6368 114.022 98.6962 114.063C100.524 115.566 101.521 115.663 103.653 114.532C104.096 114.297 104.531 114.035 104.975 113.807C105.937 113.307 106.99 113.144 107.856 113.8C109.778 115.254 111.847 115.169 114.038 114.744C114.866 114.588 115.803 114.55 116.603 114.779C119.141 115.507 121.703 115.357 124.266 115.175C125.882 115.057 127.494 114.763 129.113 114.582C129.654 114.522 130.201 114.575 130.748 114.575Z" fill="#0C0115"/>
<path fill-rule="evenodd" clip-rule="evenodd" d="M128.482 40.588C128.504 41.5255 128.488 42.4568 128.488 43.4319C128.035 43.485 127.704 43.4975 127.392 43.5694C124.951 44.1475 123.735 45.9382 123.063 48.1383C121.873 52.0291 121.338 56.0418 121.494 60.0951C121.679 64.8704 122.101 69.63 122.419 74.3989C122.504 75.5959 122.607 76.7928 122.691 77.996C122.707 78.1772 122.66 78.3616 122.648 78.5429C122.577 78.5783 122.507 78.6148 122.438 78.6523C121.085 77.1616 119.688 75.7115 118.397 74.1645C117.297 72.8426 116.354 71.3863 115.263 70.0456C114.697 69.3424 114.272 69.4331 113.838 70.2331C113.519 70.8206 113.26 71.4488 112.966 72.0488C111.931 74.152 110.891 76.2584 109.684 78.3679C109.275 76.9741 108.859 75.5802 108.463 74.177C106.166 66.0892 105.775 57.8107 105.972 49.4696C106.022 47.3758 106.119 45.2819 106.134 43.1975C106.141 42.4381 106.437 42.0255 107.141 41.8443C110.863 40.863 114.585 39.9067 118.451 39.7567C121.403 39.6463 124.357 39.5504 127.313 39.4692C128.404 39.4379 128.451 39.491 128.482 40.588ZM113.128 53.923C113.153 53.4917 112.966 53.0292 112.785 52.6198C112.703 52.426 112.4 52.326 112.203 52.1854C112.106 52.4042 111.919 52.6198 111.925 52.8292C111.956 53.7667 112.035 54.7011 112.094 55.6387C112.081 55.6387 112.07 55.6387 112.06 55.6387C112.06 56.3356 112.041 57.0262 112.072 57.7263C112.075 57.9107 112.228 58.0919 112.306 58.2732C112.466 58.1294 112.75 57.995 112.769 57.8325C112.925 56.5356 113.069 55.2293 113.128 53.923ZM110.5 62.1452C110.483 62.139 110.466 62.1369 110.447 62.139C110.41 61.2733 110.381 60.4139 110.322 59.5482C110.291 59.0732 110.278 58.5794 110.147 58.1232C110.075 57.8763 109.769 57.7013 109.563 57.4919C109.425 57.7294 109.178 57.9669 109.172 58.2076C109.147 59.3389 109.163 60.467 109.219 61.5921C109.25 62.2359 109.372 62.8796 109.503 63.5109C109.538 63.6797 109.769 63.8047 109.913 63.9484C110.05 63.7984 110.26 63.6672 110.303 63.4922C110.41 63.0515 110.441 62.5953 110.5 62.1452ZM109.297 54.9168C109.45 54.473 109.738 54.0199 109.731 53.5761C109.706 51.9229 109.606 50.2697 109.509 48.6133C109.491 48.3383 109.419 48.0383 109.294 47.7914C109.216 47.6289 108.991 47.5383 108.828 47.4133C108.738 47.5789 108.559 47.7477 108.559 47.9164C108.618 49.9311 108.692 51.9458 108.781 53.9605C108.8 54.273 108.944 54.573 109.028 54.8793C109.118 54.8918 109.207 54.9043 109.297 54.9168Z" fill="#F78EA5"/>
<path d="M123.616 20.3022C124.675 20.296 125.607 21.3491 125.588 22.5398C125.575 23.4774 124.825 24.1805 123.85 24.1649C122.856 24.1461 122.178 23.2555 122.178 21.9617C122.172 21.0491 122.816 20.3085 123.616 20.3022Z" fill="#DFCAF7"/>
<path d="M123.201 15.7092C123.165 15.7404 123.13 15.7707 123.095 15.7998C123.01 16.1186 122.979 16.4624 122.835 16.7561C122.366 17.7187 121.345 17.803 120.716 16.9374C119.841 15.7279 120.273 14.556 121.066 13.6778C121.47 13.231 122.029 13.3841 122.31 13.8154C122.691 14.3998 122.913 15.0779 123.201 15.7092Z" fill="#0C0115"/>
<path d="M118.144 23.6053C118.306 24.8179 117.037 26.1898 115.797 26.1836C114.293 26.1961 113.622 25.2585 113.075 24.0147C113.015 23.8804 113.1 23.5491 113.187 23.521C113.35 23.4647 113.622 23.496 113.753 23.6116C113.987 23.8022 114.109 24.1397 114.35 24.321C114.753 24.6148 115.19 24.9148 115.659 25.0648C116.14 25.2085 116.531 24.9523 116.706 24.4335C116.828 24.0929 116.928 23.7366 117.14 23.4491C117.259 23.2803 117.559 23.1647 117.781 23.1584C117.909 23.1584 118.119 23.4366 118.144 23.6053Z" fill="#0C0115"/>
<path d="M116.785 20.7003C116.622 20.8815 116.478 21.194 116.297 21.219C115.835 21.2722 115.322 21.2909 114.885 21.1472C114.613 21.0628 114.247 20.6409 114.266 20.4003C114.319 19.7221 114.519 19.0471 114.728 18.3908C114.769 18.2595 115.119 18.1439 115.313 18.1626C115.406 18.1689 115.56 18.5127 115.535 18.6877C115.475 19.1752 115.335 19.6596 115.203 20.2627C115.594 20.2627 115.913 20.2096 116.194 20.2815C116.413 20.3409 116.591 20.5565 116.785 20.7003Z" fill="#0C0115"/>
<path d="M115.804 38.566L115.841 38.8254C112.947 39.1973 110.122 39.8786 107.31 40.6286C105.131 41.213 105.197 41.6099 104.944 43.4444C104.344 43.51 103.725 43.5944 103.109 43.6475C102.966 43.66 102.762 43.61 102.666 43.5163C102.075 42.8944 101.506 42.2537 100.862 41.5474C101.578 41.2068 102.412 40.7599 103.284 40.3943C106.056 39.2411 108.841 38.116 111.607 36.9597C112.016 36.791 112.269 36.841 112.613 37.1472C113.166 37.641 113.785 38.0723 114.441 38.416C114.819 38.6129 115.319 38.5973 115.804 38.566Z" fill="#8242CB"/>
<path d="M112.784 52.6195C112.966 53.0288 113.153 53.4914 113.128 53.9226C113.069 55.229 112.925 56.5353 112.769 57.8322C112.75 57.9947 112.465 58.1291 112.306 58.2728C112.228 58.0916 112.075 57.9103 112.069 57.7259C112.04 57.0259 112.059 56.3353 112.059 55.6383C112.07 55.6383 112.081 55.6383 112.094 55.6383C112.034 54.7008 111.956 53.7664 111.925 52.8288C111.919 52.6195 112.106 52.4038 112.203 52.1851C112.4 52.3257 112.703 52.4257 112.784 52.6195Z" fill="#0C0115"/>
<path d="M112.725 16.3834C112.625 16.8271 112.634 17.2178 112.45 17.4584C112.231 17.7522 111.847 18.1022 111.534 18.1022C111.181 18.1022 110.681 17.8209 110.506 17.5115C110.081 16.774 110.115 15.9302 110.478 15.1552C110.844 14.3614 111.806 14.3083 112.256 15.0646C112.503 15.4802 112.594 15.9927 112.725 16.3834Z" fill="#0C0115"/>
<path d="M110.8 22.4154C110.812 23.4373 109.934 24.1467 108.656 24.1467C107.631 24.1405 106.921 23.3779 106.906 22.2685C106.887 20.9591 107.524 20.0809 108.474 20.0997C109.646 20.1247 110.796 21.2591 110.8 22.4154Z" fill="#DFCAF7"/>
<path d="M110.447 62.1384C110.466 62.1363 110.484 62.1384 110.5 62.1446C110.441 62.5946 110.41 63.0509 110.303 63.4916C110.26 63.6666 110.05 63.7978 109.913 63.9478C109.769 63.8041 109.538 63.6791 109.503 63.5103C109.372 62.879 109.25 62.2352 109.219 61.5915C109.163 60.4664 109.147 59.3382 109.172 58.2069C109.178 57.9663 109.425 57.7288 109.563 57.4913C109.769 57.7007 110.075 57.8757 110.147 58.1226C110.278 58.5788 110.291 59.0726 110.322 59.5476C110.382 60.4133 110.41 61.2727 110.447 62.1384Z" fill="#0C0115"/>
<path d="M109.731 53.577C109.737 54.0207 109.449 54.4739 109.296 54.9177C109.207 54.9052 109.117 54.8927 109.027 54.8802C108.943 54.5739 108.799 54.2739 108.781 53.9614C108.691 51.9467 108.617 49.932 108.559 47.9173C108.559 47.7486 108.737 47.5798 108.827 47.4142C108.99 47.5392 109.215 47.6298 109.293 47.7923C109.418 48.0392 109.49 48.3392 109.509 48.6142C109.606 50.2706 109.706 51.9238 109.731 53.577Z" fill="#0C0115"/>
<path d="M90.4775 143.927C90.4484 144.014 90.4202 144.103 90.3932 144.192C74.3237 142.73 58.1917 142.777 42.1784 141.805C42.2128 141.599 42.2847 141.42 42.2659 141.252C42.2253 140.708 42.544 140.511 42.9878 140.549C45.5504 140.758 48.1006 141.083 50.6632 141.202C55.3228 141.42 59.9886 141.514 64.6482 141.664C72.0027 141.9 79.3572 142.138 86.7117 142.38C87.3555 142.399 88.0055 142.424 88.6493 142.508C88.8837 142.536 89.1056 142.73 89.3025 142.892C89.7056 143.224 90.0869 143.577 90.4775 143.927Z" fill="#0C0115"/>
<path d="M89.3925 117.426C89.3988 117.842 89.1956 118.257 89.0863 118.67C88.9654 118.666 88.8456 118.661 88.7269 118.657C88.6175 118.339 88.4206 118.023 88.4081 117.698C88.33 115.538 88.28 113.385 88.2456 111.226C88.2393 111.088 88.3643 110.829 88.4425 110.823C88.605 110.816 88.8644 110.901 88.9175 111.023C89.0738 111.363 89.23 111.738 89.2488 112.104C89.33 113.879 89.3779 115.653 89.3925 117.426Z" fill="#0C0115"/>
<path d="M89.2429 123.144C89.2617 124.772 89.2867 126.404 89.2554 128.026C89.2492 128.429 89.0804 128.826 88.9867 129.223C88.8638 129.229 88.745 129.231 88.6304 129.229C88.5085 128.713 88.2991 128.195 88.2804 127.673C88.2273 126.091 88.246 124.516 88.246 122.935C88.246 122.747 88.246 122.532 88.3304 122.375C88.4085 122.222 88.5898 122.044 88.7273 122.044C88.8585 122.038 89.0523 122.222 89.1117 122.369C89.2023 122.61 89.2429 122.885 89.2429 123.144Z" fill="#0C0115"/>
<path d="M86.5986 118.6C87.5706 119.212 87.3924 122.34 86.3518 123.081C85.7611 121.5 86.5799 120.075 86.5986 118.6Z" fill="#0C0115"/>
<path d="M84.8368 109.676C84.9868 109.854 84.9618 110.185 85.0181 110.451C84.7775 110.476 84.4743 110.607 84.2962 110.51C83.6212 110.17 83.0086 110.288 82.3586 110.563C81.7211 110.829 81.0585 111.063 80.3991 111.276C78.8053 111.766 77.2459 111.738 75.827 110.782C75.0176 110.229 74.2582 110.27 73.4957 110.795C71.455 112.201 69.358 112.326 67.0735 111.348C66.4766 111.095 65.6047 111.257 64.9265 111.46C63.464 111.901 61.9983 112.326 60.4763 112.045C59.52 111.863 58.5825 111.51 57.6856 111.129C56.9512 110.81 56.273 110.732 55.6542 111.232C54.1729 112.429 52.8322 111.888 51.4978 110.991C50.2821 110.173 50.2884 110.17 49.1696 111.113C49.0977 111.173 49.0321 111.251 48.9477 111.291C48.582 111.491 48.1601 111.895 47.8132 111.407C47.482 110.951 48.0351 110.782 48.2914 110.535C48.5039 110.335 48.6852 110.095 48.9258 109.945C49.3821 109.669 49.8758 109.441 50.3509 109.201C50.8665 109.416 51.2884 109.573 51.6916 109.776C52.0103 109.932 52.2978 110.163 52.6166 110.329C53.351 110.726 54.0417 110.866 54.8104 110.288C55.8761 109.488 57.048 109.391 58.2637 110.054C60.2888 111.154 62.3702 111.041 64.464 110.248C65.6641 109.788 66.8266 109.76 68.0173 110.335C69.5018 111.045 70.9862 110.882 72.3519 110.023C73.777 109.123 75.1489 108.894 76.6583 109.851C77.699 110.504 78.8647 110.426 80.0085 110.06C80.9398 109.766 81.8648 109.416 82.8024 109.129C83.5805 108.894 84.3024 109.051 84.8368 109.676Z" fill="#0C0115"/>
<path d="M82.7993 119.128C82.6306 119.272 82.4837 119.5 82.2931 119.547C81.5055 119.735 80.6993 119.872 79.943 120.016C79.1898 119.878 78.5054 119.769 77.8241 119.613C77.0866 119.45 76.399 119.488 75.749 119.922C75.4146 120.15 75.0459 120.328 74.674 120.497C73.0989 121.207 71.5832 121.185 70.2113 120.028C69.4487 119.385 68.7799 119.294 67.8955 119.891C66.8142 120.619 65.6235 120.569 64.486 119.91C64.4204 119.872 64.3485 119.844 64.2954 119.8C63.3078 118.975 62.3515 119.013 61.4015 119.872C61.2265 120.035 60.9921 120.222 60.7889 120.222C60.5296 120.222 60.1264 120.094 60.0545 119.916C59.9639 119.691 59.8201 119.253 60.4264 119.163C60.8202 119.103 61.1671 118.741 61.5234 118.491C62.3296 117.925 63.1703 117.888 64.0422 118.316C64.3922 118.485 64.7329 118.647 65.0766 118.825C65.8454 119.222 66.6205 119.253 67.3299 118.741C68.5456 117.869 69.7112 117.947 70.8207 118.897C72.0051 119.916 73.2802 119.838 74.4927 119.097C75.8334 118.278 77.1647 118.05 78.6835 118.497C79.3773 118.694 80.1648 118.585 80.9024 118.622C81.3618 118.647 81.818 118.628 82.2618 118.713C82.4618 118.747 82.6181 118.982 82.7993 119.128Z" fill="#0C0115"/>
<path fill-rule="evenodd" clip-rule="evenodd" d="M81.9081 102.988L81.1362 103C81.1362 102.863 80.4643 102.553 80.108 102.553C71.142 102.609 62.1759 102.7 53.2099 102.759C51.2692 102.772 49.3254 102.675 47.3659 102.631C47.3659 101.731 47.3534 100.984 47.3659 100.247C47.4315 95.2965 47.5159 90.3401 47.5534 85.393C47.5721 83.4679 47.5034 81.549 47.4253 79.6271C47.4159 79.3677 47.1252 79.1208 46.969 78.8614L46.8784 78.5801C48.2972 78.1332 49.7066 77.6645 51.0879 77.1363C53.2849 76.2957 55.4194 75.2894 57.5289 74.2487C58.9852 73.5393 60.4759 72.8236 61.5165 71.4829C61.5759 71.4048 61.7134 71.3454 61.8166 71.3454C63.4635 71.3329 65.1105 71.3392 66.7355 71.3392C66.6637 71.9517 66.5918 72.6486 66.4886 73.3486C66.4699 73.4674 66.3449 73.583 66.2418 73.6737C65.3823 74.4049 65.2667 74.8456 65.6542 75.88C64.6979 76.8519 63.7229 77.7863 62.826 78.7833C60.4259 81.4428 58.6289 84.5085 56.8601 87.5993C55.5881 89.8244 54.4568 92.0964 54.0006 94.6403C53.8912 95.2497 53.8787 95.8872 53.9193 96.506C53.9881 97.5216 54.6131 98.1279 55.6288 98.0279C56.2663 97.9654 56.9882 97.7873 57.4882 97.406C59.7008 95.7341 61.6165 93.7558 63.1947 91.4589C64.6198 89.3806 66.1449 87.3649 67.4887 85.2367C68.7138 83.2866 69.7482 81.2178 70.8545 79.1989C70.9982 78.927 71.0576 78.6145 71.1607 78.3208C72.4014 78.6645 73.7765 77.4051 73.5296 76.355C74.5578 75.6394 75.6703 75.0925 76.4766 74.2487C78.5986 72.0486 79.2205 69.3922 78.5642 66.3827C78.3548 65.4389 78.3892 64.4295 78.4205 63.4544C78.4548 62.3419 78.1923 62.0012 77.1141 62.1575C76.2172 62.2825 75.3109 62.4325 74.4453 62.6981C73.5296 62.9794 73.0733 63.8513 73.2233 64.8732L72.5639 64.7232C71.8483 63.2044 69.7857 62.3481 68.1856 62.7763C66.9887 63.095 65.8386 63.5763 64.6011 64.0076C64.6011 63.7013 64.6261 63.3357 64.5948 62.9669C64.5167 62.145 63.8979 61.7669 63.1635 62.145C62.7479 62.3606 62.3447 62.6794 62.0572 63.045C61.0759 64.2857 60.1509 65.5733 59.1946 66.8421C59.0852 66.9858 58.9414 67.1296 58.7789 67.2077C55.3225 68.9172 51.7317 70.2579 47.8472 71.0267C47.9128 67.1609 47.3003 63.3169 47.9847 59.3011C53.6193 59.073 59.2539 58.723 64.8823 58.6511C70.5013 58.5855 76.1172 58.7886 81.805 58.873C81.7394 59.9324 81.6425 61.0012 81.6112 62.0731C81.505 65.6577 81.4206 69.2328 81.3237 72.8174C81.2456 75.9456 81.0518 79.0708 81.0956 82.1928C81.1737 87.2399 81.4206 92.2839 81.5519 97.3279C81.5894 98.7717 81.4862 100.209 81.4487 101.653C81.4456 101.844 81.3768 102.062 81.4456 102.225C81.5581 102.494 81.7519 102.734 81.9081 102.988ZM78.0767 93.2277C79.2017 93.2339 79.9049 92.5058 79.8986 90.962C79.8924 90.4244 79.3986 89.8494 78.6423 89.3306C77.8017 88.7587 77.2579 88.6212 76.6079 89.4088C76.2016 89.9088 75.9172 90.6244 75.8391 91.2745C75.6953 92.4089 76.7048 93.2214 78.0767 93.2277ZM78.7017 78.177C78.5767 77.8988 78.4017 77.2863 78.0454 76.8051C77.5829 76.1863 76.0391 76.2644 75.736 76.8957C75.2578 77.8989 74.9609 78.9583 75.2797 80.0958C75.5984 81.2021 76.6266 81.5428 77.5235 80.8146C78.2454 80.2271 78.6423 79.452 78.7017 78.177ZM75.5703 85.368C75.8203 84.3648 75.2328 83.721 74.5703 83.1366C74.0234 82.6428 73.4171 82.5959 72.8077 83.0897C72.7233 83.1553 72.5858 83.1679 72.4733 83.1866C71.1076 83.421 70.417 84.2742 70.542 85.5773C70.6513 86.6868 71.642 87.4962 72.8764 87.4899C74.1015 87.4899 75.2672 86.5711 75.5703 85.368Z" fill="#DFCAF7"/>
<path d="M81.1359 103.001C81.1359 103.005 81.1359 103.007 81.1359 103.007C81.1016 103.632 80.5047 103.529 80.0796 103.529C73.47 103.542 66.854 103.529 60.2475 103.554C56.8317 103.567 53.4221 103.663 50.0126 103.673C48.9532 103.673 47.8938 103.548 46.8562 103.398C46.6093 103.367 46.3249 103.054 46.2187 102.801C46.0906 102.507 46.1156 102.141 46.1156 101.81C46.2176 94.5286 46.3197 87.246 46.4218 79.9623C46.4281 79.8435 46.3906 79.6998 46.4468 79.6092C46.6031 79.3498 46.7937 79.1091 46.9687 78.8622C47.125 79.1216 47.4156 79.3685 47.425 79.6248C47.5031 81.5499 47.5719 83.4687 47.5531 85.3938C47.5156 90.3409 47.4312 95.2974 47.3656 100.248C47.3531 100.985 47.3656 101.732 47.3656 102.632C49.3251 102.676 51.2689 102.773 53.2096 102.76C62.1757 102.701 71.1417 102.61 80.1078 102.554C80.464 102.554 81.1359 102.863 81.1359 103.001Z" fill="#0C0115"/>
<path fill-rule="evenodd" clip-rule="evenodd" d="M79.8989 90.9617C79.9051 92.5055 79.202 93.2337 78.0769 93.2274C76.705 93.2211 75.6956 92.4086 75.8393 91.2742C75.9175 90.6242 76.2018 89.9085 76.6081 89.4085C77.2581 88.6209 77.8019 88.7584 78.6426 89.3303C79.3989 89.8491 79.8926 90.4241 79.8989 90.9617ZM78.5332 91.8023C78.6707 91.7367 78.677 91.0804 78.5457 90.7742C78.3957 90.4023 78.0363 90.1054 77.7644 89.7804C77.6665 89.7637 77.5727 89.746 77.4831 89.7272C77.2706 90.1616 76.9706 90.571 76.8862 91.021C76.8394 91.2867 77.0675 91.7898 77.2831 91.8617C77.6613 91.9898 78.1738 91.9648 78.5332 91.8023Z" fill="#0C0115"/>
<path fill-rule="evenodd" clip-rule="evenodd" d="M78.046 76.8051C78.4023 77.2864 78.5773 77.8989 78.7023 78.177C78.6429 79.4521 78.246 80.2271 77.5241 80.8147C76.6272 81.5428 75.5991 81.2022 75.2803 80.0959C74.9615 78.9583 75.2584 77.8989 75.7397 76.8957C76.0397 76.2645 77.5835 76.1863 78.046 76.8051ZM76.9522 79.8115C77.8429 78.9646 77.7054 77.6114 76.4522 76.8176C76.3803 77.827 76.2616 78.7364 76.2678 79.6365C76.2741 80.1428 76.621 80.124 76.9522 79.8115Z" fill="#0C0115"/>
<path d="M77.7267 127.78C77.8735 127.811 77.9923 127.949 78.3173 128.161C77.8829 128.33 77.6329 128.496 77.3673 128.514C75.4984 128.664 73.6452 128.811 71.842 127.986C71.3357 127.758 70.5795 127.758 70.0482 127.955C68.5575 128.502 67.1262 128.792 65.5698 128.149C65.148 127.974 64.5229 128.117 64.0479 128.286C63.2166 128.58 62.4416 129.039 61.6165 129.374C60.4446 129.855 59.2477 129.849 58.2976 128.967C56.9382 127.699 55.635 127.727 54.1662 128.73C53.6443 129.086 52.988 129.286 52.3692 129.458C51.1473 129.808 49.8129 129.314 49.2066 128.317C49.091 128.124 49.1347 127.836 49.1035 127.595C49.3691 127.608 49.7222 127.511 49.8691 127.649C50.9129 128.624 51.9973 128.436 53.1286 127.855C53.7037 127.552 54.2818 127.27 54.8662 126.977C55.9538 126.43 57.0851 126.411 57.9664 127.233C59.4946 128.649 60.9915 128.508 62.6166 127.517C63.926 126.717 65.273 126.614 66.7605 127.133C67.3668 127.349 68.2137 127.227 68.8388 126.97C70.2701 126.374 71.5889 126.38 73.0077 127.017C73.6577 127.311 74.464 127.245 75.189 127.355C76.0391 127.484 76.885 127.626 77.7267 127.78Z" fill="#0C0115"/>
<path d="M77.5831 69.1545C77.6144 69.667 77.4706 70.2076 77.3206 70.7014C77.1519 71.2483 76.8019 71.2795 76.4362 70.8327C76.3612 70.7431 76.2945 70.6431 76.2362 70.5326C75.7737 69.6201 74.9799 69.2638 74.0048 69.192C73.0329 69.1201 73.0204 68.7576 72.6892 67.8919C72.3641 67.0325 72.8767 66.4137 72.8142 65.6637C72.7923 65.3324 72.7017 65.0136 72.5641 64.723L73.2236 64.873C74.2174 63.3823 75.7549 63.3761 77.1581 63.1854C77.3081 65.198 77.4831 67.1762 77.5831 69.1545Z" fill="#FF8AA4"/>
<path fill-rule="evenodd" clip-rule="evenodd" d="M74.5698 83.1369C75.2323 83.7213 75.8198 84.3651 75.5698 85.3683C75.2667 86.5714 74.101 87.4902 72.876 87.4902C71.6415 87.4965 70.6509 86.6871 70.5415 85.5777C70.4165 84.2745 71.1071 83.4213 72.4728 83.1869C72.5853 83.1682 72.7228 83.1557 72.8072 83.09C73.4166 82.5963 74.0229 82.6431 74.5698 83.1369ZM72.8447 86.3714C73.6385 86.3621 74.6479 85.5745 74.4573 84.9651C74.2885 84.4495 73.7947 83.8307 73.3135 83.6776C72.9478 83.5651 72.3322 84.0651 71.9134 84.3995C71.6884 84.5745 71.5696 84.9714 71.5384 85.2839C71.479 85.9527 72.0384 86.3839 72.8447 86.3714Z" fill="#0C0115"/>
<path d="M42.4786 50.5511C43.5287 50.5449 44.4694 51.6574 44.4568 52.8793C44.4443 53.9075 43.6693 54.6638 42.6036 54.6763C41.2817 54.6888 40.216 53.8575 40.1942 52.8012C40.1629 51.7105 41.3411 50.5511 42.4786 50.5511Z" fill="#DFCAF7"/>
<path d="M45.9879 76.4523C45.6473 77.2555 44.4035 77.7805 43.9159 77.5149C43.8128 77.4618 43.6815 77.268 43.7097 77.2024C43.7753 77.0399 43.9097 76.8305 44.0534 76.793C44.6378 76.6555 45.2316 76.5773 45.9879 76.4523Z" fill="#0C0115"/>
<path d="M43.5914 75.7397C43.5195 75.9022 43.4758 76.1428 43.357 76.2053C42.9945 76.3772 42.5976 76.4803 42.1726 76.6303C42.0163 76.5241 41.7632 76.4459 41.7507 76.3303C41.7319 76.1991 41.8757 75.9522 42.0101 75.899C42.382 75.7397 42.7789 75.6334 43.1695 75.5553C43.2945 75.5365 43.4508 75.674 43.5914 75.7397Z" fill="#0C0115"/>
<path fill-rule="evenodd" clip-rule="evenodd" d="M42.6681 34.9939C43.1618 36.3003 42.6868 37.5003 41.8149 38.541C41.5649 38.841 41.318 39.1441 41.0742 39.4504L41.0649 39.4629C40.5992 39.7442 40.1429 40.0379 39.6742 40.3223C37.3522 41.7349 34.7083 42.2037 32.1394 42.9006C30.2644 43.4193 28.3455 43.81 26.4986 44.4038C25.3204 44.785 24.2141 45.3976 23.1203 45.9882C22.1077 46.5289 21.7015 47.5508 21.4608 48.5915C21.1577 49.8603 21.1702 51.1166 21.5671 52.4198C21.8983 53.4979 21.8983 54.6761 22.0202 55.8137C22.0421 56.0356 21.9421 56.2824 21.864 56.5106C21.6702 57.0262 21.3827 57.4669 20.7608 57.52C20.1733 57.57 19.7232 57.2919 19.4576 56.7856C19.1388 56.1668 18.8388 55.5355 18.6107 54.8793C18.4482 54.4292 18.195 54.3449 17.7856 54.4105C16.8169 54.5667 16.1074 55.5949 16.2887 56.7075C16.4918 57.9825 17.1231 58.9326 18.4544 59.317C19.242 59.5482 20.0108 59.8295 20.7733 60.1358C20.9795 60.2139 21.1639 60.4264 21.2796 60.6233C22.3077 62.4702 22.6515 64.461 22.5734 66.5892C22.4671 66.5954 22.3723 66.5954 22.289 66.5892C21.9483 66.5454 21.7952 66.361 21.7015 65.9079C21.3764 64.3328 20.9295 62.789 20.5389 61.2296C20.4326 60.7858 20.192 60.6608 19.7295 60.6545C17.5263 60.6358 15.9106 59.4576 15.4512 57.3887C15.2793 56.595 15.4824 55.7105 15.5199 54.748C14.6293 54.6386 13.7073 54.1417 12.9573 53.3167C11.8854 52.1385 11.9698 49.829 13.1917 48.8196C13.6136 48.4696 14.098 48.2008 14.573 47.9227C15.3137 47.4914 15.4105 47.2726 15.123 46.457C15.0011 46.1195 14.8449 45.7882 14.7011 45.4569C14.0949 43.9975 14.3636 42.7818 15.4637 41.6318C16.6668 40.363 18.2013 39.8098 19.8482 39.4567C20.3889 39.341 20.9295 39.216 21.4546 39.0473C22.3077 38.7691 22.9703 38.2597 23.3484 37.4003C24.2203 35.4627 25.7235 34.5002 27.8705 34.5971C28.1361 34.6096 28.3986 34.5846 28.6643 34.6033C30.9363 34.7721 32.9926 34.2377 34.5739 32.5282C36.7272 30.2125 41.4055 31.6438 42.6681 34.9939ZM41.1899 38.0378C42.0868 37.0159 42.2712 35.8784 41.768 34.9815C41.1242 35.5971 40.593 36.4315 39.8492 36.744C38.0804 37.4972 36.2053 37.9722 34.2333 37.6222C32.5957 37.3284 31.0081 37.2566 29.7393 38.6097C29.4143 38.9566 29.0956 39.3254 28.8018 39.6973C27.5392 41.2849 25.8933 42.0901 23.8641 42.113C23.414 42.1193 22.9578 42.1068 22.5015 42.1255C21.4358 42.163 20.6108 42.6724 20.2514 43.6412C20.0045 44.3163 19.8607 45.1194 19.9858 45.807C20.2264 47.0945 19.817 48.0602 18.8388 48.7696C17.9044 49.4446 17.7669 50.3228 18.1044 51.2478C18.7044 52.9073 19.4264 54.5199 20.1201 56.1449C20.192 56.3106 20.4201 56.42 20.5702 56.5512C20.7077 56.3793 20.9608 56.1981 20.9545 56.0231C20.9233 55.0261 20.8108 54.0323 20.7608 53.0417C20.6889 51.5854 20.4858 50.1165 20.642 48.6852C20.817 47.082 21.664 45.7288 23.1984 44.9882C24.2735 44.4663 25.3579 43.9069 26.4923 43.5756C29.8425 42.6068 33.2207 41.7786 36.5772 40.8442C38.371 40.3473 39.9523 39.4629 41.1899 38.0378ZM39.4148 36.0471C40.1742 35.7752 41.1586 34.5189 40.8899 34.0127C40.5836 33.4439 39.9523 32.9126 39.3367 32.6626C37.7428 32.0001 36.1865 31.9407 34.8208 33.322C33.1989 34.9627 31.1707 35.5596 28.8924 35.4033C28.3705 35.3658 27.8392 35.3971 27.3111 35.4221C25.8016 35.4752 24.7547 36.2315 24.2016 37.6034C23.6734 38.9285 22.6984 39.6785 21.3764 40.0442C20.7983 40.2004 20.2076 40.3223 19.6264 40.4536C18.2607 40.7598 17.0231 41.2849 16.0543 42.3474C15.3012 43.1725 15.0386 44.0631 15.5418 45.1194C15.7168 45.4882 15.871 45.8653 16.0043 46.2507C16.4075 47.4602 16.1512 48.0539 15.0543 48.704C14.4855 49.0477 13.9136 49.4196 13.4198 49.8728C12.6792 50.5509 12.651 51.1822 13.1386 52.0666C13.8167 53.2979 15.0668 53.6479 16.2387 54.1105C16.3137 54.1417 16.4137 54.0698 16.5043 54.0448C17.0887 53.8511 17.6669 53.6604 18.2982 53.4479C17.5388 52.5104 17.1606 51.3697 17.27 50.1478C17.3169 49.6009 17.5919 48.9227 18.0013 48.5977C19.0357 47.7727 19.3732 46.8945 19.1638 45.5413C18.7826 43.1193 20.467 41.3442 22.914 41.3442C23.1557 41.3442 23.3963 41.3463 23.6359 41.3505C25.5298 41.3818 27.0705 40.6286 28.1705 39.1191C29.68 37.0503 31.5988 36.2565 34.1302 36.7815C35.9521 37.1597 37.7085 36.6659 39.4148 36.0471Z" fill="#0C0115"/>
<path d="M42.212 77.6434C42.0995 77.809 42.0151 78.0872 41.8588 78.134C41.2026 78.3403 40.5213 78.4716 39.9213 78.6153C39.6212 78.5372 39.3869 78.5309 39.2181 78.4184C39.0806 78.3341 38.9275 78.1122 38.9462 77.9715C38.965 77.8403 39.1806 77.659 39.3306 77.6371C40.114 77.5142 40.9005 77.4257 41.6901 77.3715C41.8588 77.359 42.037 77.5465 42.212 77.6434Z" fill="#0C0115"/>
<path d="M41.5698 143.018C41.5677 143.089 41.5656 143.16 41.5635 143.231C39.8322 143.4 38.1009 143.59 36.3633 143.725C33.8007 143.915 31.2381 144.072 28.6786 144.24C28.4098 144.257 28.1452 144.253 27.8848 144.228C26.3097 144.103 26.0972 143.881 26.0378 142.334C26.0128 141.828 25.9534 141.331 25.9191 140.862C27.241 140.734 28.5442 140.65 29.838 140.471C30.5662 140.368 31.1006 140.493 31.7975 140.837C32.9944 141.425 34.3913 141.643 35.7258 141.918C37.4384 142.275 39.1697 142.528 40.8979 142.834C41.126 142.875 41.3479 142.959 41.5698 143.018Z" fill="#0C0115"/>
<path d="M41.0758 39.4502C41.078 39.4567 41.0824 39.4676 41.0889 39.4828C41.0758 39.4763 41.0639 39.4741 41.053 39.4763L41.0661 39.4632L41.0758 39.4502Z" fill="#0C0115"/>
<path fill-rule="evenodd" clip-rule="evenodd" d="M37.4223 54.8385C38.5818 54.676 39.3443 55.4635 39.1037 56.6136C38.738 58.3637 37.6786 59.5293 35.991 60.0825C35.3347 60.2981 34.6378 60.37 33.694 60.5638C33.0128 60.3044 32.0877 60.0887 31.3064 59.6262C30.1626 58.9574 30.1376 57.5792 31.2377 56.8417C31.9002 56.3948 32.694 56.1198 33.4628 55.8729C34.5597 55.5229 35.6816 55.276 36.7879 54.9885C37.0004 54.9354 37.2098 54.8697 37.4223 54.8385ZM37.9442 56.7792C38.0224 56.5292 38.063 56.0698 37.9442 55.9917C37.7286 55.8542 37.3536 55.8792 37.0848 55.9448C35.9004 56.2511 34.7253 56.5886 33.5534 56.9323C33.1221 57.0573 32.6627 57.1886 32.2846 57.423C31.9846 57.6042 31.5877 57.9605 31.6002 58.223C31.6127 58.5012 32.0221 58.8481 32.3346 58.9949C32.8221 59.2231 33.3784 59.3012 33.9034 59.4387C35.8941 59.3543 37.4505 58.3668 37.9442 56.7792Z" fill="#0C0115"/>
<path d="M37.8216 44.4283C37.956 45.2284 37.2279 45.4096 36.6685 45.5409C35.9591 45.7159 35.2059 45.819 34.4809 45.8128C33.7808 45.8128 33.5339 45.2159 34.034 44.7346C34.659 44.1283 35.4059 43.6595 36.3309 43.6095C36.3559 43.6075 36.3799 43.6075 36.4028 43.6095C37.006 43.6658 37.7029 43.6877 37.8216 44.4283Z" fill="#0C0115"/>
<path d="M36.6151 46.2576C37.2338 46.5107 37.7339 47.2983 37.8714 48.1233C37.5651 48.4702 37.312 48.9515 36.9276 49.139C36.415 49.3859 36.0963 48.9046 35.8931 48.4827C35.6869 48.0546 35.4838 47.6045 35.4119 47.142C35.2962 46.3889 35.9119 45.9763 36.6151 46.2576Z" fill="#0C0115"/>
<path d="M36.7876 93.3527C36.7876 94.7684 36.7876 96.0247 36.7876 97.3716C35.4469 97.456 34.1843 97.606 32.9155 97.606C30.6373 97.606 28.3528 97.5747 26.0777 97.456C22.9525 97.2935 19.8555 96.8903 16.8429 96.0059C16.0897 95.784 15.3678 95.434 14.6709 95.0746C14.4959 94.984 14.3521 94.5871 14.4021 94.3777C14.599 93.5652 14.8772 92.7714 15.0803 92.1151C22.3275 93.0308 29.4779 94.2746 36.7876 93.3527Z" fill="#DFCAF7"/>
<path d="M36.6684 98.5312C36.6684 99.3188 36.6809 100.119 36.6497 100.919C36.6434 101.05 36.4403 101.244 36.2966 101.281C35.0996 101.563 33.9433 101.922 32.6401 101.503C31.8682 101.256 30.9307 101.497 30.0713 101.556C29.14 101.616 28.1962 101.647 27.2805 101.828C26.8711 101.913 26.4023 102.253 26.1867 102.616C25.6929 103.431 25.346 104.335 24.9304 105.2C24.295 106.517 23.6637 107.836 23.0366 109.157C22.2574 110.807 21.4813 112.459 20.7083 114.113C20.6052 114.329 20.5177 114.544 20.4333 114.726C19.9208 114.544 19.4645 114.316 18.9832 114.232C17.8176 114.035 16.8769 114.466 16.1519 115.41C15.0674 116.813 14.5205 118.401 14.4487 120.151C14.383 121.826 14.9112 122.532 16.6019 123.048C14.5018 127.389 12.4111 131.714 10.2703 136.139C7.26395 135.002 4.11068 134.758 1.60431 132.93C6.11389 120.698 10.5766 108.579 15.0081 96.5593C21.949 98.8875 29.2493 99.1094 36.6684 98.5312Z" fill="#0C0115"/>
<path d="M36.5835 90.3339C36.6397 90.9006 36.6939 91.4704 36.746 92.0434C29.5769 93.109 22.5953 91.634 15.3856 91.0683C15.8263 89.4995 16.1857 88.19 16.5763 86.7744C23.0766 88.5807 29.6925 88.6588 36.3866 88.6088C36.4522 89.1557 36.5179 89.7464 36.5835 90.3339Z" fill="#8242CB"/>
<path d="M35.7785 51.3258C36.4535 51.3914 36.6879 51.8664 36.3379 52.4508C36.0691 52.8946 35.7504 53.329 35.4004 53.7072C35.2753 53.8415 34.9785 53.8103 34.7628 53.8572C34.7316 53.6228 34.6003 53.3478 34.6784 53.1665C34.8472 52.8071 35.1222 52.4977 35.4379 52.0602C34.866 52.0352 34.4128 52.0415 33.969 51.9758C33.8003 51.9508 33.6503 51.7727 33.494 51.6571C33.6565 51.5414 33.819 51.3445 33.9878 51.332C34.5816 51.2914 35.1847 51.2727 35.7785 51.3258Z" fill="#0C0115"/>
<path d="M36.2307 87.4613C29.7242 87.5519 23.3239 87.3332 16.8892 85.8862C17.3299 84.6956 17.7736 83.4924 18.2362 82.2423C19.7644 83.1955 21.4551 83.208 23.1083 83.408C26.1084 83.7736 29.096 84.2143 32.1056 84.5268C33.3619 84.658 34.6432 84.5487 35.9776 84.5487C36.062 85.5112 36.1401 86.4081 36.2307 87.4613Z" fill="#DFCAF7"/>
<path d="M35.9059 81.3149C35.9059 82.0305 35.9059 82.6993 35.9059 83.3493C34.1558 83.9025 21.1583 82.5055 18.5394 81.4836C18.7957 80.4242 19.0426 79.4023 19.2551 78.5085C20.6176 79.0554 21.9646 79.6429 23.349 80.1429C24.2084 80.4617 25.2429 80.1898 26.0054 80.968C26.1992 81.1649 26.6367 81.1774 26.9679 81.1836C29.6993 81.2367 32.4338 81.2742 35.1652 81.3149C35.3996 81.3149 35.634 81.3149 35.9059 81.3149Z" fill="#8242CB"/>
<path d="M36.6311 102.476C36.2592 107.108 35.8873 111.773 35.5154 116.411C32.6996 117.114 31.2496 118.961 31.0871 121.955C30.9745 124.065 32.0621 125.696 34.0528 126.433C33.3622 130.674 32.6684 134.915 31.9465 139.303C30.0589 139.406 28.04 139.515 26.0118 139.628C25.543 139.653 25.4118 139.425 25.3993 138.965C25.243 131.54 25.3212 124.108 25.7774 116.686C25.9993 113.02 26.1618 109.345 26.3681 105.67C26.3931 105.245 26.44 104.798 26.5837 104.401C26.9494 103.385 27.365 102.46 28.8026 102.748C29.4089 102.873 30.0839 102.604 30.7339 102.592C31.4183 102.573 32.109 102.689 32.8028 102.67C34.0403 102.632 35.281 102.551 36.6311 102.476Z" fill="#0C0115"/>
<path d="M34.5523 71.1176C34.6836 71.4427 34.7555 71.7896 34.9242 72.3865C33.121 72.0614 31.4553 71.8677 29.849 71.4364C28.6771 71.1177 28.6989 70.9489 28.9052 69.5957C30.6834 69.9488 32.4179 70.2801 34.1367 70.6551C34.3055 70.6895 34.4742 70.9301 34.5523 71.1176Z" fill="#DFCAF7"/>
<path d="M27.5836 49.776C28.3149 50.1541 28.5086 50.8823 28.568 51.9355C28.443 52.1199 28.268 52.6386 27.918 52.823C27.3961 53.1012 27.0273 52.6136 26.8054 52.1855C26.5523 51.7042 26.3241 51.1886 26.2398 50.6667C26.1929 50.376 26.3679 49.901 26.596 49.751C26.8304 49.601 27.3117 49.6385 27.5836 49.776Z" fill="#0C0115"/>
<path d="M25.3519 55.6391C26.7395 55.6266 27.6552 56.4329 27.6489 57.6642C27.6427 58.933 26.6926 59.8362 25.3613 59.8424C24.1956 59.8424 23.3487 59.0737 23.3612 58.0267C23.38 56.6298 24.1956 55.6454 25.3519 55.6391Z" fill="#DFCAF7"/>
<path d="M25.8218 47.2917C26.5 47.2917 26.9625 47.973 26.55 48.5417C25.9968 49.3074 25.2812 49.9606 24.5655 50.5825C24.2155 50.8887 23.7217 50.5887 23.5967 50.0949C23.3248 49.0168 24.6905 47.2917 25.8218 47.2917Z" fill="#0C0115"/>
<path d="M25.8556 68.7579C26.6213 69.0297 27.3526 69.386 28.3401 69.8048C27.3369 73.1081 26.3369 76.427 25.2962 79.849C23.793 79.224 22.2898 78.7833 20.9866 78.0145C18.7178 76.6801 18.0865 75.7644 18.4365 73.0768C18.6834 71.1892 19.3741 69.4641 20.7804 68.0922C21.2429 67.6359 21.7867 67.5015 22.3617 67.664C23.5388 67.9911 24.7035 68.3557 25.8556 68.7579Z" fill="#DFCAF7"/>
<path d="M13.493 143.662C13.4514 143.739 13.4097 143.815 13.368 143.89C12.2555 143.484 11.1367 143.087 10.0366 142.659C8.67093 142.13 7.28649 141.637 5.96455 141.012C4.4551 140.296 3.00503 139.458 1.52684 138.671C1.08932 138.443 1.03932 138.118 1.17682 137.649C1.49559 136.602 1.74872 135.539 1.99561 134.618C3.51131 135.158 5.13013 135.73 6.73333 136.321C6.88022 136.368 7.04585 136.49 7.1021 136.621C7.67713 138.021 8.80218 138.983 9.8241 140.018C11.0335 141.246 12.268 142.449 13.493 143.662Z" fill="#0C0115"/>
</svg>
