<svg width="91" height="116" viewBox="0 0 91 116" fill="none" xmlns="http://www.w3.org/2000/svg">
<path d="M26.8051 15.9975C26.8051 15.9975 17.7819 12.2599 13.5168 19.2127C13.5168 19.2127 22.2685 21.2487 26.8051 15.9975Z" fill="#ECF0F4"/>
<path d="M29.7872 54.5217C29.8324 54.8417 29.7622 55.0286 29.4358 55.1018C28.6494 55.2771 27.8627 55.4552 26.9602 55.6588C26.9101 54.975 26.8644 54.4128 26.8329 53.8525C26.6388 50.7753 26.5497 47.6886 26.2382 44.6279C26.0064 42.3356 25.4819 40.0775 25.1241 37.8006C24.9573 36.7473 24.8986 35.682 24.757 34.6348C24.6051 33.4652 24.4178 32.3026 24.2274 31.0301C25.0585 30.8433 25.9826 30.6281 27.0341 30.3861C27.1228 32 27.2377 33.5453 27.2981 35.0892C27.4123 38.1821 27.8877 41.2235 28.3918 44.2658C28.959 47.6678 29.3261 51.1016 29.7872 54.5217Z" fill="#ECF0F4"/>
<path d="M31.0546 61.6799C31.4371 64.3462 31.8098 66.9766 32.1882 69.6078C31.447 68.2038 30.6266 67.0114 28.6978 67.3737C28.6652 67.016 28.6294 66.6598 28.5906 66.305C28.4637 65.1281 28.333 63.9517 28.1983 62.7757C28.143 62.221 28.3895 61.8521 28.9204 61.8024C29.6064 61.7352 30.2886 61.7195 31.0546 61.6799Z" fill="#ECF0F4"/>
<path d="M27.2008 62.2435C27.4379 64.6287 28.0394 66.9601 27.5655 69.4958C26.0199 67.6019 24.7028 67.7577 23.8524 69.1007C23.3555 66.9038 22.8628 64.72 22.3741 62.5492C23.981 62.448 25.5527 62.3509 27.2008 62.2435Z" fill="#ECF0F4"/>
<path d="M23.0604 70.705C23.0673 70.7404 23.0562 70.7822 22.9191 70.9288C22.8117 70.7334 22.7211 70.52 22.5781 70.3546C22.3689 70.0999 22.1496 69.8555 21.899 69.6531C20.6478 68.6502 19.8176 68.7853 18.9158 70.1245C18.8463 70.2164 18.7785 70.3172 18.6349 70.5148C18.2985 67.1108 17.9708 63.8175 17.6457 60.5274C17.7006 60.5038 17.7546 60.48 17.8077 60.4561C18.5225 61.6406 19.7501 61.8652 20.9088 62.2221C21.1057 62.2821 21.3742 62.4579 21.4107 62.6211C21.9804 65.3116 22.5145 68.0089 23.0604 70.705Z" fill="#ECF0F4"/>
<path d="M20.5349 55.6228C20.6188 56.2014 20.7963 56.769 20.9517 57.3972C19.8201 57.5453 18.5034 57.609 17.5831 58.9573C17.5263 58.2352 17.4782 57.6468 17.4352 57.0418C17.7225 56.9145 18.0168 56.8228 18.267 56.6706C19.1481 56.1184 19.5977 55.0898 19.3272 54.0808C19.1024 53.2535 18.7911 52.4495 18.4726 51.6562C18.3353 51.3128 18.309 51.0472 18.4671 50.6929C19.0809 49.3079 18.4952 48.0161 17.0997 47.5508C16.8617 47.4741 16.5056 47.4195 16.4297 47.2483C16.2803 46.9091 16.2687 46.507 16.2376 46.1226C16.2162 45.8863 16.2884 45.6391 16.267 45.4029C15.8508 41.2989 15.4314 37.1973 15.0089 33.0982C15.002 33.0397 15.0246 32.9763 15.0271 32.9565C15.9887 32.9421 16.9397 32.9206 17.9482 32.9008C18.5103 34.7775 18.7605 36.7264 18.9067 38.6993C19.1125 41.5071 19.2796 44.3243 19.5637 47.1278C19.8118 49.5405 20.2141 51.9413 20.5292 54.3482C20.5818 54.7671 20.4702 55.2081 20.5349 55.6228Z" fill="#ECF0F4"/>
<path d="M26.001 55.4975C25.1845 55.3922 24.4006 55.3027 23.6253 55.1912C23.2015 55.125 22.7813 54.9642 22.3657 54.9683C21.6328 54.9747 21.4562 54.6233 21.3769 53.9416C21.0078 50.9254 20.5135 47.919 20.1803 44.893C19.9279 42.5807 19.9178 40.2448 19.6921 37.9273C19.564 36.5735 19.2555 35.2338 18.9873 33.8936C18.915 33.5154 18.6813 33.1596 18.5123 32.7718C20.1569 32.2662 21.8168 31.7539 23.5572 31.2203C23.6437 31.779 23.7613 32.2525 23.7885 32.7344C24.0303 36.7833 24.8477 40.7479 25.3449 44.7605C25.7241 47.8097 25.7398 50.9072 25.9197 53.9826C25.9461 54.4932 25.9732 54.9982 26.001 55.4975Z" fill="#ECF0F4"/>
<path fill-rule="evenodd" clip-rule="evenodd" d="M78.389 86.9549C80.3854 87.6101 80.5104 88.1161 79.992 89.6777C79.3481 91.6093 78.604 93.5136 77.8882 95.4215C77.485 96.4916 77.0654 97.5558 76.6292 98.614C76.51 98.9128 76.3697 99.2405 76.1384 99.4471C75.91 99.6539 75.5356 99.8535 75.2709 99.805C75.0824 99.7691 74.8381 99.3169 74.8462 99.0528C74.9259 97.1608 75.0598 95.273 75.1834 93.3752C75.1922 93.2178 75.224 93.0605 75.2448 92.8989C72.3393 93.0805 69.5152 92.8317 66.6952 92.1481C62.4502 91.1166 58.2359 89.9593 54.1522 88.3923C51.7133 87.4582 49.5245 86.1038 47.8865 83.9875C47.6897 83.7258 47.4689 83.486 47.2242 83.2681C45.9965 82.15 45.1292 80.7845 44.4962 79.256C44.3248 78.8419 44.0216 78.4887 43.7742 78.1052C43.7141 78.1243 43.6531 78.1424 43.5914 78.1594C43.2883 80.1523 42.9516 82.1379 42.6875 84.1415C42.306 87.0551 41.9948 89.9836 41.619 92.898C41.275 95.5955 40.897 98.2887 40.485 100.977C40.2238 102.69 39.8914 104.397 39.5536 106.1C39.4607 106.552 39.5373 106.83 39.891 107.149C40.322 107.539 40.7017 108.015 40.9787 108.526C41.3867 109.273 41.0232 109.768 40.1875 109.856C37.844 110.105 35.5287 109.956 33.2163 109.494C31.3645 109.125 29.4834 108.894 27.6196 108.596C27.3829 108.554 27.1247 108.501 26.9245 108.377C26.7405 108.261 26.4886 108.024 26.5077 107.876C26.5347 107.667 26.7609 107.387 26.9562 107.326C28.566 106.822 30.1746 106.283 31.8903 106.276C32.0722 106.274 32.2489 106.245 32.5081 106.223C32.4301 105.331 32.3515 104.465 32.273 103.599C31.8214 98.5403 31.2918 93.4831 30.9544 88.4102C30.7614 85.5032 30.888 82.5769 30.8695 79.6577C30.8657 79.4411 30.8365 79.2212 30.8247 79.0438C30.2965 80.0709 29.765 81.1005 29.2304 82.1326C29.2025 82.1847 29.1771 82.24 29.1542 82.2985C29.0864 82.5117 28.998 82.9067 28.947 82.9001C28.6652 82.8724 28.3222 82.8282 28.1232 82.6498C27.0608 81.7029 26.0001 80.7419 25.0042 79.7258C22.9326 77.6199 20.7284 75.6698 18.3483 73.9218C18.196 73.8071 18.087 73.5567 18.0665 73.3581C17.7989 70.7844 17.5259 68.2071 17.2966 65.6269C17.0423 62.8157 16.8426 60.0058 16.5996 57.1961C16.5764 56.974 16.4271 56.7012 16.25 56.5544C14.6064 55.1522 13.7664 53.352 13.8629 51.2173C13.9099 50.2492 14.2924 49.2724 14.6477 48.3499C14.7964 47.9569 15.2615 47.6796 15.557 47.3776C15.1035 40.7911 14.4416 34.1893 13.276 27.6493C12.6641 24.2357 12.3265 20.774 11.8481 17.3315C11.8209 17.1176 11.6554 16.9262 11.5733 16.7139C11.5186 16.557 11.435 16.356 11.4894 16.2246C11.6513 15.7959 11.6449 15.3311 12.2628 15.0764C12.8892 14.8228 13.3357 14.1541 13.9163 13.7419C14.4738 13.3526 15.0709 12.9685 15.7065 12.7334C18.4291 11.7125 21.1536 11.6834 23.8483 12.8695C24.5109 13.1625 25.1894 13.4431 25.8145 13.8032C26.024 13.9225 26.1712 14.2556 26.2234 14.5217C26.4038 15.3578 26.6653 16.2129 26.6348 17.0534C26.4893 20.9313 27.299 24.7104 27.6674 28.5364C27.8443 30.3836 28.0155 32.2301 28.2002 34.1504C28.5001 33.9931 28.8186 33.8698 29.0962 33.6837C30.945 32.4666 33.0017 32.0055 35.172 31.8934C35.8213 31.8647 36.4706 31.836 37.1176 31.758C37.273 31.7377 37.5166 31.5472 37.5413 31.4005C37.682 30.6001 37.7631 29.792 37.8651 29.0011C36.9122 28.7687 35.9747 28.5959 35.0735 28.3212C31.7938 27.3363 30.2745 24.8578 29.8824 21.6628C29.534 18.7991 29.8896 15.9513 30.9185 13.2249C30.959 13.1119 30.9832 12.9911 31.0037 12.9217C30.2881 12.5701 29.5548 12.3112 28.9204 11.8893C26.5736 10.3301 26.2326 6.93999 28.2142 5.09442C29.2053 4.15869 30.4946 4.01655 31.7515 4.01433C32.9627 4.0091 34.1735 4.20844 35.3845 4.3156C36.3762 4.40311 37.4266 4.72876 38.3429 4.50682C39.8515 4.13932 41.2808 4.38702 42.7277 4.58798C45.8432 5.0358 48.8135 5.89434 51.2077 8.1139C51.372 8.27054 51.5441 8.4109 51.7087 8.56471C51.8557 8.69894 51.9931 8.84059 52.1648 9.00683C53.2794 6.93417 55.1569 6.16462 57.2849 5.88852C59.3686 5.6211 61.3671 6.19294 62.8455 7.57966C64.8069 9.42349 67.0476 10.4416 69.598 10.9808C70.4478 11.1624 71.1743 11.6077 71.7585 12.2854C73.0793 13.8219 73.0045 15.4752 72.05 17.1103C71.373 18.2709 70.588 19.3745 69.7419 20.4153C68.6268 21.776 67.8249 23.2348 67.6938 25.0336C67.65 25.6188 67.4971 26.2015 67.3538 26.7767C66.3362 30.7122 62.452 31.174 60.063 29.6296C57.3847 27.8921 55.4435 25.6013 55.0136 22.2746C54.9327 21.6503 54.7784 21.0367 54.6506 20.4178C54.6493 20.4061 54.6173 20.4078 54.5585 20.3944C54.4356 20.7446 54.2977 21.0986 54.1988 21.4634C53.5509 23.873 51.9079 25.5057 49.8752 26.7193C48.8322 27.3428 47.6662 27.7573 46.7602 28.704C46.8256 29.1131 46.94 29.612 46.9756 30.1181C47.0496 31.0644 47.0796 32.0164 47.1209 32.97C47.1347 33.2657 47.1394 33.52 47.533 33.5967C50.25 34.117 51.9346 35.9166 52.973 38.3244C54.8832 42.7556 54.3189 47.0205 51.846 51.0883C51.5142 51.6277 51.1796 52.1667 50.782 52.6573C50.4838 53.0252 50.3988 53.3717 50.5076 53.8238C50.7614 54.8508 50.9701 55.8923 51.2267 56.9197C51.2822 57.1603 51.4665 57.3627 51.5932 57.5866C51.6429 57.6708 51.7383 57.7581 51.7334 57.841C51.6581 59.1398 52.1539 60.3018 52.6057 61.4697C53.0227 62.5495 53.5669 63.5823 53.9981 64.6639C54.2541 65.2936 54.34 65.9906 54.5964 66.6174C55.4715 68.7045 56.3989 70.7666 57.2804 72.8488C57.4121 73.1684 57.4103 73.5399 57.453 73.7674C58.6883 74.9613 59.8098 76.2098 61.0964 77.2519C63.0689 78.8522 65.1925 80.2644 67.1854 81.8414C69.4391 83.6307 72.0277 84.7225 74.677 85.7241C75.5284 86.05 76.3605 86.4369 77.2008 86.7816C77.3297 86.8328 77.4712 86.8308 77.6044 86.848C77.8652 86.8816 78.1425 86.877 78.389 86.9549ZM78.8552 90.0672C79.2875 88.3908 79.2819 88.3901 77.682 87.6996C77.5917 87.662 77.4993 87.6184 77.4254 87.5887C76.6475 90.9614 75.6104 94.266 75.819 97.9014C75.914 97.7234 75.9707 97.6414 76.0086 97.5483C76.8434 95.4251 77.6728 93.2994 78.4968 91.171C78.6354 90.8113 78.7609 90.4413 78.8552 90.0672ZM75.2382 92.1458C75.6754 90.5882 76.1103 89.0475 76.5289 87.5451C75.7818 87.2586 75.1942 87.033 74.61 86.802C72.287 85.8857 69.9179 85.0586 67.8555 83.5966C66.7756 82.829 65.7503 81.9964 64.6705 81.2289C62.526 79.7102 60.3754 78.2166 58.6783 76.1561C58.1204 75.4761 57.3562 74.9654 56.683 74.3742C56.4496 74.5084 56.2871 74.6287 56.1006 74.7113C55.1054 75.1651 54.1461 75.7649 53.1002 76.0306C50.3086 76.7371 47.4778 77.3001 44.6893 77.9148C44.8698 78.1917 45.1465 78.504 45.3061 78.8762C45.9411 80.4107 46.9201 81.6927 48.1297 82.817C48.4536 83.1211 48.7131 83.5004 49.0435 83.7995C49.7568 84.4593 50.4536 85.1572 51.2431 85.7173C53.1737 87.0845 55.3692 87.895 57.6323 88.5154C61.393 89.5479 65.1349 90.6586 68.9363 91.5091C70.9498 91.9647 73.0765 91.9449 75.2382 92.1458ZM71.5816 16.1161C72.4961 14.1646 71.1635 12.2952 69.6574 11.8387C69.1938 11.7011 68.7278 11.5373 68.2531 11.4415C66.242 11.0121 64.4322 10.2283 63.0087 8.66132C62.2387 7.81557 61.222 7.31844 60.1494 6.96399C57.692 6.1514 55.458 6.60118 53.5132 8.33911C52.6828 9.07939 52.6482 9.59372 53.2696 10.452C53.3867 10.617 53.4984 10.7861 53.6048 10.9593C55.0543 13.3308 55.0785 15.9596 54.9094 18.6124C54.9065 18.9925 54.8081 19.3977 54.9131 19.7456C55.2456 20.8548 55.751 21.9201 56.015 23.0465C56.6425 25.7357 58.4229 27.5072 60.5905 28.9136C62.9516 30.4516 65.7332 29.3087 66.4939 26.6053C66.6535 26.0379 66.7895 25.4531 66.8449 24.8665C67.0212 22.9409 67.822 21.312 69.0799 19.8717C70.0771 18.7321 70.9373 17.5144 71.5816 16.1161ZM56.1838 73.6412C56.3345 73.5453 56.5164 73.2748 56.4783 73.146C56.2244 72.3206 55.9141 71.5082 55.6237 70.6984C54.6367 71.0438 53.7196 71.3838 52.7972 71.6972C51.0459 72.2928 49.3243 72.9931 47.5378 73.4372C44.2915 74.2493 40.9432 74.3334 37.6156 74.5241C36.0106 74.6111 34.4173 74.6737 32.7998 74.053C32.5828 75.0655 31.6691 75.8037 31.8193 76.9413C31.8202 76.9491 31.821 76.9578 31.8216 76.9675C31.8114 77.0469 31.6834 77.1457 31.6447 77.2445C31.5957 77.3563 31.5343 77.4752 31.5387 77.5968C31.614 79.405 31.7034 81.215 31.7808 83.0292C31.8715 85.2313 31.8903 87.4328 32.0651 89.6314C32.2368 91.7863 32.6129 93.9214 32.802 96.0757C33.098 99.3909 33.316 102.708 33.5538 106.027C33.5813 106.416 33.6895 106.606 34.0992 106.648C35.2432 106.76 37.3334 106.822 38.5443 106.976C38.537 107.032 38.5326 107.089 38.5309 107.147C38.5267 107.314 38.7811 107.643 38.8169 107.633C38.8834 107.609 38.9439 107.595 38.9983 107.59C38.9235 107.679 38.8458 107.767 38.757 107.83C38.6389 107.919 38.4406 107.936 38.29 107.92C36.8954 107.783 34.4868 107.709 33.0944 107.556C33.0207 107.546 32.9155 107.512 32.8767 107.455C32.5681 107.032 32.13 107.1 31.7156 107.162C30.6896 107.318 29.6774 107.501 28.6606 107.676C28.663 107.776 28.6691 107.877 28.6789 107.981C32.4719 108.248 36.1795 109.536 40.1477 108.892C39.9492 108.598 39.8072 108.358 39.6336 108.139C39.459 107.906 39.3583 107.548 38.9983 107.59C39.0684 107.494 39.1396 107.403 39.2121 107.318C39.0366 107.203 38.8704 107.018 38.6861 106.994C38.6407 106.988 38.5935 106.982 38.5443 106.976C38.5675 106.483 38.6396 105.991 38.7078 105.507C39.3195 101.277 39.9616 97.0565 40.5361 92.8247C41.0841 88.82 41.5479 84.7987 42.0736 80.7882C42.2036 79.825 42.4522 78.8801 42.6468 77.9079C39.1944 77.7481 35.7539 78.1893 32.369 77.1707C32.3723 77.1154 32.3806 77.0655 32.394 77.0212C32.4527 76.7895 32.6107 76.637 32.951 76.6578C33.1944 76.6776 33.4387 76.6976 33.684 76.7177C37.21 77.0888 40.7548 77.1798 44.2744 76.841C46.8508 76.5968 49.385 75.8975 51.9396 75.4429C53.4993 75.1713 54.8571 74.453 56.1838 73.6412ZM55.0966 69.5784C54.716 68.7973 54.2991 67.9394 53.8767 67.0808C50.7878 68.7289 49.6373 69.0907 46.1625 69.5966C43.7895 69.9391 41.4202 70.2764 39.059 70.6838C37.213 71.0078 35.3821 71.3712 33.4777 70.7625C33.6436 71.2191 33.924 71.6155 33.9012 71.9931C33.8737 72.4074 33.5637 72.7998 33.2766 73.417C40.9233 73.6824 48.2489 73.0187 55.0966 69.5784ZM53.5344 66.0251C53.0676 65.1521 52.6212 64.3221 52.2611 63.6503C50.5907 64.043 49.048 64.5185 47.4729 64.7535C43.839 65.3082 40.2122 65.8752 36.6283 66.713C35.6301 66.9445 34.5794 66.9791 33.5468 67.0304C33.335 67.0406 33.1122 66.7121 32.8973 66.5461C33.1142 66.3838 33.3131 66.1155 33.5519 66.0742C34.4293 65.9078 35.3381 65.901 36.2008 65.6923C39.958 64.7847 43.7721 64.1957 47.5938 63.6365C49.0193 63.4225 50.4127 62.9652 51.8954 62.5973C51.5229 61.1946 51.1852 59.9463 50.8225 58.5796C49.6058 59.8349 48.1784 60.3772 46.6766 60.8032C45.4616 61.1509 44.2793 61.5807 43.0636 61.9341C42.2493 62.1692 41.4153 62.468 40.5809 62.5017C38.6171 62.577 36.6483 62.5566 34.6844 62.4763C33.8014 62.4403 32.9274 62.1777 32.0451 62.0236C32.2609 63.5242 32.4787 65.0539 32.6976 66.5751C32.8678 67.7585 33.0412 68.9395 33.2087 70.0995C33.6605 70.0598 34.0025 70.0232 34.3479 70.0043C35.416 69.9461 36.5004 69.985 37.5544 69.8356C39.3459 69.5766 41.1096 69.1757 42.8966 68.8844C44.5977 68.6109 46.3229 68.4414 48.0244 68.1651C49.9679 67.845 51.7382 67.0357 53.5344 66.0251ZM51.1282 50.6873C52.833 47.927 53.6294 44.9688 53.1179 41.7383C52.5586 38.2076 51.0279 35.3933 47.372 34.2417C47.2558 34.2037 47.1491 34.115 47.0385 34.1007C46.8766 34.0827 46.6767 34.0685 46.5544 34.1449C45.6524 34.703 44.7933 35.3301 43.866 35.8388C42.7674 36.4465 41.6318 36.9832 40.487 37.5014C39.8406 37.7985 39.2482 37.6097 38.7983 37.0531C38.0866 36.1572 37.5955 35.16 37.4762 34.0062C37.4324 33.5192 37.4087 33.032 37.369 32.4908C36.5205 32.5889 35.699 32.679 34.9236 32.7692C34.6378 33.891 34.39 34.9629 34.0842 36.0158C33.0719 39.5081 32.0125 42.9857 31.0144 46.4799C30.6787 47.6529 30.2954 48.8601 30.2641 50.0637C30.2266 51.5172 30.5308 52.9802 30.6915 54.5054C31.7208 54.0329 32.6471 53.622 33.5638 53.1954C33.7603 53.1026 33.9434 52.9562 34.1142 52.8168C35.7801 51.4752 37.3952 50.081 38.8984 48.5484C41.2434 46.1646 42.7213 43.3981 43.0984 40.0487C43.1366 39.7077 43.063 39.2054 43.5752 39.234C43.7096 39.2427 43.9303 39.8331 43.9004 40.1319C43.6907 42.6527 42.8719 44.9796 41.3427 46.9815C38.6907 50.4498 35.3887 53.1915 31.615 55.345C30.8653 55.7729 30.0155 56.0149 29.2304 56.3374C29.1944 57.8459 29.154 59.3884 29.1171 61.038C30.3841 60.9131 31.6053 60.7852 32.8318 60.6609C37.163 60.2193 41.3197 59.2306 45.0191 56.7591C47.4541 55.1305 49.5726 53.2075 51.1282 50.6873ZM50.4798 57.7053C50.2277 56.4421 49.9811 55.2027 49.7203 53.8952C45.3337 58.5664 39.8125 60.7943 33.5737 61.4569C38.2986 62.7002 47.6095 60.4076 50.4798 57.7053ZM52.8772 22.6159C53.8538 20.4506 54.31 18.2094 54.2084 15.7782C54.0146 10.9775 50.1424 7.4347 46.6483 6.34722C44.06 5.5437 41.4266 4.7315 38.5981 5.43319C37.6186 5.67581 36.4959 5.46475 35.4582 5.33097C33.6786 5.09574 31.9132 4.83929 30.1236 5.26279C29.0238 5.5216 28.3486 6.19831 28.0537 7.27856C27.5595 9.09976 28.6066 10.9929 30.5156 11.6108C32.4692 12.2403 34.4209 12.2585 36.3522 11.4296C37.3675 10.9985 37.6918 11.2334 37.7212 12.3237C37.7549 13.8729 38.3179 14.715 39.808 15.1838C41.6983 15.7907 43.595 15.8335 45.475 15.0441C46.5046 14.6149 46.7983 14.8401 46.8476 15.933C46.8922 16.9734 46.9069 18.0215 47.0777 19.0437C47.2058 19.8384 47.5542 20.6009 47.7964 21.3383C48.4633 20.9718 48.9693 20.6018 49.5306 20.4062C50.7011 20.0008 51.5218 20.588 51.5585 21.8234C51.5707 22.2428 51.5125 22.6936 51.3646 23.0809C51.0712 23.8587 50.6936 24.5969 50.2999 25.4597C51.3625 24.6168 52.3447 23.7952 52.8772 22.6159ZM50.2879 23.5185C50.5224 23.0184 50.63 22.43 50.6765 21.8682C50.7274 21.2724 50.399 21.0254 49.8252 21.2281C49.3963 21.3803 49.0158 21.6713 48.6238 21.9177C48.3071 22.116 48.0017 22.3389 47.7642 22.5043C45.9175 20.6435 46.017 18.2844 45.8423 15.9734C43.6545 16.8471 41.5276 16.8236 39.4269 16.106C37.865 15.5674 36.8256 14.5313 36.7576 12.7557C36.7531 12.6572 36.7194 12.5606 36.6978 12.4598C35.9185 12.6475 35.2212 12.892 34.5043 12.9753C33.7584 13.0607 33.0001 13.0177 32.2547 12.9649C31.8177 12.9344 31.7441 13.1699 31.6581 13.4788C30.9933 15.7737 30.7116 18.1151 30.7499 20.5007C30.7811 22.3147 31.2397 24.0109 32.3891 25.4013C33.5734 26.8337 35.0285 27.7534 37.0503 27.4521C38.4927 27.2403 38.9616 27.8282 38.7302 29.2654C38.5421 30.4113 38.2123 31.5389 38.1561 32.6903C38.0866 33.9667 38.4325 35.1959 39.2385 36.2538C39.5596 36.6699 39.8712 36.7562 40.3874 36.5979C42.568 35.9136 44.2708 34.3981 46.1782 33.2404C46.3242 33.1584 46.4123 32.8325 46.3911 32.6396C46.2757 31.5006 46.0985 30.3711 45.9831 29.2321C45.9576 28.9608 46.0054 28.5894 46.1739 28.4007C46.7682 27.7251 47.3726 27.0393 48.0729 26.4811C49.0815 25.6773 49.7535 24.6457 50.2879 23.5185ZM32.3984 72.9637C32.442 72.8713 32.4501 72.7196 32.4104 72.6251C31.9056 71.4879 31.4282 70.3398 30.8645 69.2353C30.6755 68.8679 30.311 68.5212 29.9431 68.3123C29.2008 67.8996 28.698 68.2671 28.6933 69.1311C28.688 69.8423 29.0122 70.6364 28.2068 71.1608C28.0372 71.2687 27.8644 71.5807 27.7649 71.5477C27.5677 71.4906 27.3834 71.2881 27.2696 71.0976C26.9807 70.6108 26.7964 70.0509 26.4531 69.6061C25.7032 68.6274 24.9277 68.7177 24.5609 69.8866C24.2752 70.7836 24.2526 71.7635 24.0685 72.6995C24.0121 72.9805 23.8073 73.2279 23.6694 73.4925C23.4748 73.3031 23.2183 73.1461 23.0891 72.9191C22.7827 72.3896 22.5985 71.7837 22.2466 71.2944C21.8844 70.7953 21.4198 70.352 20.9363 69.9669C20.5557 69.6555 20.1613 69.7632 19.8244 70.1636C19.1213 70.9895 18.9189 71.9779 18.8468 73.0062C18.8371 73.149 19.0409 73.3338 19.1844 73.4503C19.704 73.8689 20.2666 74.2441 20.7791 74.6733C21.9503 75.6486 23.104 76.6476 24.2861 77.6503C26.2631 76.199 28.3312 75.2032 30.8177 76.1925C31.3613 75.0838 31.8866 74.0275 32.3984 72.9637ZM30.4971 77.0475C30.2615 76.9672 30.0653 76.9015 29.9086 76.8506C29.6712 77.9987 29.45 79.0885 29.2267 80.1722C29.2649 80.1887 29.3016 80.202 29.3368 80.2124C29.7205 79.181 30.0996 78.1405 30.4971 77.0475ZM32.1884 69.6077C31.81 66.9765 31.4373 64.3461 31.0548 61.6798C30.2888 61.7193 29.6065 61.7351 28.9206 61.8023C28.3896 61.852 28.1432 62.2209 28.1985 62.7756C28.3331 63.9516 28.4639 65.128 28.5908 66.3049C28.6296 66.6596 28.6653 67.0159 28.698 67.3736C30.6267 67.0113 31.4472 68.2036 32.1884 69.6077ZM28.0989 81.3411C28.4196 79.8376 28.7471 78.3033 29.1003 76.6368C28.4322 76.7217 27.9061 76.7864 27.5218 76.831C27.4279 77.8277 27.4866 78.6912 27.2485 79.4647C26.9368 80.4966 27.4661 80.9511 28.0989 81.3411ZM29.4358 55.1015C29.7623 55.0283 29.8325 54.8414 29.7873 54.5214C29.3262 51.1013 28.959 47.6675 28.3918 44.2655C27.8877 41.2232 27.4124 38.1818 27.2981 35.0889C27.2378 33.545 27.1229 31.9997 27.0341 30.3858C25.9827 30.6278 25.0586 30.843 24.2275 31.0298C24.4179 32.3023 24.6052 33.4649 24.757 34.6345C24.8987 35.6817 24.9573 36.747 25.1241 37.8003C25.4819 40.0772 26.0064 42.3353 26.2383 44.6276C26.5498 47.6883 26.6389 50.775 26.8329 53.8522C26.8644 54.4126 26.9101 54.9747 26.9603 55.6585C27.8627 55.4549 28.6495 55.2768 29.4358 55.1015ZM26.3798 79.8311C26.506 78.853 26.6079 78.0621 26.726 77.1463C26.0747 77.5033 25.5013 77.8156 24.8447 78.169C25.3852 78.7604 25.8304 79.2415 26.3798 79.8311ZM27.5654 69.4958C28.0394 66.9601 27.4379 64.6288 27.2007 62.2435C25.5527 62.3509 23.9809 62.448 22.374 62.5492C22.8627 64.72 23.3555 66.9038 23.8523 69.1007C24.7028 67.7577 26.0198 67.6019 27.5654 69.4958ZM29.7918 47.0428C31.2466 42.3768 32.7111 37.6574 34.1878 32.9107C31.8943 32.883 30.1666 34.2339 28.2381 35.0862C28.1623 39.1604 29.2267 43.1107 29.7918 47.0428ZM28.0435 61.0494C28.0996 61.0393 28.1508 60.9998 28.1902 60.9847C28.2804 59.5697 28.3688 58.1688 28.4647 56.6652C27.4044 56.6178 26.3979 56.6005 25.397 56.5175C24.7728 56.463 24.1567 56.3461 23.5491 56.2072C22.993 56.0721 22.4521 55.864 21.8949 55.7144C21.811 55.6949 21.6496 55.8067 21.5911 55.9029C21.1875 56.5512 21.8137 56.7242 22.1313 57.0331C22.4124 57.3115 23.0555 57.4204 22.8088 57.9477C22.703 58.1646 22.1233 58.1677 21.7568 58.2386C20.8069 58.4303 19.8326 58.5208 18.9199 58.8268C18.2571 59.0497 18.1686 59.6465 18.6556 60.1387C19.0183 60.4996 19.4671 60.886 19.9397 60.9989C21.2 61.3055 22.3632 61.8734 23.8256 61.6181C25.2033 61.372 26.6496 61.3539 28.0435 61.0494ZM23.6254 55.191C24.4007 55.3025 25.1847 55.392 26.0012 55.4973C25.9733 54.998 25.9462 54.493 25.9198 53.9824C25.7399 50.907 25.7243 47.8095 25.345 44.7603C24.8479 40.7477 24.0304 36.7831 23.7887 32.7342C23.7615 32.2523 23.6438 31.7788 23.5573 31.2201C21.8169 31.7537 20.157 32.266 18.5124 32.7716C18.6814 33.1594 18.9151 33.5152 18.9874 33.8934C19.2556 35.2336 19.5642 36.5733 19.6922 37.9271C19.918 40.2446 19.9281 42.5805 20.1804 44.8928C20.5137 47.9188 21.0051 50.9248 21.3771 53.9414C21.4563 54.6231 21.633 54.9745 22.3658 54.9681C22.7814 54.964 23.2016 55.1248 23.6254 55.191ZM22.9192 70.9287C23.0562 70.7821 23.0674 70.7403 23.0604 70.7048C22.5142 68.0116 21.9801 65.3142 21.4108 62.621C21.3742 62.4577 21.1058 62.2819 20.9089 62.2219C19.7502 61.865 18.5225 61.6404 17.8077 60.4559C17.7547 60.4798 17.7007 60.5036 17.6458 60.5273C17.9709 63.8174 18.2985 67.1107 18.6349 70.5146C18.7786 70.317 18.8463 70.2162 18.9158 70.1243C19.8177 68.7851 20.6478 68.65 21.8991 69.6529C22.1497 69.8553 22.3689 70.0997 22.5782 70.3544C22.7211 70.5198 22.8118 70.7333 22.9192 70.9287ZM26.9327 29.6522C26.8009 28.6409 26.6725 27.6242 26.5356 26.5402C25.2613 26.8341 24.0907 27.0838 22.9344 27.3786C21.7909 27.6635 20.6758 28.0413 19.5243 28.2993C18.2425 28.5836 16.9433 28.8023 15.6459 29.0068C15.2198 29.07 14.7745 28.9924 14.2753 28.9742C14.4707 30.0744 14.6532 31.0952 14.841 32.1425C16.5804 32.2429 18.2249 32.0284 19.8477 31.4911C22.1513 30.7246 24.4449 29.9021 26.9327 29.6522ZM26.4261 25.6239C26.3228 24.6365 26.2227 23.6696 26.1168 22.6356C24.8116 23.0121 23.5426 23.3096 22.3223 23.7431C19.8722 24.6175 17.3965 25.3099 14.772 25.2338C14.4561 25.2248 14.1399 25.2186 13.7666 25.2079C13.8987 26.2395 14.0223 27.2036 14.1651 28.3086C15.3584 28.1743 16.4977 28.1453 17.5928 27.9003C19.5537 27.4672 21.4882 26.9039 23.4356 26.397C24.4109 26.1423 25.3944 25.8915 26.4261 25.6239ZM26.0584 21.6799C25.6609 19.1529 25.887 16.5276 25.4476 13.7876C24.4635 14.2228 23.5983 14.5176 22.8229 14.9652C20.5835 16.2617 18.1811 16.9001 15.6169 17.0047C14.6116 17.0451 13.6001 17.0213 12.5705 17.0269C12.9584 19.4951 13.3519 21.9639 13.7503 24.4622C15.7259 24.5642 17.6766 24.2998 19.5713 23.7544C21.7177 23.1348 23.8277 22.3952 26.0584 21.6799ZM20.9517 57.397C20.7963 56.7688 20.6188 56.2012 20.5349 55.6226C20.4702 55.2079 20.5818 54.7669 20.5292 54.3479C20.2141 51.9411 19.8118 49.5402 19.5637 47.1276C19.2796 44.3241 19.1125 41.5069 18.9067 38.6991C18.7605 36.7262 18.5103 34.7773 17.9482 32.9006C16.9397 32.9204 15.9887 32.9419 15.0271 32.9563C15.0246 32.9761 15.002 33.0395 15.0089 33.098C15.4314 37.1971 15.8508 41.2987 16.267 45.4027C16.2884 45.6389 16.2162 45.8861 16.2376 46.1223C16.2687 46.5068 16.2803 46.9089 16.4297 47.2481C16.5056 47.4193 16.8617 47.4738 17.0997 47.5506C18.4952 48.0159 19.0809 49.3077 18.4671 50.6927C18.309 51.0469 18.3353 51.3126 18.4726 51.656C18.7911 52.4493 19.1024 53.2532 19.3272 54.0806C19.5977 55.0896 19.1481 56.1182 18.267 56.6704C18.0168 56.8226 17.7225 56.9143 17.4352 57.0415C17.4782 57.6466 17.5263 58.235 17.5831 58.9571C18.5034 57.6087 19.8201 57.545 20.9517 57.397ZM17.4377 56.1052C18.3138 55.7483 18.7081 55.1046 18.4694 54.2956C18.1921 53.3837 17.8254 52.4948 17.4608 51.612C17.3038 51.243 17.2918 50.9561 17.4921 50.5871C17.6721 50.2645 17.7647 49.8585 17.7779 49.4884C17.7903 48.9453 17.3359 48.5351 16.6518 48.3863C16.1842 48.2799 15.5889 48.2032 15.4435 48.7493C15.1156 49.9291 14.7797 51.1482 14.7417 52.3595C14.7081 53.4475 15.3876 54.3911 16.0604 55.2532C16.3719 55.6536 16.7083 55.8613 17.204 55.5707C17.2261 55.5562 17.2738 55.5883 17.3205 55.6059C17.3533 55.7542 17.391 55.9089 17.4377 56.1052ZM23.1995 13.6765C20.0424 11.9868 14.9704 12.9209 12.4611 16.154C16.3425 16.4065 19.9512 15.8458 23.1995 13.6765Z" fill="#2F3656"/>
<path d="M77.6819 87.6995C79.2818 88.39 79.2875 88.3907 78.8552 90.0671C78.7608 90.4412 78.6353 90.8112 78.4967 91.1709C77.6727 93.2993 76.8433 95.425 76.0085 97.5481C75.9706 97.6413 75.9139 97.7233 75.8189 97.9013C75.6103 94.2659 76.6474 90.9612 77.4253 87.5886C77.4993 87.6183 77.5916 87.6619 77.6819 87.6995Z" fill="#2F3656"/>
<path d="M69.6573 11.8387C71.1635 12.2952 72.4961 14.1646 71.5816 16.1161C70.9372 17.5144 70.077 18.7322 69.0798 19.8717C67.822 21.312 67.0211 22.9409 66.8449 24.8665C66.7894 25.4531 66.6535 26.0379 66.4938 26.6053C65.7331 29.3087 62.9515 30.4516 60.5904 28.9136C58.4228 27.5072 56.6424 25.7357 56.015 23.0465C55.7509 21.9201 55.2456 20.8548 54.9131 19.7456C54.808 19.3977 54.9064 18.9925 54.9093 18.6124C55.0784 15.9596 55.0542 13.3308 53.6048 10.9593C53.4984 10.7861 53.3866 10.617 53.2695 10.452C52.6481 9.59373 52.6828 9.07941 53.5132 8.33913C55.4579 6.6012 57.6919 6.15142 60.1493 6.964C61.2219 7.31846 62.2386 7.81558 63.0086 8.66134C64.4321 10.2283 66.2419 11.0121 68.253 11.4415C68.7278 11.5373 69.1937 11.7011 69.6573 11.8387Z" fill="#2F3656"/>
<path d="M53.8767 67.0809C54.2992 67.9395 54.7161 68.7974 55.0967 69.5785C48.249 73.0188 40.9234 73.6825 33.2767 73.4171C33.5638 72.7999 33.8738 72.4075 33.9013 71.9931C33.9241 71.6156 33.6437 71.2192 33.4778 70.7626C35.3822 71.3713 37.2131 71.0079 39.0591 70.6839C41.4203 70.2765 43.7896 69.9392 46.1625 69.5967C49.6374 69.0908 50.7879 68.729 53.8767 67.0809Z" fill="#2F3656"/>
<path d="M53.1181 41.7383C53.6296 44.9688 52.8332 47.927 51.1284 50.6873C49.5728 53.2075 47.4544 55.1305 45.0194 56.7591C41.3199 59.2305 37.1632 60.2192 32.8321 60.6609C31.6055 60.7852 30.3843 60.9131 29.1174 61.0379C29.1542 59.3883 29.1946 57.8458 29.2306 56.3373C30.0158 56.0149 30.8655 55.7728 31.6153 55.345C35.389 53.1915 38.6909 50.4498 41.3429 46.9815C42.8721 44.9796 43.6909 42.6527 43.9006 40.1319C43.9305 39.8331 43.7098 39.2426 43.5754 39.234C43.0632 39.2054 43.1368 39.7077 43.0986 40.0486C42.7215 43.3981 41.2436 46.1646 38.8986 48.5484C37.3954 50.081 35.7803 51.4752 34.1144 52.8168C33.9437 52.9561 33.7605 53.1026 33.5641 53.1954C32.6473 53.6219 31.721 54.0328 30.6917 54.5054C30.5281 52.9798 30.2268 51.5171 30.2643 50.0636C30.2956 48.86 30.6789 47.6528 31.0146 46.4799C32.0128 42.9857 33.0722 39.5081 34.0845 36.0158C34.3903 34.9629 34.638 33.8909 34.9239 32.7692C35.6993 32.6789 36.5208 32.5889 37.3692 32.4908C37.409 33.032 37.4326 33.5192 37.4765 34.0062C37.5957 35.16 38.0868 36.1571 38.7985 37.053C39.2484 37.6096 39.838 37.7981 40.4873 37.5013C41.632 36.9832 42.7676 36.4465 43.8662 35.8388C44.7936 35.3301 45.6526 34.703 46.5546 34.1449C46.6769 34.0684 46.8768 34.0827 47.0388 34.1007C47.1493 34.1149 47.2561 34.2036 47.3722 34.2417C51.0281 35.3932 52.5588 38.2076 53.1181 41.7383Z" fill="#6CC2F4"/>
<path d="M50.8224 58.5798C51.1852 59.9466 51.5228 61.1949 51.8954 62.5975C50.4126 62.9654 49.0192 63.4227 47.5938 63.6367C43.772 64.1959 39.9579 64.7849 36.2007 65.6926C35.338 65.9012 34.4293 65.908 33.5518 66.0744C33.313 66.1157 33.1142 66.384 32.8973 66.5463L32.6975 66.5753C32.4786 65.0541 32.2608 63.5244 32.0451 62.0238C32.9273 62.1779 33.8013 62.4405 34.6844 62.4766C36.6487 62.554 38.6171 62.5772 40.5809 62.5019C41.4153 62.4682 42.2493 62.1694 43.0635 61.9343C44.2792 61.5809 45.4616 61.1512 46.6765 60.8034C48.1783 60.3774 49.6057 59.8352 50.8224 58.5798Z" fill="#2F3656"/>
<path d="M54.2086 15.7783C54.3101 18.2096 53.854 20.4507 52.8773 22.6161C52.3448 23.7954 51.3627 24.617 50.3 25.4599C50.6938 24.597 51.0714 23.8589 51.3648 23.0811C51.5127 22.6938 51.5708 22.243 51.5586 21.8235C51.5219 20.5881 50.7013 20.001 49.5307 20.4063C48.9694 20.602 48.4635 20.9719 47.7966 21.3384C47.5544 20.6011 47.206 19.8385 47.0779 19.0438C46.9071 18.0217 46.8923 16.9736 46.8478 15.9331C46.7985 14.8402 46.5047 14.615 45.4752 15.0443C43.5952 15.8337 41.6985 15.7909 39.8082 15.184C38.3181 14.7152 37.7551 13.873 37.7214 12.3239C37.6919 11.2335 37.3677 10.9986 36.3524 11.4297C34.4211 12.2586 32.4694 12.2404 30.5157 11.6109C28.6067 10.993 27.5596 9.09989 28.0538 7.27869C28.3488 6.19845 29.024 5.52174 30.1237 5.26292C31.9134 4.83943 33.6788 5.09587 35.4584 5.3311C36.496 5.46489 37.6188 5.67594 38.5983 5.43332C41.4268 4.73163 44.0601 5.54384 46.6485 6.34736C50.1426 7.43484 54.0148 10.9777 54.2086 15.7783Z" fill="#2F3656"/>
<path d="M39.6335 108.14C39.8071 108.358 39.949 108.598 40.1475 108.892C36.1793 109.536 32.4718 108.248 28.6787 107.981C28.669 107.878 28.6629 107.776 28.6604 107.676C29.6772 107.501 30.6895 107.318 31.7155 107.162C32.1298 107.1 32.568 107.033 32.8766 107.456C32.9153 107.513 33.0205 107.546 33.0942 107.556C34.4867 107.709 36.8952 107.784 38.2899 107.92C38.4405 107.937 38.6387 107.919 38.7568 107.83C38.8457 107.767 38.9233 107.679 38.9981 107.591C39.3582 107.548 39.4589 107.907 39.6335 108.14Z" fill="#2F3656"/>
<path d="M39.2122 107.318C39.1398 107.403 39.0685 107.494 38.9984 107.59C38.944 107.595 38.8836 107.609 38.8171 107.633C38.7812 107.643 38.5269 107.314 38.531 107.147C38.5327 107.089 38.5372 107.032 38.5445 106.976C38.5936 106.982 38.6409 106.988 38.6862 106.994C38.8705 107.018 39.0368 107.203 39.2122 107.318Z" fill="#2F3656"/>
<path d="M44.1847 21.3628C45.6169 21.5879 46.3935 22.4719 46.2232 23.6807C46.0528 24.8461 45.0162 25.6434 43.8783 25.4823C42.7157 25.3122 42.0735 24.4138 42.2403 23.1873C42.4059 21.9924 43.239 21.2092 44.1847 21.3628Z" fill="#ECF0F4"/>
<path d="M40.8564 17.3365C41.5538 17.4264 41.9918 18.1198 41.8755 18.9551C41.7335 19.9225 41.1631 20.5233 40.4778 20.4292C39.7701 20.3293 39.3616 19.631 39.492 18.7313C39.6344 17.7611 40.1363 17.2436 40.8564 17.3365Z" fill="#2F3656"/>
<path fill-rule="evenodd" clip-rule="evenodd" d="M38.7305 24.9944C38.9377 25.511 38.2755 26.3768 37.6768 26.6166C36.6094 27.0496 35.0129 26.668 34.2603 25.7985C34.1986 25.7185 34.1305 25.6435 34.0815 25.5536C33.7176 24.9561 33.592 24.254 33.9954 23.7181C34.2053 23.431 34.8328 23.46 35.2739 23.3468C35.2778 23.4357 35.2847 23.524 35.2945 23.6118C36.0968 23.7152 36.9322 23.7192 37.6903 23.9639C38.1146 24.0935 38.5548 24.5682 38.7305 24.9944ZM37.8428 24.7704C37.2617 24.6955 36.7357 24.6392 36.2184 24.5609C35.7156 24.4817 35.2132 24.3766 34.6928 24.2778C34.7231 25.1377 35.2025 25.6001 36.1028 25.7479C37.1421 25.9136 37.5215 25.7204 37.8428 24.7704Z" fill="#2F3656"/>
<path d="M29.9086 76.8506C30.0653 76.9015 30.2615 76.9672 30.4971 77.0475C30.0997 78.1405 29.7205 79.181 29.3368 80.2124C29.3016 80.2021 29.2649 80.1887 29.2267 80.1722C29.45 79.0885 29.6712 77.9988 29.9086 76.8506Z" fill="#2F3656"/>
<path d="M29.1005 76.6368C28.7472 78.3033 28.4197 79.8375 28.0991 81.341C27.4663 80.9511 26.9369 80.4966 27.2487 79.4646C27.4867 78.6912 27.428 77.8276 27.5219 76.831C27.9062 76.7864 28.4324 76.7217 29.1005 76.6368Z" fill="#2F3656"/>
<path d="M35.5721 21.8171C35.7293 21.9613 35.7904 22.2026 35.8974 22.4009C35.6886 22.4777 35.4213 22.6738 35.2801 22.6066C34.8441 22.389 34.3898 22.1344 34.0483 21.7878C33.6998 21.4287 33.8415 20.9772 34.1864 20.6498C34.5069 20.3395 34.8507 20.0572 35.2179 19.8029C35.3533 19.7137 35.5804 19.7632 35.7666 19.7497C35.7722 19.9522 35.8562 20.2167 35.7614 20.3485C35.5186 20.689 35.1935 20.9757 34.8268 21.3607C35.108 21.5267 35.3767 21.6334 35.5721 21.8171Z" fill="#2F3656"/>
<path d="M34.6889 17.4898C34.5216 17.8486 34.434 18.1256 34.2799 18.3593C33.9712 18.8095 33.5527 19.1043 32.9868 18.9333C32.4095 18.7609 32.3374 18.2472 32.3504 17.7445C32.3548 17.4194 32.3665 17.0606 32.5079 16.7906C32.6775 16.4811 32.9752 16.0727 33.2501 16.0419C33.5803 16.0066 34.0183 16.2533 34.2729 16.5138C34.512 16.7608 34.5695 17.1862 34.6889 17.4898Z" fill="#2F3656"/>
<path d="M26.726 77.1466C26.6079 78.0623 26.5059 78.8533 26.3798 79.8314C25.8304 79.2417 25.3852 78.7607 24.8446 78.1693C25.5012 77.8159 26.0747 77.5036 26.726 77.1466Z" fill="#2F3656"/>
<path d="M34.1877 32.9109C32.711 37.6576 31.2465 42.377 29.7917 47.043C29.2266 43.1109 28.1623 39.1606 28.238 35.0864C30.1665 34.2341 31.8942 32.8832 34.1877 32.9109Z" fill="#6CC2F4"/>
</svg>
