<svg width="244" height="292" viewBox="0 0 244 292" fill="none" xmlns="http://www.w3.org/2000/svg">
<path d="M17.5856 66.0825C17.5894 66.09 17.5931 66.0976 17.5969 66.1052C17.7562 66.0597 17.9231 66.0104 18.0976 65.9573C17.9269 66.0028 17.7562 66.0445 17.5856 66.0825Z" fill="#2F3656"/>
<path d="M23.6909 46.0961C24.0664 45.8496 24.423 45.5613 24.7606 45.2313C24.2978 45.383 23.9413 45.6713 23.6909 46.0961Z" fill="#2F3656"/>
<path fill-rule="evenodd" clip-rule="evenodd" d="M104.626 23.1894C107.67 25.8542 107.597 28.0483 104.437 30.8685C103.795 31.4367 103.076 31.9328 102.341 32.369C101.328 32.9763 100.603 32.7327 100.463 31.5727C100.119 28.5818 98.0923 27.3405 95.5633 26.5515C93.5935 25.933 90.1605 27.4043 89.3029 29.2139C88.6461 30.6165 89.2321 34.0842 90.4377 35.1219C91.5958 36.1154 92.8333 37.0198 94.1139 37.8591C94.7127 38.2436 95.4838 38.4071 96.1952 38.5475C97.0466 38.7179 97.4957 39.2353 97.141 39.958C96.3979 41.4908 95.4908 42.9571 94.5893 44.4042C94.4496 44.6271 93.9749 44.7974 93.701 44.7463C90.6235 44.1581 87.451 43.8128 84.8669 41.7838C80.6734 38.5013 79.4744 32.9776 81.9085 28.1602C82.1433 27.6943 82.4228 27.2484 82.6853 26.7929C84.164 24.1107 86.1483 21.8381 89.0017 20.6507C94.1708 18.5168 100.544 19.6168 104.626 23.1894ZM105.044 27.7682C105.282 27.5118 105.391 26.8836 105.244 26.563C104.662 25.2439 103.85 24.0289 102.465 23.4494C100.627 22.6599 98.7753 21.7104 96.8243 21.3613C92.8464 20.6585 89.1715 21.4285 86.2673 24.5758C84.8054 26.1662 83.669 27.9331 82.918 29.967C81.4355 34.0012 82.6198 37.9711 86.0194 40.5545C88.1497 42.1814 90.7226 42.3777 93.1683 42.9895C93.3318 43.0275 93.6318 42.897 93.7278 42.7501C94.259 41.9942 94.7462 41.2074 95.1787 40.5351C93.3416 39.2964 91.6911 38.2214 90.0934 37.0644C87.9568 35.5069 86.7299 31.7766 87.4557 29.2112C88.2696 26.3369 92.7023 23.9695 95.7551 24.8638C98.701 25.7191 101.267 27.0578 102.01 30.7114C103.139 29.6311 104.146 28.7509 105.044 27.7682Z" fill="#2F3656"/>
<path d="M105.243 26.5628C105.39 26.8834 105.281 27.5116 105.043 27.7679C104.145 28.7507 103.138 29.6309 102.009 30.7112C101.266 27.0575 98.7002 25.7188 95.7542 24.8636C92.7015 23.9693 88.2688 26.3366 87.4549 29.2109C86.7291 31.7763 87.956 35.5067 90.0926 37.0642C91.6903 38.2211 93.3408 39.2961 95.1779 40.5349C94.7454 41.2072 94.2582 41.994 93.727 42.7498C93.631 42.8968 93.331 43.0273 93.1675 42.9892C90.7218 42.3774 88.1489 42.1812 86.0186 40.5542C82.619 37.9709 81.4347 34.001 82.9172 29.9668C83.6681 27.9328 84.8046 26.166 86.2664 24.5755C89.1707 21.4283 92.8456 20.6583 96.8235 21.361C98.7744 21.7101 100.627 22.6597 102.464 23.4492C103.85 24.0286 104.661 25.2436 105.243 26.5628Z" fill="#E9FF72"/>
<path fill-rule="evenodd" clip-rule="evenodd" d="M82.9664 50.5392C83.5157 51.7212 83.5941 52.716 82.5537 53.6728C80.1978 55.8493 77.887 58.0743 75.5082 60.2319C72.2706 63.1646 69.0047 66.0715 65.7106 68.9528C65.4713 69.1632 64.941 69.1667 64.5881 69.0868C64.2025 69.0051 63.8674 68.6995 63.5131 68.4953C63.4484 68.5554 63.3838 68.6156 63.3191 68.6757C63.2128 68.5807 63.1089 68.4815 63.0075 68.378C61.873 67.2071 60.7137 66.05 59.6295 64.8407C58.9488 64.0718 59.4826 63.4579 60.11 62.9543C61.5886 61.7443 63.028 60.4949 64.5624 59.3732C65.4924 58.6956 65.5709 58.0721 65.0032 57.1267C64.0267 55.5356 63.9719 55.504 62.2055 56.0142C59.7307 56.7267 57.2443 57.4007 54.7464 58.0363C52.7421 58.5499 52.3263 58.3158 51.3228 56.518C51.2304 56.3599 51.1399 56.1953 51.0511 56.0243C49.9127 53.671 50.0515 53.3521 52.5326 52.5963C58.2147 50.8593 63.8927 49.0805 69.5922 47.3815C72.7913 46.4328 76.0171 45.6231 79.225 44.7469C80.2581 44.4658 80.7983 44.8446 81.1386 45.8724C81.6665 47.4523 82.2626 49.0209 82.9664 50.5392ZM81.2371 53.1105C81.8211 52.6043 81.8921 52.1788 81.5559 51.485C80.7517 49.8582 80.0551 48.1811 79.2342 46.32C70.3951 48.8839 61.31 51.514 52.249 54.1411C52.7733 56.663 53.1552 56.9168 55.3573 56.3037C57.9149 55.5809 60.4516 54.8066 63.0229 54.1478C63.5566 54.0115 64.4368 54.0637 64.7374 54.4C65.5632 55.2974 66.2422 56.3519 66.8112 57.4216C67.3166 58.3872 67.0766 59.2716 66.165 60.0049C64.5109 61.344 62.9037 62.7383 61.1602 64.2226C62.299 65.4185 63.4123 66.5904 64.5002 67.7381C65.7847 66.5624 66.8587 65.5182 67.9831 64.5423C72.3863 60.712 76.8043 56.9014 81.2371 53.1105Z" fill="#17594B"/>
<path fill-rule="evenodd" clip-rule="evenodd" d="M81.5545 51.4852C81.8907 52.1791 81.8196 52.6045 81.2356 53.1108C76.8028 56.9016 72.3848 60.7122 67.9817 64.5426C66.8572 65.5184 65.7833 66.5627 64.4987 67.7384C63.4109 66.5906 62.2976 65.4188 61.1588 64.2229C62.9022 62.7385 64.5095 61.3443 66.1636 60.0051C67.0752 59.2718 67.3152 58.3875 66.8098 57.4218C66.2407 56.3521 65.5617 55.2976 64.736 54.4002C64.4353 54.064 63.5551 54.0117 63.0214 54.148C60.4502 54.8068 57.9135 55.5811 55.3559 56.304C53.1538 56.9171 52.7719 56.6632 52.2476 54.1414C61.3085 51.5142 70.3937 48.8842 79.2328 46.3202C80.0537 48.1813 80.7502 49.8584 81.5545 51.4852ZM76.9153 53.2165C77.6415 52.6293 77.5637 51.9551 76.5702 51.3487C76.3107 51.3115 75.7986 51.1568 75.3016 51.1906C73.1778 51.3656 71.0598 51.5889 68.9443 51.808C68.1233 51.8967 67.607 52.4026 67.9078 53.1773C68.5027 54.7676 69.1567 56.3528 69.9784 57.8323C70.3983 58.5856 71.0873 58.2579 71.6414 57.667C72.4538 56.8035 73.2976 55.9637 74.2086 55.2021C75.0585 54.4782 76.0473 53.9131 76.9153 53.2165Z" fill="#0F4B3E"/>
<path fill-rule="evenodd" clip-rule="evenodd" d="M76.5718 51.3481C77.5653 51.9545 77.6431 52.6287 76.9168 53.2159C76.0489 53.9125 75.0601 54.4776 74.2102 55.2015C73.2991 55.9631 72.4554 56.8029 71.643 57.6664C71.0889 58.2573 70.3999 58.585 69.98 57.8317C69.1583 56.3522 68.5042 54.767 67.9093 53.1767C67.6085 52.402 68.1249 51.8961 68.9459 51.8074C71.0614 51.5883 73.1817 51.3608 75.3031 51.19C75.8002 51.1562 76.3123 51.3109 76.5718 51.3481ZM70.5751 55.9608C71.8742 54.9451 73.0619 54.0058 74.5341 52.8652C72.618 53.0699 71.0177 53.2433 69.2332 53.434C69.7537 54.4028 70.1734 55.1954 70.5751 55.9608Z" fill="#266255"/>
<path fill-rule="evenodd" clip-rule="evenodd" d="M73.4072 30.7117C76.9819 32.9913 77.3425 38.4195 74.0805 41.31C71.3742 43.6947 68.156 45.2224 64.5389 45.3851C62.0718 45.5027 59.5422 45.2021 57.0915 44.7841C55.2087 44.463 54.8566 43.8162 54.8047 41.8982C54.6338 36.1018 54.5372 30.3032 54.3531 24.5104C54.2984 22.8212 54.0252 21.1409 53.8787 19.455C53.8614 19.2315 53.9726 18.9023 54.1386 18.7507C54.9087 18.0483 55.6173 17.1699 56.5428 16.7537C61.585 14.4793 66.6272 15.4414 70.5898 19.5631C72.5784 21.6309 72.4794 25.3219 70.721 27.573C70.3327 28.0647 69.9524 28.5554 69.5802 29.0452C70.9029 29.6165 72.2705 29.9834 73.4072 30.7117ZM72.8563 40.2559C75.4615 38.1051 75.305 33.7948 72.5892 32.1113C71.1836 31.245 69.6668 30.601 67.9215 30.7919C67.5857 30.8287 67.0424 30.6111 66.9117 30.3503C66.7871 30.0987 66.9588 29.5571 67.1778 29.2843C67.7935 28.5379 68.5278 27.8879 69.1562 27.1487C71.3355 24.567 71.076 21.4785 68.4312 19.3696C65.0267 16.6486 61.253 16.2153 57.244 17.8379C55.778 18.4314 55.4006 19.2422 55.6036 20.8202C55.7072 21.5242 55.7787 22.2322 55.8178 22.9441C56.0581 29.556 56.2869 36.178 56.5302 42.9209C58.9873 44.0394 61.8238 43.9831 64.6077 43.784C67.7142 43.5517 70.4775 42.2282 72.8563 40.2559Z" fill="#2F3656"/>
<path fill-rule="evenodd" clip-rule="evenodd" d="M72.5891 32.111C75.3049 33.7944 75.4614 38.1047 72.8562 40.2555C70.4775 42.2278 67.7141 43.5513 64.6076 43.7836C61.8238 43.9827 58.9873 44.0391 56.5302 42.9206C56.2868 36.1777 56.058 29.5556 55.8178 22.9438C55.7786 22.2319 55.7072 21.5239 55.6035 20.8198C55.4005 19.2418 55.778 18.4311 57.2439 17.8375C61.2529 16.215 65.0266 16.6482 68.4311 19.3692C71.0759 21.4782 71.3355 24.5666 69.1561 27.1483C68.5278 27.8875 67.7934 28.5375 67.1777 29.284C66.9587 29.5567 66.787 30.0983 66.9117 30.35C67.0423 30.6107 67.5856 30.8283 67.9215 30.7915C69.6667 30.6006 71.1835 31.2446 72.5891 32.111ZM65.3157 41.1124C66.8918 40.7959 67.8364 39.7614 68.0788 38.2491C68.2853 36.9745 67.7811 36.1725 66.2635 35.0618C64.8658 34.6888 63.4768 34.2422 62.0607 33.9597C60.9631 33.7484 60.4141 34.2524 60.4015 35.3465C60.3798 37.1097 60.4071 38.8561 60.4361 40.6092C60.4518 41.4106 60.8031 41.776 61.649 41.6343C62.8738 41.4299 64.1041 41.3524 65.3157 41.1124ZM63.7903 27.1572C64.9916 26.7595 65.9105 26.0136 66.0147 24.6239C66.1282 23.189 65.3624 22.2363 64.0697 21.418C62.751 20.7422 61.1792 20.5835 59.6502 21.0621C59.1237 21.2249 58.4241 22.0973 58.4657 22.6101C58.5852 24.2355 58.9783 25.8444 59.3594 27.4352C59.4187 27.7223 59.9769 28.1283 60.2223 28.0731C61.4321 27.8526 62.6214 27.5473 63.7903 27.1572Z" fill="#68DB4E"/>
<path fill-rule="evenodd" clip-rule="evenodd" d="M68.0793 38.2493C67.8369 39.7616 66.8922 40.7961 65.3161 41.1126C64.1045 41.3526 62.8742 41.4301 61.6494 41.6344C60.8035 41.7762 60.4522 41.4108 60.4365 40.6094C60.4075 38.8563 60.3802 37.1099 60.4019 35.3467C60.4145 34.2526 60.9635 33.7486 62.0611 33.9599C63.4773 34.2424 64.8663 34.689 66.264 35.062C67.7815 36.1727 68.2857 36.9747 68.0793 38.2493ZM65.2128 39.3617C65.8272 39.1146 66.3627 38.3612 66.6284 37.7052C66.735 37.452 66.0865 36.6567 65.632 36.4509C64.3274 35.8675 62.9467 35.465 61.4831 34.9528C61.6491 36.8973 61.7762 38.4315 61.9193 40.0256C63.0439 39.8197 64.2046 39.7751 65.2128 39.3617Z" fill="#2F3656"/>
<path fill-rule="evenodd" clip-rule="evenodd" d="M66.0145 24.6242C65.9102 26.0139 64.9914 26.7598 63.79 27.1575C62.6211 27.5476 61.4318 27.8529 60.2221 28.0734C59.9767 28.1286 59.4185 27.7226 59.3592 27.4355C58.9781 25.8448 58.585 24.2358 58.4655 22.6104C58.4239 22.0976 59.1234 21.2252 59.65 21.0624C61.1789 20.5838 62.7507 20.7425 64.0694 21.4183C65.3622 22.2366 66.128 23.1893 66.0145 24.6242ZM63.5437 25.5376C64.0132 25.3081 64.5999 24.7192 64.5978 24.3134C64.583 23.7541 64.1666 23.0533 63.6993 22.6941C62.4848 21.7693 61.0547 21.9789 60.1339 22.1336C60.3882 23.5446 60.6445 24.9229 60.9132 26.3871C61.7952 26.1144 62.7198 25.9337 63.5437 25.5376Z" fill="#2F3656"/>
<path fill-rule="evenodd" clip-rule="evenodd" d="M82.369 109.693C81.8302 110.09 81.2723 110.433 80.6954 110.721C83.7758 114.08 87.2007 117.007 90.7629 119.774C93.9078 122.221 97.5082 124.158 101.116 125.908C104.953 127.775 109.031 129.161 113.03 130.761C113.003 131.057 113.034 131.241 112.966 131.379C110.038 137.579 108.749 144.246 107.249 150.858C106.038 156.214 104.684 161.542 103.598 166.936C102.75 171.125 102.337 175.402 101.515 179.602C100.144 186.597 98.5158 193.544 97.1596 200.533C95.9883 206.584 95.0896 212.69 93.9543 218.743C92.7566 225.183 91.4162 231.595 90.1054 238.179C86.0452 238.418 81.8995 238.671 77.7622 238.903C76.9772 238.95 76.1511 238.81 75.4221 239.039C74.8864 239.198 74.2282 239.725 74.0939 240.229C73.9819 240.632 74.4858 241.318 74.8851 241.698C75.2728 242.092 75.839 242.331 76.3799 242.511C81.6781 244.324 86.9826 246.091 92.2818 247.917C95.1807 248.912 98.0596 249.972 100.938 251.001C101.469 251.207 101.995 251.424 102.525 251.63C105.719 252.822 106.567 252.371 107.343 249.084C107.483 248.491 107.709 247.925 107.854 247.334C108.121 246.283 108.509 245.604 109.843 245.899C110.179 245.979 110.907 245.338 111.101 244.87C112.173 242.374 113.18 239.852 114.122 237.304C119.393 222.966 124.67 208.63 129.889 194.27C130.738 191.932 131.314 189.497 132.016 187.1C132.16 186.618 132.316 186.136 132.543 185.399C133.289 186.384 133.853 187.21 134.51 187.957C140.105 194.252 146.026 200.206 153.682 204.06C160.753 207.631 167.965 210.94 175.643 213.025C179.391 214.041 183.206 214.813 187.016 215.584C188.337 215.849 189.738 215.963 191.065 215.832C196.45 215.315 201.862 214.869 207.191 213.987C210.51 213.44 213.655 212.045 215.926 209.307C216.325 208.817 216.528 208.157 216.895 207.422C217.9 209.062 218.904 210.763 219.968 212.438C221.615 215.015 223.245 217.604 224.975 220.11C225.579 220.989 226.414 221.997 227.687 221.465C228.992 220.915 228.786 219.607 228.705 218.477C228.665 217.873 228.533 217.269 228.353 216.676C226.937 211.991 225.498 207.316 224.076 202.616C223.357 200.233 222.712 197.83 221.955 195.45C221.142 192.857 220.075 192.246 217.421 192.784C214.81 193.32 212.199 193.844 209.635 194.553C207.724 195.087 205.923 196.051 204.016 196.575C199.338 197.835 194.707 197.128 190.166 195.795C183.942 193.967 178.13 191.31 173.111 187.083C169.989 184.456 167.751 181.121 165.266 177.958C160.425 171.786 157.276 164.723 154.086 157.656C150.868 150.522 148.518 143.086 146.764 135.509C145.515 130.161 145.06 124.636 144.247 119.194C144.17 118.728 144.056 118.247 143.835 117.865C143.19 116.767 142.473 115.726 141.898 114.834C142.085 114.076 142.398 113.386 142.427 112.687C142.523 109.765 142.537 106.836 142.588 103.829C143.177 104.334 143.773 104.879 144.407 105.378C147.084 107.479 150.279 106.447 151.237 103.196C151.813 101.22 151.819 101.235 153.842 101.432C154.795 101.523 155.753 101.604 156.717 101.675C161.717 101.966 165.691 98.3904 165.422 93.3804C165.245 90.0556 164.471 86.737 163.767 83.4586C163.442 81.9742 163.703 80.9083 164.805 79.9459C167.094 77.9758 169.042 75.8197 169.627 72.6714C170.28 69.1575 169.444 66.0534 167.257 63.3274C165.898 61.6379 164.367 60.0572 162.791 58.5441C160.306 56.134 158.616 53.313 158.396 49.8487C158.147 45.9681 156.27 42.9864 153.695 40.2952C151.177 37.6579 144.82 35.5062 140.461 38.2664C139.688 38.7597 138.826 39.1071 138.069 39.6195C135.716 41.2272 133.187 41.2386 130.509 40.7185C127.983 40.2164 125.43 39.6424 122.885 39.6168C119.716 39.5742 117.41 41.5379 116.017 44.1917C114.462 47.1297 116.656 52.4748 119.691 53.8792C120.403 54.2131 121.133 54.5481 121.883 54.7563C122.203 54.8437 122.501 54.9585 122.775 55.1008C124.4 55.831 125.342 57.2004 125.574 58.9479C126.072 62.8485 128.615 64.8096 131.875 66.1264C134.057 66.9993 136.315 67.7254 138.587 68.3585C141.159 69.0814 143.413 70.173 144.838 72.5693C145.994 74.5335 145.867 75.5551 144.453 77.238C143.169 78.7772 141.963 80.3966 140.786 82.0214C140.679 82.1665 140.582 82.3176 140.494 82.4746C140.299 82.856 140.137 83.2754 140.046 83.6864C139.356 86.4987 140.911 88.1565 143.765 87.7173C145.018 87.5262 146.253 87.2422 147.495 87.0775C150.379 86.6869 151.274 87.6949 150.007 90.2642C148.295 93.7156 146.018 96.6651 141.721 97.1274C140.122 97.2962 139.94 97.628 140.009 99.2793C140.205 103.607 140.399 107.927 140.589 112.239C140.605 112.583 140.572 112.925 140.572 113.231C136.984 112.353 133.467 111.418 129.914 110.664C126.379 109.911 122.798 109.349 119.062 108.669C119.352 107.792 119.561 107.147 119.792 106.51C120.706 103.996 121.665 101.505 122.523 98.9805C122.811 98.1522 122.926 97.2362 122.877 96.3646C122.857 95.9705 122.308 95.5489 121.908 95.2478C118.589 92.7615 115.172 90.3956 111.951 87.7709C110.572 86.6551 109.474 85.0945 108.492 83.5677C107.14 81.4947 107.018 79.2095 108.118 76.935C108.948 75.214 109.799 73.5016 110.7 71.6929C114.455 73.9183 117.557 73.1189 120.35 70.0268C121.755 71.2018 123.139 72.3683 124.577 73.5687C124.264 74.3505 123.87 75.0445 123.713 75.7904C122.786 80.1135 125.256 83.5104 130.043 84.5495C133.492 85.3042 136.837 84.1118 138.283 81.5531C138.374 81.377 138.461 81.1995 138.545 81.0206C138.958 80.0646 139.261 78.819 138.995 77.8607C138.494 75.9875 137.773 74.0994 136.745 72.4565C135.286 70.1447 130.583 69.4638 127.989 70.9383C127.275 71.345 126.597 71.8278 125.943 72.2524C124.4 70.9179 122.892 69.6161 121.289 68.233C121.84 66.2109 121.448 64.0989 120.103 62.2372C119.345 61.1922 119.571 60.5045 120.362 59.6752C121.083 58.9157 121.708 58.0568 122.265 57.1705C122.488 56.8123 122.395 56.2481 122.455 55.7759C122.003 55.9259 121.454 55.9512 121.134 56.2459C120.067 57.259 119.073 58.3629 118.063 59.4172C113.942 56.6835 110.414 58.3482 107.682 61.1952C105.41 63.5646 106.069 66.6349 109.244 70.2771C108.522 71.624 107.802 73.009 107.038 74.3824C104.22 79.4194 104.85 83.5874 109.231 88.1837C110.873 89.9134 112.88 91.3166 114.777 92.7928C116.655 94.2552 118.618 95.6288 120.752 97.1874L117.888 104.345C117.808 104.28 117.726 104.215 117.642 104.148C117.421 104.593 117.128 105.003 116.747 105.328C117.043 105.549 117.337 105.773 117.63 106L116.854 107.939C116.578 107.865 116.303 107.786 116.03 107.701C115.945 108.329 115.667 108.947 115.246 109.477C118.863 110.624 122.613 111.297 126.369 111.911C130.777 112.627 135.193 113.322 139.286 115.205C140.978 115.986 142.021 117.421 142.308 119.233C142.92 123.216 140.751 127.655 137.167 129.523C131.985 132.212 126.479 132.588 120.843 131.326C119.147 130.941 117.499 130.343 115.727 129.824C115.635 128.17 115.578 128.159 114.27 128.886C113.978 129.063 113.449 128.993 113.091 128.862C104.059 125.566 95.2105 121.922 88.1147 115.105C86.4214 113.472 84.467 112.077 82.9194 110.324C82.7335 110.115 82.55 109.905 82.369 109.693ZM142.749 100.884C142.339 100.439 142.068 99.8458 141.629 99.1495C147.219 98.12 151.493 94.1005 152.413 89.3516C152.49 88.9657 152.531 88.5776 152.536 88.1874C152.496 86.6639 151.691 85.582 150.2 85.249C148.27 84.8199 146.287 84.0019 144.492 85.6551C144.427 85.709 144.337 85.7523 144.255 85.7565C143.58 85.748 142.91 85.7349 142.243 85.7172C142.248 85.0146 142.24 84.3004 142.307 83.6106C142.328 83.3739 142.539 83.1394 142.708 82.9313C143.94 81.353 145.146 79.7462 146.436 78.2091C147.331 77.1517 148.008 76.4238 147.526 74.6256C146.376 70.2864 143.753 67.8213 139.606 66.5784C137.097 65.8322 134.63 64.9244 132.183 63.9944C129.74 63.0539 128.206 61.4352 127.752 58.6491C127.301 55.8884 125.746 53.7404 122.837 52.8769C122.133 52.6624 121.443 52.3495 120.776 52.0399C118.678 51.035 117.19 47.5103 117.918 45.3076C118.433 43.7303 121.206 41.5616 122.988 41.6252C124.942 41.6898 126.946 41.8422 128.829 42.3136C132.892 43.3388 136.709 43.2484 140.222 40.6709C140.524 40.4364 140.911 40.297 141.247 40.1005C144.333 38.2837 147.481 38.6115 150.355 40.3255C153.777 42.3565 155.968 45.4269 156.355 49.5283C156.755 53.7205 158.485 57.2072 161.555 60.1023C162.977 61.4495 164.313 62.9034 165.596 64.3848C168.991 68.3354 168.523 74.1598 164.774 77.3416C164.039 77.9543 163.346 78.6452 162.7 79.3551C161.761 80.3703 161.332 81.5651 161.674 82.9767C162.122 84.89 162.671 86.795 162.98 88.7326C163.262 90.6164 163.525 92.5477 163.392 94.443C163.168 97.6506 160.419 99.8658 157.183 99.7598C156.267 99.7202 155.354 99.6508 154.442 99.5513C150.828 99.178 150.614 99.3005 149.347 102.666C148.603 104.679 147.153 105.086 145.516 103.664C144.528 102.81 143.626 101.848 142.749 100.884ZM112.074 69.6382C113.972 67.2845 115.827 64.9752 117.725 62.6215C119.96 65.3053 120.065 67.4003 118.214 69.2088C116.318 71.0543 113.918 71.3076 112.074 69.6382ZM110.566 68.2445C108.425 66.444 108.036 64.015 109.601 62.3861C111.84 60.0525 114.904 59.532 116.313 61.2173C114.419 63.5477 112.519 65.876 110.566 68.2445ZM129.718 72.574C131.825 71.8727 134.514 72.826 135.744 74.7585C136.184 75.4572 136.571 76.1901 136.905 76.9572C137.868 79.1136 136.926 81.3163 134.72 82.2046C132.896 82.9333 131.071 83.006 129.886 82.4153C127.352 81.3522 125.796 80.2332 125.699 77.9332C125.59 75.555 127.244 73.3978 129.718 72.574ZM216.652 203.819C216.064 202.928 215.319 202.464 214.485 203.062C213.472 200.831 212.473 198.611 211.506 196.478C213.182 196.017 214.86 195.548 216.542 195.073C219.433 194.263 219.557 194.337 220.404 197.152C222.386 203.766 224.365 210.388 226.341 217.017C226.496 217.55 226.586 218.089 226.701 218.631L226.242 218.828C224.88 216.641 223.537 214.455 222.151 212.282C220.337 209.448 218.492 206.633 216.652 203.819ZM148.35 198.073C151.249 195.868 154.437 194.975 157.862 196.584C161.023 198.057 162.869 200.72 163.291 204.228C163.359 204.807 163.051 205.425 162.836 206.436C157.741 203.717 152.953 201.164 148.16 198.609C148.231 198.433 148.294 198.254 148.35 198.073ZM90.8775 240.186C91.5642 240.154 92.2858 240.48 92.9503 240.733C95.2164 241.64 97.4254 242.689 99.7253 243.481C102.025 244.273 104.409 244.81 106.808 245.475L104.908 250.224C96.0737 247.186 87.3219 244.186 78.5723 241.182C78.5899 241.107 78.6005 241.03 78.6041 240.949C82.698 240.688 86.7888 240.388 90.8775 240.186ZM105.484 168.824C106.189 169.008 106.91 169.18 107.621 169.379C113.849 171.111 120.072 172.859 126.29 174.624C126.73 174.751 127.235 175.082 127.461 175.466C128.584 177.485 129.667 179.524 130.671 181.61C131.015 182.312 131.409 183.272 131.198 183.923C128.808 191.044 126.372 198.158 123.826 205.24C121.761 210.953 119.5 216.605 117.396 222.307C114.818 229.285 112.301 236.281 109.781 243.282C109.473 244.146 109.041 244.304 108.207 244.031C106.718 243.54 105.192 243.143 103.686 242.694C101.3 241.966 98.8666 241.354 96.5731 240.424C95.0676 239.822 93.7767 238.729 92.2892 237.791C94.006 228.477 95.764 219.075 97.5146 209.616C98.5464 204.076 99.5809 198.519 100.618 192.945L101.485 193.292C104.805 194.688 105.734 202.291 103.232 204.746C101.852 206.112 100.283 207.292 98.829 208.597C98.5131 208.881 98.3398 209.345 98.1031 209.722C98.5563 209.922 99.0106 210.318 99.4448 210.29C100.025 210.265 100.648 209.993 101.136 209.661C105.447 206.607 107.618 202.928 106.409 197.572C105.711 194.523 104.468 192.176 101.309 191.371C102.705 183.841 104.089 176.385 105.484 168.824ZM108.311 154.715C122.727 159.883 137.288 160.004 152.382 157.918C152.613 158.598 152.791 159.331 153.09 160.008C156.056 166.686 159.154 173.294 163.712 179.101C166.254 182.336 168.52 185.768 171.714 188.461C177.172 193.059 183.509 195.938 190.318 197.835C194.783 199.082 199.325 199.705 203.918 198.565C205.817 198.093 207.668 197.479 209.442 196.951C211.278 200.856 213.134 204.793 215.01 208.763C211.834 210.452 208.367 212.135 204.483 212.621C201.055 213.027 197.624 213.468 194.182 213.647C191.489 213.777 188.711 213.842 186.093 213.34C181.504 212.466 176.97 211.27 172.493 209.945C169.743 209.145 167.132 207.861 164.591 206.844C164.78 205.989 165.066 205.276 165.095 204.558C165.253 200.565 161.246 195.462 157.369 194.462C153.74 193.531 150.521 194.363 147.546 196.439C146.824 196.941 146.362 196.946 145.755 196.335C142.758 193.335 139.614 190.471 136.777 187.332C135.279 185.685 134.439 183.449 133.047 181.691C130.964 179.086 129.618 176.14 128.382 173.102C128.178 172.585 127.726 172.153 127.381 171.684C126.971 172.004 126.561 172.324 126.024 172.747C119.358 170.754 112.553 168.723 105.673 166.681C106.574 162.562 107.429 158.694 108.311 154.715ZM113.895 133.485C114.152 132.81 114.495 132.169 114.796 131.523C116.774 132.094 118.569 132.647 120.389 133.136C125.641 134.575 130.826 133.837 135.868 132.233C139.271 131.156 141.7 128.684 143.298 125.334C144.47 136.019 147.514 146.146 151.384 156.201C148.482 156.486 145.654 156.984 142.837 157.009C138.134 157.076 133.415 156.818 128.695 156.731C122.187 156.639 115.989 154.974 109.867 152.984C109.303 152.801 108.822 152.67 109.014 151.84C110.469 145.675 111.6 139.418 113.895 133.485Z" fill="#2F3656"/>
<path fill-rule="evenodd" clip-rule="evenodd" d="M82.3693 109.693C82.5503 109.904 82.7337 110.115 82.9197 110.324C84.4673 112.077 86.4216 113.471 88.115 115.105C95.2108 121.921 104.06 125.566 113.091 128.861C113.449 128.992 113.979 129.063 114.27 128.886C115.578 128.159 115.635 128.17 115.727 129.824C117.499 130.343 119.147 130.941 120.844 131.326C126.479 132.588 131.985 132.211 137.167 129.523C140.752 127.655 142.92 123.215 142.308 119.232C142.022 117.42 140.978 115.986 139.287 115.205C135.193 113.322 130.777 112.627 126.369 111.911C120.882 111.015 115.401 110.01 110.344 107.564C104.003 104.482 97.8606 101.056 92.1983 96.921C92.1553 96.9978 92.1123 97.0745 92.0693 97.1513C92.0637 97.1654 92.0588 97.1777 92.0545 97.1883C91.7474 97.7517 91.4371 98.3077 91.1236 98.8564C91.0665 98.9684 91.0042 99.0783 90.9366 99.186C90.6653 99.6699 90.3864 100.142 90.0997 100.604C89.4797 101.622 88.8401 102.598 88.1807 103.531C88.0109 103.782 87.8355 104.026 87.6545 104.264C86.2217 106.191 84.7001 107.88 83.0783 109.162C82.8458 109.355 82.6095 109.532 82.3693 109.693ZM89.3853 102.359C90.0024 101.429 90.4071 100.708 90.9343 100.08C91.134 99.841 91.7616 99.6203 91.8937 99.7344C92.1514 99.9785 92.3955 100.487 92.3193 100.799C92.1196 101.59 91.8448 102.399 91.3809 103.053C91.1094 103.441 90.4205 103.539 89.9186 103.767C89.7222 103.247 89.5395 102.739 89.3853 102.359ZM89.2363 112.073C89.0039 111.888 89.0642 111.324 88.9501 110.69C89.9391 109.964 90.8868 109.234 91.8885 108.6C92.104 108.459 92.6376 108.581 92.834 108.763C93.02 108.942 93.1108 109.511 92.9745 109.684C92.2031 110.601 91.4053 111.507 90.5051 112.287C90.2885 112.476 89.5479 112.32 89.2363 112.073ZM97.5397 108.489C97.5694 107.803 97.7353 107.127 97.8802 106.199C98.2109 105.939 98.6251 105.516 99.1195 105.291C99.2812 105.209 99.951 105.74 99.9192 105.881C99.655 106.98 99.3189 108.055 98.911 109.105C98.8518 109.284 98.2464 109.434 98.0077 109.326C97.7731 109.208 97.5333 108.781 97.5397 108.489ZM98.4972 116.097C98.8395 115.272 99.3224 114.448 99.9279 113.808C100.297 113.422 101.022 113.37 101.586 113.172C101.717 113.733 101.848 114.294 101.945 114.756C101.237 115.759 100.762 116.593 100.103 117.261C99.8049 117.576 99.1457 117.539 98.6501 117.66C98.5836 117.137 98.326 116.525 98.4972 116.097ZM105.568 110.004C105.93 109.512 106.203 108.984 106.611 108.638C107.229 108.119 107.94 108.441 107.843 109.205C107.716 110.318 107.404 111.419 107.068 112.504C106.983 112.776 106.413 113.161 106.218 113.095C105.88 112.96 105.46 112.541 105.431 112.198C105.354 111.487 105.504 110.745 105.568 110.004ZM106.832 120.934C107.382 119.581 108.01 118.267 108.716 116.993C108.849 116.752 109.56 116.614 109.849 116.748C110.122 116.894 110.34 117.466 110.314 117.823C110.266 118.416 110.002 118.985 109.759 119.837C109.434 120.344 109.033 121.116 108.488 121.774C108.278 122.008 107.635 122.113 107.337 121.969C107.048 121.835 106.731 121.187 106.832 120.934ZM115.347 117.006C114.712 115.82 114.679 113.699 115.271 112.802C115.682 112.188 116.199 111.935 116.701 112.688C117.466 113.87 116.703 116.359 115.347 117.006ZM118.262 124.361C118.267 123.585 118.454 122.826 118.614 121.781C118.94 121.519 119.342 121.08 119.84 120.893C120.033 120.823 120.737 121.393 120.709 121.615C120.597 122.752 120.38 123.879 120.036 124.967C119.945 125.225 119.211 125.452 118.824 125.377C118.575 125.326 118.261 124.716 118.262 124.361ZM123.841 115.581C124.257 115.215 124.638 114.828 125.069 114.516C125.122 114.476 125.508 114.753 125.613 114.949C126.034 115.705 125.561 117.851 124.876 118.355C124.258 118.812 123.779 118.706 123.738 117.875C123.696 117.153 123.79 116.413 123.841 115.581ZM129.473 120.372C129.999 120.059 130.526 119.743 131.054 119.423C131.251 119.987 131.561 120.546 131.603 121.114C131.647 121.892 131.519 122.686 131.418 123.46C131.33 124.155 131.313 124.901 131.01 125.491C130.807 125.906 130.168 126.11 129.72 126.403C129.476 125.986 129.019 125.565 129.04 125.162C129.093 123.651 129.298 122.128 129.473 120.372Z" fill="#F9E95E"/>
<path d="M90.9371 99.1858C90.6588 99.6668 90.3798 100.139 90.1002 100.604C90.3869 100.142 90.6659 99.6696 90.9371 99.1858Z" fill="#F9E95E"/>
<path d="M90.9344 100.079C90.4072 100.708 90.0025 101.429 89.3854 102.358C89.5396 102.739 89.7223 103.247 89.9187 103.767C90.4206 103.538 91.1095 103.44 91.381 103.053C91.8449 102.399 92.1197 101.589 92.3194 100.799C92.3956 100.486 92.1516 99.9782 91.8938 99.7341C91.7617 99.62 91.1341 99.8407 90.9344 100.079Z" fill="#2F3656"/>
<path d="M92.188 96.9167C92.1521 96.9963 92.1126 97.0745 92.0697 97.1512C92.1126 97.0745 92.1556 96.9977 92.1985 96.921L92.188 96.9167Z" fill="#F9E95E"/>
<path d="M93.13 95.1122L93.1406 95.1165C93.7063 93.9988 94.2558 92.8807 94.7891 91.7623C94.2608 92.8786 93.7077 93.9952 93.13 95.1122Z" fill="#F9E95E"/>
<path d="M88.9502 110.69C89.0643 111.324 89.004 111.888 89.2364 112.073C89.548 112.32 90.2886 112.476 90.5052 112.287C91.4055 111.507 92.2032 110.601 92.9746 109.684C93.1109 109.512 93.0201 108.942 92.8342 108.764C92.6377 108.581 92.1041 108.459 91.8886 108.6C90.887 109.235 89.9392 109.964 88.9502 110.69Z" fill="#2F3656"/>
<path d="M122.988 41.625C121.206 41.5614 118.432 43.7301 117.918 45.3074C117.19 47.5102 118.678 51.0348 120.776 52.0398C121.443 52.3494 122.132 52.6622 122.837 52.8768C125.746 53.7402 127.3 55.8883 127.752 58.649C128.206 61.435 129.74 63.0537 132.183 63.9943C134.629 64.9243 137.097 65.8321 139.605 66.5782C143.753 67.8211 146.376 70.2863 147.526 74.6254C148.008 76.4237 147.33 77.1515 146.436 78.209C145.146 79.746 143.94 81.3528 142.708 82.9311C142.539 83.1392 142.328 83.3737 142.307 83.6104C142.239 84.3003 142.248 85.0145 142.242 85.7171C142.909 85.7347 143.58 85.7478 144.255 85.7564C144.336 85.7521 144.427 85.7088 144.492 85.655C146.287 84.0017 148.27 84.8197 150.2 85.2489C151.691 85.5818 152.496 86.6637 152.536 88.1872C152.531 88.5774 152.49 88.9655 152.413 89.3515C151.493 94.1004 147.219 98.1199 141.629 99.1493C142.068 99.8456 142.339 100.438 142.749 100.884C143.626 101.848 144.528 102.809 145.516 103.664C147.153 105.085 148.603 104.679 149.347 102.666C150.614 99.3004 150.828 99.1778 154.441 99.5512C155.354 99.6506 156.267 99.7201 157.183 99.7596C160.419 99.8656 163.168 97.6504 163.392 94.4429C163.525 92.5475 163.262 90.6162 162.98 88.7325C162.671 86.7948 162.122 84.8899 161.674 82.9765C161.332 81.565 161.761 80.3701 162.7 79.3549C163.346 78.645 164.039 77.9542 164.774 77.3415C168.523 74.1597 168.991 68.3353 165.596 64.3846C164.313 62.9033 162.977 61.4494 161.555 60.1022C158.485 57.207 156.755 53.7204 156.355 49.5282C155.968 45.4268 153.777 42.3563 150.355 40.3254C147.48 38.6114 144.333 38.2835 141.247 40.1004C140.911 40.2969 140.524 40.4363 140.222 40.6708C136.709 43.2483 132.892 43.3387 128.834 42.3156C126.946 41.842 124.942 41.6897 122.988 41.625Z" fill="#2F3656"/>
<path d="M99.0629 96.825C99.1601 97.3173 99.2572 97.8403 99.3544 98.3939C99.9069 98.1615 100.566 98.076 100.966 97.6905C101.443 97.232 101.752 96.5527 102.003 95.9241C102.122 95.6283 102.05 95.0113 101.862 94.8993C101.56 94.7355 100.938 94.6953 100.705 94.896C100.128 95.3883 99.7033 96.0517 99.0629 96.825Z" fill="#2F3656"/>
<path d="M97.8803 106.199C97.7355 107.128 97.5695 107.803 97.5399 108.49C97.5335 108.781 97.7733 109.208 98.0078 109.326C98.2466 109.434 98.852 109.284 98.9111 109.106C99.3191 108.056 99.6551 106.981 99.9194 105.881C99.9511 105.741 99.2813 105.209 99.1197 105.292C98.6252 105.517 98.211 105.939 97.8803 106.199Z" fill="#2F3656"/>
<path d="M114.956 66.7711C114.618 67.4937 114.435 68.3642 115.428 68.9148C116.491 69.5055 116.993 68.6952 117.465 67.9282C118.281 66.594 118.3 65.5966 117.494 65.1454C116.641 64.6752 115.602 65.2952 114.956 66.7711Z" fill="#2F3656"/>
<path d="M115.685 73.663C114.631 73.8911 113.921 74.7774 114.195 75.7938C114.459 76.7573 115.191 77.6079 115.797 78.451C115.897 78.5831 116.536 78.5198 116.719 78.336C116.904 78.1648 116.958 77.6778 116.856 77.3978C116.639 76.7597 116.301 76.1648 115.888 75.2826C117.32 75.0281 118.553 74.8719 119.758 74.6005C120.209 74.4992 120.606 74.1368 121.018 73.9034C120.573 73.6519 120.11 73.1848 119.68 73.2028C118.336 73.2533 116.985 73.399 115.685 73.663Z" fill="#2F3656"/>
<path d="M99.9273 113.808C99.3218 114.448 98.8389 115.272 98.4965 116.097C98.3253 116.525 98.583 117.137 98.6495 117.66C99.145 117.54 99.8043 117.577 100.102 117.261C100.762 116.593 101.236 115.76 101.944 114.756C101.847 114.294 101.716 113.733 101.585 113.172C101.022 113.37 100.296 113.422 99.9273 113.808Z" fill="#2F3656"/>
<path fill-rule="evenodd" clip-rule="evenodd" d="M112.232 82.8276C111.805 84.6606 112.438 86.4335 113.868 87.0549C115.317 87.6773 116.953 86.9104 117.779 85.3533C118.479 84.0158 118.219 82.7226 117.758 81.4537C117.377 80.3697 115.796 79.817 114.772 80.492C113.824 81.1173 113.072 82.0301 112.232 82.8276ZM114.311 84.6461C114.471 84.0175 114.651 83.3234 115.038 82.829C115.337 82.4645 115.957 82.3568 116.436 82.1382C116.562 82.2946 116.687 82.4509 116.812 82.6073C116.527 83.3204 116.324 84.0726 115.92 84.7139C115.742 85.0223 115.232 85.1797 114.832 85.2589C114.694 85.2832 114.271 84.8077 114.311 84.6461Z" fill="#2F3656"/>
<path d="M106.611 108.638C106.203 108.984 105.93 109.512 105.568 110.004C105.505 110.745 105.354 111.487 105.431 112.198C105.46 112.541 105.88 112.96 106.218 113.095C106.413 113.161 106.983 112.776 107.068 112.504C107.404 111.419 107.716 110.318 107.843 109.205C107.94 108.441 107.229 108.119 106.611 108.638Z" fill="#2F3656"/>
<path d="M108.715 116.993C108.009 118.267 107.382 119.581 106.832 120.934C106.731 121.187 107.047 121.835 107.337 121.969C107.635 122.113 108.277 122.008 108.487 121.774C109.033 121.116 109.433 120.344 109.759 119.837C110.002 118.985 110.266 118.416 110.314 117.823C110.34 117.465 110.121 116.894 109.849 116.748C109.559 116.614 108.848 116.752 108.715 116.993Z" fill="#2F3656"/>
<path d="M115.27 112.802C114.679 113.699 114.712 115.82 115.347 117.006C116.703 116.359 117.466 113.87 116.701 112.688C116.199 111.936 115.681 112.188 115.27 112.802Z" fill="#2F3656"/>
<path d="M132.894 76.0935C131.728 75.6518 130.296 76.2 129.892 77.2395C129.507 78.2315 129.994 79.511 130.919 79.9115C131.9 80.3533 133.024 79.7184 133.565 78.4274C134.024 77.3731 133.747 76.4106 132.894 76.0935Z" fill="#2F3656"/>
<path d="M128.132 89.9985C127.423 91.6635 128.581 93.9774 130.521 94.7657C132.556 95.6048 134.125 94.8844 134.984 92.7398C135.742 90.8435 135.08 89.2058 133.228 88.4893C131.063 87.6354 128.866 88.2881 128.132 89.9985Z" fill="#3C4E58" fill-opacity="0.2"/>
<path fill-rule="evenodd" clip-rule="evenodd" d="M114.796 131.523C114.495 132.169 114.152 132.81 113.894 133.485C111.6 139.418 110.469 145.676 109.013 151.84C108.822 152.671 109.303 152.802 109.867 152.984C115.989 154.975 122.186 156.639 128.694 156.731C133.415 156.818 138.134 157.076 142.837 157.009C145.653 156.984 148.482 156.486 151.384 156.201C147.514 146.147 144.47 136.019 143.298 125.334C141.7 128.684 139.271 131.156 135.868 132.233C130.826 133.838 125.64 134.576 120.389 133.136C118.568 132.647 116.774 132.094 114.796 131.523ZM111.377 148.153C111.751 147.709 111.994 147.254 112.368 147.024C112.564 146.918 113.275 147.209 113.282 147.359C113.336 148.343 113.349 149.353 113.213 150.334C113.173 150.649 112.67 151.109 112.347 151.121C112.086 151.145 111.621 150.653 111.547 150.317C111.392 149.618 111.414 148.873 111.377 148.153ZM117.444 142.149C117.605 141.809 117.645 141.555 117.8 141.427C118.216 141.109 118.675 140.834 119.109 140.547C119.311 141.021 119.689 141.515 119.669 141.979C119.648 142.92 119.453 143.884 119.241 144.81C119.085 145.538 118.647 146.295 117.852 145.94C117.407 145.749 117.067 144.884 117.044 144.299C116.999 143.552 117.314 142.765 117.444 142.149ZM122.964 136.93C123.179 136.532 123.247 136.284 123.411 136.165C123.817 135.856 124.265 135.594 124.704 135.322C124.872 135.806 125.19 136.283 125.191 136.755C125.187 137.532 125.067 138.336 124.793 139.053C124.653 139.432 124.064 139.926 123.725 139.882C123.359 139.834 122.832 139.267 122.784 138.881C122.687 138.174 122.904 137.433 122.964 136.93ZM119.709 149.783C119.732 149.633 120.327 149.479 120.608 149.543C120.787 149.584 121.039 149.997 121.036 150.235C121.017 151.275 120.918 152.32 120.84 153.496C120.516 153.691 120.184 154.018 119.818 154.074C119.589 154.111 119.053 153.688 119.072 153.518C119.211 152.262 119.423 151.017 119.709 149.783ZM125.606 143.913C125.649 143.918 125.691 143.929 125.733 143.946C125.799 143.782 125.814 143.561 125.941 143.459C126.296 143.153 126.705 142.882 127.098 142.604C127.316 143.023 127.739 143.437 127.74 143.848C127.76 144.977 127.7 146.136 127.448 147.212C127.33 147.704 126.655 148.059 126.233 148.472C125.89 147.979 125.291 147.501 125.265 147C125.201 145.982 125.475 144.945 125.606 143.913ZM132.347 136.377C132.342 136.129 132.764 135.716 133.058 135.626C133.275 135.559 133.822 135.845 133.878 136.058C134.263 137.652 134.561 139.266 134.899 140.934C134.343 141.281 133.994 141.693 133.675 141.664C133.344 141.635 132.812 141.232 132.767 140.932C132.546 139.422 132.406 137.904 132.347 136.377ZM129.707 152.607C129.727 152.389 130.311 152.046 130.588 152.09C130.871 152.117 131.29 152.542 131.301 152.835C131.381 153.676 131.278 154.547 131.25 155.443C130.951 155.685 130.699 156.056 130.454 156.056C130.191 156.055 129.722 155.726 129.706 155.505C129.62 154.54 129.603 153.571 129.707 152.607ZM133.913 144.363C134.308 144.11 134.702 143.661 134.97 143.726C135.33 143.808 135.823 144.275 135.851 144.618C135.959 145.911 135.998 147.238 135.868 148.528C135.837 148.926 135.19 149.274 134.826 149.631C134.468 149.255 133.837 148.886 133.809 148.482C133.718 147.147 133.859 145.8 133.913 144.363ZM138.319 135.892C138.556 135.086 139.384 134.793 139.748 135.447C140.411 136.607 140.984 137.841 141.408 139.108C141.645 139.864 140.907 140.298 140.165 139.964C139.167 139.516 137.993 136.938 138.319 135.892ZM140.673 144.451C141.154 144.123 141.421 143.807 141.712 143.801C141.985 143.793 142.445 144.051 142.516 144.288C142.872 145.588 143.191 146.905 143.399 148.238C143.44 148.518 143.026 149.033 142.707 149.156C142.469 149.245 141.821 148.98 141.753 148.738C141.33 147.343 141.022 145.908 140.673 144.451ZM142.169 156.687C141.126 156.245 140.206 153.628 140.733 153.048C140.939 152.824 141.911 152.845 141.965 152.971C142.357 153.919 142.661 154.923 142.846 155.928C142.883 156.158 142.352 156.49 142.169 156.687ZM145.707 151.521C146.144 151.132 146.392 150.759 146.628 150.75C146.868 150.748 147.265 151.072 147.33 151.325C147.65 152.454 147.905 153.593 148.094 154.744C148.133 155.029 147.808 155.383 147.654 155.707C147.33 155.535 146.819 155.434 146.729 155.184C146.326 153.987 146.042 152.752 145.707 151.521Z" fill="#F9E95E"/>
<path d="M118.615 121.782C118.454 122.827 118.267 123.585 118.262 124.362C118.261 124.717 118.575 125.326 118.824 125.377C119.211 125.452 119.945 125.225 120.036 124.967C120.38 123.879 120.597 122.753 120.71 121.615C120.737 121.393 120.034 120.824 119.84 120.893C119.343 121.08 118.94 121.52 118.615 121.782Z" fill="#2F3656"/>
<path d="M125.069 114.516C124.638 114.828 124.257 115.214 123.84 115.581C123.79 116.413 123.696 117.153 123.738 117.875C123.779 118.706 124.257 118.812 124.875 118.354C125.561 117.851 126.034 115.705 125.613 114.948C125.508 114.753 125.122 114.476 125.069 114.516Z" fill="#2F3656"/>
<path d="M112.369 147.024C111.995 147.254 111.751 147.708 111.377 148.153C111.414 148.873 111.392 149.617 111.547 150.317C111.621 150.653 112.086 151.145 112.347 151.121C112.67 151.109 113.173 150.649 113.213 150.334C113.349 149.352 113.336 148.342 113.282 147.359C113.275 147.209 112.564 146.918 112.369 147.024Z" fill="#2F3656"/>
<path d="M108.311 154.715C107.43 158.694 106.575 162.562 105.669 166.679C112.554 168.723 119.358 170.754 126.025 172.747C126.561 172.324 126.971 172.004 127.381 171.684C127.727 172.153 128.179 172.586 128.383 173.102C129.619 176.14 130.964 179.086 133.047 181.691C134.44 183.449 135.279 185.685 136.777 187.332C139.615 190.471 142.758 193.335 145.761 196.338C146.363 196.946 146.825 196.941 147.546 196.439C150.522 194.364 153.741 193.531 157.37 194.463C161.247 195.462 165.254 200.565 165.096 204.558C165.066 205.276 164.781 205.989 164.592 206.844C167.132 207.861 169.744 209.145 172.494 209.945C176.97 211.27 181.505 212.466 186.094 213.34C188.712 213.842 191.489 213.777 194.182 213.647C197.625 213.468 201.055 213.027 204.483 212.622C208.367 212.135 211.835 210.452 215.011 208.763C213.135 204.794 211.279 200.856 209.442 196.951C207.668 197.479 205.817 198.093 203.919 198.565C199.321 199.703 194.783 199.083 190.318 197.835C183.51 195.938 177.173 193.06 171.715 188.461C168.521 185.768 166.254 182.336 163.713 179.101C159.154 173.294 156.056 166.686 153.09 160.009C152.792 159.331 152.613 158.598 152.383 157.918C137.288 160.004 122.728 159.883 108.311 154.715Z" fill="#2F3656"/>
<path d="M107.622 169.378C106.911 169.18 106.189 169.007 105.484 168.823C104.089 176.385 102.705 183.84 101.31 191.371C104.469 192.175 105.711 194.523 106.409 197.572C107.618 202.928 105.447 206.606 101.137 209.661C100.648 209.993 100.025 210.264 99.445 210.289C99.0108 210.318 98.5565 209.922 98.1033 209.722L97.5148 209.615C95.7642 219.075 94.0115 228.479 92.2895 237.79C93.7769 238.729 95.0678 239.821 96.5733 240.424C98.8669 241.354 101.3 241.966 103.686 242.694C105.192 243.143 106.719 243.539 108.207 244.031C109.042 244.303 109.471 244.15 109.781 243.282C112.301 236.281 114.818 229.285 117.396 222.307C119.5 216.604 121.759 210.957 123.826 205.24C126.372 198.157 128.808 191.043 131.198 183.923C131.409 183.272 131.015 182.311 130.671 181.61C129.667 179.523 128.584 177.484 127.461 175.466C127.235 175.081 126.73 174.751 126.29 174.624C120.072 172.859 113.849 171.11 107.622 169.378Z" fill="#2F3656"/>
<path d="M117.8 141.427C117.645 141.555 117.605 141.808 117.444 142.148C117.314 142.764 116.999 143.551 117.044 144.298C117.067 144.883 117.407 145.749 117.852 145.939C118.647 146.294 119.085 145.538 119.241 144.81C119.453 143.883 119.648 142.92 119.669 141.978C119.689 141.515 119.311 141.02 119.108 140.547C118.675 140.833 118.216 141.109 117.8 141.427Z" fill="#2F3656"/>
<path d="M131.054 119.423C130.526 119.743 129.999 120.059 129.474 120.372C129.298 122.128 129.093 123.651 129.04 125.162C129.02 125.565 129.476 125.986 129.72 126.403C130.168 126.11 130.808 125.906 131.01 125.491C131.314 124.901 131.331 124.154 131.418 123.46C131.52 122.686 131.65 121.886 131.604 121.114C131.561 120.545 131.252 119.987 131.054 119.423Z" fill="#2F3656"/>
<path d="M123.411 136.164C123.247 136.283 123.179 136.531 122.964 136.929C122.904 137.432 122.687 138.173 122.784 138.88C122.832 139.266 123.359 139.833 123.726 139.881C124.064 139.925 124.653 139.431 124.793 139.052C125.068 138.335 125.187 137.531 125.191 136.754C125.19 136.282 124.872 135.805 124.704 135.322C124.265 135.593 123.817 135.855 123.411 136.164Z" fill="#2F3656"/>
<path d="M120.608 149.542C120.327 149.478 119.732 149.632 119.709 149.782C119.424 151.016 119.211 152.261 119.072 153.517C119.053 153.687 119.589 154.11 119.818 154.073C120.184 154.017 120.517 153.69 120.84 153.495C120.918 152.319 121.018 151.274 121.036 150.234C121.039 149.996 120.788 149.583 120.608 149.542Z" fill="#2F3656"/>
<path d="M125.735 143.945C125.692 143.928 125.65 143.918 125.607 143.913C125.476 144.945 125.202 145.981 125.266 147C125.293 147.5 125.892 147.979 126.234 148.471C126.657 148.058 127.332 147.703 127.449 147.211C127.702 146.136 127.761 144.977 127.741 143.847C127.74 143.436 127.317 143.022 127.099 142.604C126.706 142.882 126.297 143.153 125.942 143.458C125.815 143.561 125.8 143.782 125.735 143.945Z" fill="#2F3656"/>
<path d="M133.059 135.625C132.765 135.716 132.343 136.129 132.348 136.376C132.407 137.903 132.547 139.422 132.768 140.932C132.808 141.23 133.345 141.635 133.676 141.663C133.995 141.693 134.344 141.281 134.9 140.933C134.562 139.266 134.264 137.652 133.879 136.058C133.823 135.845 133.276 135.559 133.059 135.625Z" fill="#2F3656"/>
<path d="M130.588 152.09C130.311 152.046 129.727 152.389 129.707 152.607C129.603 153.571 129.62 154.54 129.706 155.505C129.721 155.726 130.19 156.055 130.454 156.056C130.699 156.056 130.951 155.685 131.25 155.443C131.278 154.547 131.381 153.676 131.301 152.835C131.29 152.542 130.871 152.117 130.588 152.09Z" fill="#2F3656"/>
<path d="M134.971 143.726C134.702 143.661 134.308 144.11 133.913 144.363C133.859 145.8 133.718 147.147 133.809 148.482C133.837 148.886 134.468 149.255 134.826 149.631C135.19 149.274 135.837 148.926 135.868 148.528C135.998 147.238 135.959 145.911 135.852 144.618C135.823 144.275 135.33 143.808 134.971 143.726Z" fill="#2F3656"/>
<path d="M139.747 135.446C139.384 134.792 138.555 135.086 138.319 135.892C137.992 136.938 139.167 139.516 140.164 139.964C140.907 140.298 141.644 139.864 141.407 139.107C140.983 137.84 140.416 136.608 139.747 135.446Z" fill="#2F3656"/>
<path d="M141.712 143.8C141.422 143.806 141.154 144.122 140.673 144.451C141.022 145.908 141.33 147.342 141.753 148.737C141.821 148.979 142.469 149.244 142.707 149.155C143.026 149.032 143.44 148.517 143.399 148.237C143.191 146.904 142.872 145.588 142.516 144.287C142.445 144.05 141.985 143.793 141.712 143.8Z" fill="#2F3656"/>
<path d="M140.732 153.048C140.206 153.628 141.126 156.245 142.169 156.686C142.351 156.49 142.883 156.157 142.846 155.928C142.66 154.922 142.357 153.918 141.964 152.971C141.91 152.845 140.938 152.824 140.732 153.048Z" fill="#2F3656"/>
<path d="M146.628 150.75C146.392 150.759 146.145 151.132 145.707 151.521C146.042 152.752 146.326 153.987 146.729 155.184C146.819 155.434 147.331 155.535 147.654 155.707C147.808 155.382 148.134 155.029 148.094 154.743C147.905 153.593 147.65 152.454 147.33 151.324C147.266 151.072 146.868 150.748 146.628 150.75Z" fill="#2F3656"/>
<path fill-rule="evenodd" clip-rule="evenodd" d="M67.7267 94.8132C68.1123 95.3964 68.4271 95.8043 68.669 96.2565C69.1295 97.1271 70.1521 97.6956 69.8985 98.9423C69.8371 99.2486 70.3062 99.6998 70.5977 100.013C72.2404 101.773 73.7521 103.707 75.6018 105.195C80.3747 109.041 85.324 112.646 90.1602 116.395C94.8486 120.023 100.025 122.83 105.25 125.546C105.404 125.305 105.559 125.054 105.716 124.795C106.768 123.009 107.581 120.884 108.224 118.573C108.306 118.287 108.382 117.995 108.452 117.696C108.726 116.593 108.97 115.454 109.182 114.281C109.278 113.743 109.369 113.2 109.454 112.649C109.478 112.528 109.499 112.406 109.516 112.282C109.607 111.656 109.694 111.025 109.777 110.389C109.778 110.377 109.777 110.362 109.776 110.345C109.792 110.26 110.34 107.648 110.344 107.564C108.38 107.035 106.102 106.203 104.181 105.521C95.308 102.381 88.8098 99.3701 81.2724 92.7693C80.7759 92.1723 79.9666 91.8363 79.3159 91.3492C79.1226 91.2044 78.9282 91.0163 78.7972 90.7923C78.2162 89.8245 77.6511 88.8324 77.0163 87.7389C75.218 88.9864 73.594 90.0279 72.0726 91.1962C70.5902 92.3128 69.1986 93.5699 67.7267 94.8132ZM73.9846 102.452C74.0755 102.011 74.066 101.835 74.1442 101.763C75.1417 100.679 76.0895 99.5198 77.219 98.5807C77.7505 98.1254 78.2892 98.6167 78.2923 99.3595C78.2795 100.463 76.3226 102.72 75.208 102.825C74.8129 102.863 74.3776 102.573 73.9846 102.452ZM80.7113 102.901C80.7378 102.421 80.5899 101.841 80.8066 101.468C81.4881 100.362 82.2849 99.3208 83.0678 98.2675C83.258 98.0066 83.5782 97.8345 84.0293 97.4573C84.2279 97.9106 84.5226 98.2307 84.473 98.4927C84.2129 100.184 83.5049 101.678 82.1239 102.725C81.7921 102.972 81.1952 102.856 80.7113 102.901ZM83.6445 109.553C83.4122 108.725 85.2676 106.354 86.453 106.302C86.5777 106.511 87.0319 106.999 86.9453 107.185C86.4063 108.195 85.8336 109.228 85.057 110.051C84.6174 110.537 83.8726 110.331 83.6445 109.553ZM90.4102 110.44C90.2613 109.94 89.9539 109.406 90.0121 108.939C90.1305 108.03 90.3948 107.125 90.7572 106.296C90.9791 105.772 91.5 105.373 91.8889 104.922C92.3326 105.406 92.7752 105.908 93.2505 106.435C92.7644 107.742 92.4759 108.846 91.9285 109.816C91.7151 110.196 90.9248 110.242 90.4102 110.44ZM94.66 115.67C94.2637 116.094 93.4513 115.843 93.4641 114.922C93.4895 113.94 95.3651 111.442 96.2875 111.358C96.6065 111.326 97.2858 112.033 97.2752 112.06C96.4521 113.305 95.6712 114.598 94.66 115.67ZM102.173 121.214C101.907 121.113 101.804 120.606 101.507 120.046C102.163 119.034 102.801 117.96 103.534 116.985C103.699 116.756 104.281 116.695 104.6 116.786C104.818 116.855 105.117 117.41 105.028 117.601C104.533 118.794 103.981 119.958 103.33 121.064C103.207 121.278 102.508 121.342 102.173 121.214ZM103.055 113.802C102.72 113.644 102.561 113.108 102.316 112.71C102.633 111.826 102.807 111.007 103.222 110.321C103.42 109.996 104.09 109.761 104.488 109.823C104.749 109.86 105.121 110.585 105.051 110.912C104.865 111.745 104.519 112.55 104.095 113.287C103.928 113.582 103.285 113.901 103.055 113.802Z" fill="#F9E95E"/>
<path d="M74.1439 101.764C74.0657 101.836 74.0752 102.012 73.9842 102.453C74.3773 102.574 74.8125 102.864 75.2076 102.826C76.3223 102.721 78.2791 100.465 78.2919 99.3605C78.2889 98.6177 77.7501 98.1264 77.2186 98.5817C76.0891 99.5208 75.1413 100.68 74.1439 101.764Z" fill="#2F3656"/>
<path d="M80.8068 101.469C80.5902 101.842 80.738 102.422 80.7115 102.902C81.1954 102.856 81.7923 102.973 82.1241 102.725C83.5051 101.679 84.2131 100.185 84.4732 98.4933C84.5229 98.2313 84.2281 97.9112 84.0295 97.4579C83.5784 97.835 83.2583 98.0072 83.0681 98.2681C82.2851 99.3213 81.4883 100.363 80.8068 101.469Z" fill="#2F3656"/>
<path d="M86.4528 106.302C85.2674 106.354 83.412 108.725 83.6443 109.553C83.8724 110.331 84.6173 110.537 85.0568 110.051C85.8334 109.228 86.4062 108.195 86.9451 107.185C87.0338 106.994 86.5775 106.511 86.4528 106.302Z" fill="#2F3656"/>
<path fill-rule="evenodd" clip-rule="evenodd" d="M85.4597 84.0824C84.0205 86.1477 82.7071 88.0366 81.3736 89.9604C85.9857 95.0965 90.8419 99.7298 96.9925 103.043C101.192 105.305 105.561 106.882 110.036 108.059C110.172 106.815 117.617 109.787 117.709 108.562C117.813 107.292 117.552 107.224 117.631 106C117.259 105.827 109.92 100.261 109.55 100.083C100.823 95.8736 92.9486 90.4371 85.4597 84.0824ZM85.8338 92.9339C85.8075 91.6671 87.7211 89.2891 88.7385 89.1508C89.4528 89.0506 90.1828 89.3855 89.7368 90.1018C88.9972 91.3072 88.0303 92.391 87.0118 93.3745C86.4602 93.8953 85.8718 93.6047 85.8338 92.9339ZM97.3404 100.412C97.0985 100.327 96.8006 99.7241 96.881 99.4621C97.1536 98.5662 97.5372 97.6841 97.9842 96.858C98.1321 96.6108 98.7132 96.3531 98.9541 96.4556C99.2478 96.5792 99.3925 97.0599 99.665 97.4815C99.2561 98.427 98.9401 99.324 98.4603 100.125C98.3155 100.379 97.6669 100.5 97.3404 100.412ZM105.179 104.927C105.177 103.523 106.375 101.907 107.206 102.006C107.523 102.041 107.998 102.538 108.038 102.866C108.139 103.826 106.825 105.623 106.128 105.527C105.731 105.479 105.384 105.058 105.179 104.927Z" fill="#F9E95E"/>
<path d="M88.7385 89.1508C87.721 89.2891 85.8074 91.6671 85.8337 92.9338C85.8717 93.6047 86.4601 93.8953 87.0117 93.3745C88.0303 92.391 88.9971 91.3071 89.7368 90.1017C90.1827 89.3855 89.4527 89.0505 88.7385 89.1508Z" fill="#2F3656"/>
<path d="M90.0115 108.939C89.9534 109.406 90.2608 109.94 90.4097 110.441C90.9242 110.242 91.7145 110.197 91.9279 109.816C92.4753 108.847 92.7638 107.743 93.25 106.436C92.7746 105.909 92.332 105.407 91.8883 104.923C91.4995 105.374 90.9786 105.772 90.7566 106.296C90.3942 107.125 90.13 108.031 90.0115 108.939Z" fill="#2F3656"/>
<path d="M93.4641 114.922C93.4514 115.843 94.2638 116.094 94.66 115.671C95.6712 114.598 96.4521 113.305 97.2753 112.06C97.2858 112.033 96.6066 111.326 96.2875 111.358C95.3652 111.443 93.4896 113.94 93.4641 114.922Z" fill="#2F3656"/>
<path d="M96.8796 99.4623C96.7993 99.7243 97.0972 100.328 97.3391 100.412C97.6656 100.5 98.3142 100.38 98.459 100.125C98.9387 99.3241 99.2548 98.4272 99.6637 97.4817C99.3912 97.0601 99.2465 96.5794 98.9528 96.4557C98.7119 96.3532 98.1308 96.6109 97.9829 96.8582C97.5359 97.6843 97.1523 98.5664 96.8796 99.4623Z" fill="#2F3656"/>
<path d="M101.506 120.047C101.803 120.607 101.907 121.114 102.173 121.214C102.508 121.342 103.207 121.279 103.33 121.064C103.981 119.958 104.532 118.794 105.028 117.601C105.117 117.41 104.818 116.855 104.6 116.787C104.281 116.696 103.699 116.757 103.534 116.985C102.801 117.96 102.163 119.035 101.506 120.047Z" fill="#2F3656"/>
<path d="M102.316 112.711C102.561 113.109 102.721 113.645 103.056 113.803C103.286 113.901 103.929 113.582 104.095 113.288C104.519 112.55 104.866 111.745 105.052 110.913C105.122 110.585 104.75 109.86 104.489 109.823C104.091 109.762 103.421 109.997 103.223 110.322C102.808 111.008 102.633 111.826 102.316 112.711Z" fill="#2F3656"/>
<path d="M107.205 102.006C106.375 101.907 105.177 103.523 105.179 104.927C105.383 105.058 105.73 105.479 106.127 105.528C106.824 105.623 108.138 103.826 108.038 102.867C107.998 102.538 107.522 102.041 107.205 102.006Z" fill="#2F3656"/>
<path d="M105.716 124.795C105.559 125.055 105.403 125.305 105.25 125.546C105.415 125.306 105.571 125.056 105.716 124.795Z" fill="#F9E95E"/>
<path fill-rule="evenodd" clip-rule="evenodd" d="M56.8842 75.6764C54.918 75.3983 53.7695 76.293 53.8433 78.2529C53.8865 79.4161 54.011 80.6976 54.5497 81.6792C56.1458 84.5974 58.007 87.3582 60.6417 89.5032C62.2358 90.8029 63.8046 92.1353 65.3099 93.5343C65.7029 93.8999 65.8148 94.5697 66.006 95.118C67.7614 100.043 70.978 103.903 74.9342 107.172C78.1763 109.835 81.4301 112.516 84.8243 114.983C90.1973 118.892 95.7297 122.54 101.557 125.803C102.387 126.261 103.22 126.695 104.058 127.104C104.493 126.628 104.891 126.109 105.251 125.546C100.025 122.831 94.8489 120.024 90.1606 116.395C85.3243 112.646 80.375 109.042 75.6021 105.196C73.7524 103.708 72.2407 101.774 70.5981 100.013C70.3065 99.7006 69.8375 99.2494 69.8988 98.943C70.1525 97.6964 69.1299 97.1278 68.6693 96.2572C68.4274 95.805 68.1126 95.3972 67.7271 94.8139C69.1989 93.5706 70.5905 92.3135 72.0729 91.197C73.5944 90.0287 75.2183 88.9871 77.0166 87.7396C77.6514 88.8331 78.2165 89.8253 78.7975 90.7931C78.9285 91.0171 79.1229 91.2052 79.3162 91.3499C79.967 91.837 80.7762 92.1731 81.2727 92.7701C89.5084 99.6319 93.0443 101.5 102.468 105.271C104.359 106.027 108.234 107.278 111.283 108.204L118.017 110.181C118.098 109.503 117.647 109.236 117.709 108.562C113.237 107.38 101.781 102.851 97.4532 100.85C89.6576 97.2527 85.9855 95.097 81.3734 89.9609C82.7069 88.0371 84.0203 86.1482 85.4595 84.0829C92.9483 90.4375 108.235 101.824 116.967 106.035C117.337 106.214 117.696 106.357 118.068 106.531C118.117 105.848 118.16 105.183 118.198 104.536C114.589 102.743 103.671 94.7588 100.203 92.6602C95.3097 89.6972 90.9658 86.0349 86.531 82.4771C86.063 82.0999 85.4206 81.9287 85.1449 81.8061C83.7643 79.4214 82.4894 77.1403 81.094 74.9458C80.8035 74.4925 79.9742 74.0381 79.5231 74.1395C79.0645 74.2441 78.5721 74.9846 78.4104 75.5266C78.1504 76.3908 78.1493 77.3279 78.0139 78.5545C77.153 77.4746 76.386 76.5733 75.6867 75.6256C74.1128 73.4945 72.4374 71.4943 69.8871 70.4555C68.7472 69.981 67.8069 69.8805 67.1054 70.1023C66.7722 70.4143 66.4256 70.6883 66.0657 70.9242C65.7371 71.4545 65.5743 72.1983 65.6386 73.1861C65.7873 75.6478 66.3037 78.1095 66.8116 80.531C66.9457 81.1914 67.6746 81.7281 68.2672 82.4984C68.2567 82.5248 68.1637 82.8491 68.0516 83.221C67.909 83.1639 67.7907 83.1533 67.7136 83.0857C66.1343 81.5652 64.5856 80.0141 62.9693 78.5401C61.2516 76.952 59.2021 76.0094 56.8842 75.6764ZM55.5918 78.4929C55.4714 77.6297 55.9469 77.2071 56.7667 77.5781C58.419 78.3189 60.2393 78.9001 61.6084 80.0117C63.699 81.7245 65.4357 83.8472 67.3625 85.7396C67.7291 86.0946 68.3703 86.4983 68.7686 86.4064C69.1205 86.3082 69.4132 85.5919 69.5485 85.1007C69.9068 83.7917 70.1753 82.4468 70.4755 81.1146C70.6917 81.1154 70.91 81.121 71.1305 81.1316C71.8075 83.0999 72.5151 85.0683 73.0928 87.0704C73.2005 87.4444 72.8941 88.1184 72.5549 88.3994C71.1401 89.5614 69.606 90.5776 68.187 91.7502C67.5393 92.2815 67.0987 92.2645 66.5124 91.7542C65.0546 90.4968 63.5978 89.2215 62.0777 88.0433C59.5729 86.1096 57.8532 83.5157 56.2117 80.8796C55.7913 80.215 55.7132 79.3074 55.5918 78.4929ZM67.4928 73.2845C67.2975 71.8583 67.7624 71.4927 68.9688 72.1838C70.1541 72.8665 71.4166 73.6167 72.2934 74.6416C74.179 76.8668 75.829 79.298 77.6364 81.5961C77.9956 82.0462 78.6284 82.2872 79.1259 82.6211C79.407 82.0411 79.854 81.4907 79.9111 80.8885C80.0497 79.5774 79.979 78.2377 79.9939 76.914C81.5257 78.7831 82.9496 80.6152 83.1733 83.0272C83.2018 83.4001 83.2197 83.8608 83.0306 84.1344C82.068 85.5754 81.0462 86.9804 79.943 88.5429C78.9817 87.3922 78.1736 86.3642 77.2979 85.4132C77.0697 85.1565 76.6345 84.9884 76.308 84.9926C76.1432 85.0063 76.0026 85.5261 75.8494 85.8018C75.6222 86.1705 75.3897 86.5371 75.1224 86.9755C74.2489 84.7631 73.5275 82.8138 72.7216 80.8919C71.8037 78.6985 70.256 78.355 69.0123 80.5904C68.988 80.6358 68.8464 80.6221 68.7735 80.6358C68.6806 80.1635 68.5729 79.6976 68.4905 79.2296C68.1569 77.2454 67.7609 75.2793 67.4928 73.2845Z" fill="#2F3656"/>
</svg>
