<svg width="212" height="227" viewBox="0 0 212 227" fill="none" xmlns="http://www.w3.org/2000/svg">
<path fill-rule="evenodd" clip-rule="evenodd" d="M118.73 109.724C119.022 113.514 119.325 117.339 119.628 121.281C113.331 123.31 107.465 126.797 100.701 127.415C97.8618 127.671 94.8998 127.922 92.136 127.415C88.0428 126.651 84.0721 125.217 80.078 124.004C79.7748 123.916 79.425 123.164 79.5066 122.814C79.9847 120.727 80.6261 118.675 81.1334 116.587C82.2529 111.888 83.3433 107.176 84.4394 102.477C84.4822 102.267 84.5308 102.041 84.5852 101.8C95.2555 107.701 106.923 109.048 118.73 109.724ZM112.625 114.255C112.538 113.672 112.555 113.013 112.322 112.459C112.165 112.08 111.669 111.608 111.313 111.596C110.975 111.596 110.468 112.08 110.322 112.459C110.101 113.019 110.054 113.683 110.066 114.301C110.101 115.252 110.031 116.546 111.348 116.558C112.748 116.57 112.398 115.188 112.625 114.255ZM106.894 120.156C106.748 119.328 106.678 118.476 106.41 117.689C106.299 117.386 105.716 117.048 105.366 117.071C105.039 117.106 104.515 117.567 104.48 117.87C104.357 119.596 104.287 121.333 104.334 123.077C104.346 123.421 104.917 124.074 105.174 124.05C105.599 124.015 106.194 123.59 106.322 123.211C106.631 122.243 106.713 121.199 106.894 120.156ZM100.474 111.888C100.398 111.1 100.416 110.407 100.217 109.788C100.107 109.456 99.6227 109.106 99.2612 109.048C98.9697 109.007 98.3749 109.374 98.34 109.619C98.13 111.269 97.9843 112.943 97.9493 114.616C97.9493 114.896 98.5907 115.38 98.9697 115.421C99.2495 115.468 99.7918 114.995 99.8909 114.657C100.182 113.73 100.305 112.75 100.474 111.888ZM93.6637 120.564C93.6404 119.887 93.7337 119.392 93.5646 119.013C93.3605 118.529 92.9465 118.138 92.62 117.712C92.241 118.091 91.6346 118.418 91.5413 118.855C91.2847 119.975 91.174 121.158 91.1973 122.313C91.2089 122.774 91.7104 123.223 91.9903 123.671C92.4392 123.31 93.0573 123.03 93.273 122.569C93.5762 121.899 93.5762 121.1 93.6637 120.564ZM90.5676 107.928C90.2177 107.443 89.8543 106.933 89.4772 106.401C89.0749 106.873 88.4801 107.275 88.3111 107.818C87.864 109.225 87.5278 110.661 87.3023 112.127C87.2324 112.564 87.7047 113.089 87.9321 113.573C88.381 113.281 89.0865 113.089 89.2207 112.698C89.7513 111.229 90.0836 109.701 90.5676 107.928ZM86.0254 119.596C85.7455 118.943 85.6522 118.529 85.4073 118.272C85.2966 118.15 84.7018 118.226 84.5969 118.395C83.8914 119.549 83.2208 120.75 82.6261 121.975C82.5328 122.155 82.8127 122.704 83.0517 122.826C83.285 122.948 83.8564 122.873 84.0021 122.68C84.7426 121.66 85.3957 120.57 86.0254 119.596Z" fill="#5B6EB5"/>
<path fill-rule="evenodd" clip-rule="evenodd" d="M117.383 84.7279C119.074 87.62 118.549 90.5937 118.38 93.5907C118.356 93.9813 118.018 94.3837 117.75 94.7218C116.899 95.8122 116.036 96.8967 115.115 97.9404C114.858 98.2203 114.409 98.4827 114.048 98.4944C109.138 98.6693 104.713 97.1591 100.998 94.0047C99.0917 92.3896 97.6107 90.2672 97.5932 87.5326C97.5699 83.6376 97.5932 79.7427 97.5932 75.6845C102.829 78.0284 107.756 78.4191 112.683 75.1888C114.24 78.4074 115.61 81.6843 117.383 84.7279ZM114.421 92.2671C115.529 92.1855 115.371 91.1768 115.383 90.3721C115.394 90.2322 115.383 90.0981 115.383 89.7949C115.359 89.4392 115.453 88.8561 115.26 88.3838C115.08 87.9465 114.555 87.3168 114.275 87.3634C113.838 87.4392 113.278 87.9348 113.132 88.3722C112.916 89.0252 112.975 89.7832 113.027 90.4946C113.109 91.3575 113.307 92.3546 114.421 92.2671ZM110.596 96.7743C112.03 96.751 111.727 95.4274 111.639 94.477C111.558 93.6665 111.604 92.4654 110.526 92.5237C110.042 92.547 109.605 93.7248 109.156 94.372C109.517 95.509 109.284 96.7976 110.596 96.7743ZM109.628 84.8271C109.931 84.7396 110.112 84.1857 110.357 83.83C109.954 82.6755 109.651 81.5968 109.191 80.5881C109.056 80.2733 108.497 80.0459 108.106 80.005C107.879 79.9817 107.354 80.4424 107.383 80.6056C107.634 81.935 107.925 83.2703 108.351 84.5472C108.427 84.7688 109.237 84.9379 109.628 84.8271ZM106.322 92.2904C107.745 92.2671 107.342 90.9086 107.488 90.0339C107.406 89.3401 107.453 88.6171 107.214 88.0223C107.051 87.62 106.52 87.171 106.106 87.1244C105.815 87.0836 105.278 87.62 105.15 88.0107C104.94 88.6171 104.917 89.3167 104.94 89.9756C104.952 90.996 104.928 92.3021 106.322 92.2904ZM102.998 84.2207C103.144 83.6376 103.068 82.9846 103.01 82.3723C102.94 81.5619 102.888 80.5765 101.786 80.6639C100.753 80.7456 100.946 81.7426 100.899 82.4714C100.895 82.6075 100.895 82.7416 100.899 82.8738C100.888 82.8738 100.876 82.8738 100.864 82.8738C100.899 83.3577 100.8 83.9175 100.998 84.3198C101.237 84.7513 101.739 85.0428 102.135 85.3868C102.439 85.0078 102.888 84.658 102.998 84.2207Z" fill="#5B6EB5"/>
<path d="M113.692 72.0811C119.289 73.2939 123.528 76.3666 126.875 81.1479C124.292 81.8301 121.86 82.5064 119.412 83.0895C119.202 83.142 118.753 82.7513 118.595 82.4598C117.167 79.8243 115.756 77.1888 114.42 74.5066C114.071 73.8069 113.96 73.0023 113.692 72.0811Z" fill="#5B6EB5"/>
<path d="M95.7037 77.3229C95.7387 80.6406 95.7154 83.9525 95.7154 87.3051C91.1149 87.8124 86.911 88.273 82.4446 88.7628C82.7361 86.8562 82.8353 84.9145 83.3775 83.1128C84.4854 79.3637 85.8323 75.6611 88.9984 73.0664C89.7389 72.4659 90.87 71.7662 91.6689 71.9236C93.2956 72.2501 95.0682 72.8215 95.4122 74.9323C95.5346 75.7252 95.6921 76.5241 95.7037 77.3229Z" fill="#5B6EB5"/>
<path d="M20.7267 99.1006C22.2311 101.351 23.9103 103.497 25.2922 105.888C19.4556 104.43 13.6249 102.955 7.54341 101.433C8.55213 101.118 9.41509 100.803 10.3014 100.57C13.106 99.8178 15.9339 99.1007 18.7385 98.3485C19.6014 98.1094 20.1553 98.2319 20.7267 99.1006Z" fill="#5B6EB5"/>
<path d="M25.8114 108.267C23.4966 110.675 21.555 113.223 18.5929 114.762C17.0012 115.59 15.6426 116.867 14.1208 117.992C10.1034 115.264 3.36886 106.826 2.40678 103.136C10.5523 103.631 18.0682 106.133 25.8114 108.267Z" fill="#5B6EB5"/>
<path d="M41.099 110.978C37.5014 114.762 34.1779 118.249 30.8544 121.759C30.4054 122.243 29.9156 122.739 29.6357 123.322C29.4783 123.625 29.5891 124.272 29.834 124.488C29.869 124.519 29.9137 124.538 29.9681 124.546L29.8107 125.182C25.4959 124.173 21.3444 122.639 17.4028 120.36C17.053 120.157 16.709 119.944 16.3708 119.718C16.2717 119.654 16.2017 119.52 16.0151 119.269C16.8197 118.575 17.5194 117.631 18.4465 117.217C22.2424 115.526 24.7962 112.447 27.4784 109.497C28.0206 108.891 28.4579 108.815 29.1984 108.949C33.0234 109.643 36.8717 110.261 41.099 110.978Z" fill="#5B6EB5"/>
<path d="M37.297 98.6168C38.6672 102.162 39.9558 105.468 41.3144 108.972C39.6876 108.692 38.1249 108.442 36.5798 108.173C34.1076 107.759 31.6412 107.345 29.1748 106.873C28.7491 106.786 28.2302 106.523 27.9853 106.179C26.0553 103.55 24.1836 100.885 22.2945 98.2203C22.2187 98.1212 22.1837 97.9871 22.0962 97.7538C27.4022 96.7334 32.5274 97.4506 37.297 98.6168Z" fill="#5B6EB5"/>
<path d="M52.9007 110.273L53.0057 111.217C49.962 111.584 47.2799 110.016 44.3878 109.59C44.108 109.555 43.7814 109.205 43.659 108.926C42.2421 105.783 40.8661 102.634 39.3617 99.2349C40.0148 99.3923 40.5162 99.4681 40.9768 99.6372C43.3325 100.488 45.7114 101.322 48.0204 102.261C48.5393 102.477 49.0233 103.083 49.2332 103.62C49.8046 105.025 50.1894 106.506 50.7259 107.917C50.9707 108.582 51.3672 109.217 51.8279 109.748C52.0728 110.028 52.5101 110.127 52.9007 110.273Z" fill="#5B6EB5"/>
<path d="M51.489 113.38C49.489 115.817 47.6523 118.051 45.8215 120.278C44.9119 121.39 44.0178 122.513 43.1393 123.648C42.8945 123.963 42.6262 124.307 42.533 124.692C42.4572 125.082 42.5796 125.52 42.6146 125.934L42.6029 126.744C40.5894 126.74 38.5544 126.612 36.4981 126.359C34.2319 126.099 32.0026 125.706 29.8103 125.182L29.9677 124.546C30.2301 124.622 30.7315 124.499 30.9939 124.33C33.7868 122.354 36.2532 120.056 38.2707 117.24C39.6526 115.322 41.3376 113.613 42.9178 111.841C43.0869 111.654 43.4659 111.497 43.6933 111.549C46.183 112.103 48.6611 112.71 51.489 113.38Z" fill="#5B6EB5"/>
<path d="M66.9296 117.351C67.6001 117.532 68.1948 118.051 69.1802 118.622C67.9733 119.584 67.1395 120.517 66.1074 121.018C58.6032 124.744 50.8075 126.744 42.6037 126.744L42.6153 125.934C43.0643 125.858 43.5599 125.87 43.9506 125.677C44.3004 125.52 44.5453 125.141 44.7902 124.826C47.519 121.38 50.2245 117.911 52.9707 114.494C53.1748 114.22 53.7112 114.01 54.0261 114.086C58.335 115.129 62.6439 116.208 66.9296 117.351Z" fill="#5B6EB5"/>
<path d="M51.0977 103.474C57.3891 106.203 62.596 109.689 66.3102 115.042C62.7068 114.156 59.0975 113.293 55.5058 112.348C54.8178 112.167 54.2289 111.695 53.5758 111.374C53.43 111.293 53.2493 111.182 53.0919 111.205C53.0608 111.209 53.0316 111.213 53.0044 111.217L52.8994 110.272C52.9578 110.296 53.0141 110.319 53.0685 110.342C53.1385 109.893 53.3601 109.386 53.2376 109.007C52.8936 107.952 52.3747 106.955 51.949 105.917C51.6808 105.223 51.4534 104.518 51.0977 103.474Z" fill="#5B6EB5"/>
<path fill-rule="evenodd" clip-rule="evenodd" d="M211.369 155.128C211.562 155.49 211.142 156.475 210.716 156.802C208.081 158.796 205.445 160.808 202.652 162.568C197.836 165.606 192.909 168.469 188.029 171.408C186.373 172.405 185.294 172.148 184.385 170.452C183.871 169.513 183.434 168.522 182.939 167.571C182.554 166.842 182.286 166.003 181.166 166.044C180.886 166.055 180.571 165.56 180.28 165.291C178.822 163.915 177.417 162.475 175.895 161.163C174.286 159.793 172.548 158.598 170.921 157.251C166.053 153.245 160.374 150.47 155.091 147.105C155.027 147.059 154.922 147.082 154.788 147.082C156.339 160.411 153.598 173.396 151.622 186.434C151.581 186.731 151.196 186.982 150.939 187.285C155.336 189.594 159.837 191.95 164.338 194.317C165.382 194.865 166.828 195.191 166.577 196.766C166.333 198.393 164.787 198.288 163.662 198.288C159.86 198.323 156.047 198.276 152.24 198.078C147.628 197.839 143.021 197.448 138.421 197.046C136.287 196.865 134.199 196.439 133.202 193.938C133.033 194.194 132.911 194.34 132.841 194.509C131.261 198.748 128.736 202.439 126.211 206.153C123.5 210.159 121.074 214.357 118.608 218.509C118.089 219.372 118.001 220.474 117.553 221.389C115.553 225.453 113.016 226.876 108.532 226.339C106.847 226.147 105.197 225.645 103.559 225.214C101.419 224.643 99.8562 223.296 98.6667 221.447C97.693 219.92 97.1857 219.908 95.9438 221.302C95.3257 222.007 94.8301 222.829 94.2704 223.57C91.8681 226.742 87.8507 227.844 84.1715 226.328C81.7925 225.354 79.8859 223.78 78.1717 221.873C76.8364 220.38 75.3088 219.057 73.8627 217.657C73.7403 217.529 73.5712 217.442 73.4487 217.319C67.0874 211.179 59.5366 206.591 52.6038 201.209C46.464 196.428 40.7557 191.168 36.8608 184.41C31.8813 175.781 29.8931 166.574 33.339 156.778C34.9075 152.335 36.4118 147.782 39.5429 144.167C44.9947 137.864 51.6592 133.286 59.8689 131.263C63.6414 130.342 67.6238 130.762 73.3904 132.388C72.2593 128.482 71.1689 124.733 70.0786 120.978C63.6881 125.228 56.8311 127.392 49.6301 128.336C39.4088 129.66 29.5024 128.289 20.0391 124.097C16.6339 122.569 13.6369 120.424 10.7857 117.969C7.15315 114.826 4.5468 110.937 1.82384 107.118C1.03668 106.022 0.634363 104.628 0.13875 103.34C-0.240249 102.343 0.173735 101.567 1.18245 101.194C2.49437 100.733 3.80629 100.279 5.14153 99.917C9.94607 98.6051 14.7331 97.2815 19.561 96.0571C25.6191 94.5178 31.6773 94.9492 37.6538 96.5177C44.4 98.2786 50.9304 100.658 57.0352 104.069C59.4316 105.415 61.6123 107.176 64.1371 108.914C63.519 107.759 63.0117 106.786 62.4753 105.841C61.3733 103.864 61.5774 102.955 63.6531 102.197C66.0554 101.322 68.5101 100.588 70.9765 99.952C72.6266 99.5264 73.9735 100.354 74.4341 102.139C75.5012 106.302 76.4399 110.5 77.4195 114.681C77.6722 115.761 77.9151 116.842 78.1483 117.922C78.2727 117.946 78.3952 117.961 78.5157 117.969C79.4019 114.785 80.3465 111.596 81.1628 108.389C81.8042 105.911 82.3115 103.404 82.8363 100.902C82.9296 100.512 82.9587 99.9753 82.7721 99.6721C80.4048 96.0804 80.3582 92.0514 80.4806 87.9932C80.6264 83.3344 82.1307 79.0605 84.4747 75.1422C86.1131 72.4192 88.1889 69.9295 91.9147 69.5913C92.0605 67.7488 92.1596 65.9646 92.3404 64.1804C92.4278 63.3757 92.148 63.0025 91.4075 62.6819C88.0781 61.2183 85.5767 59.0318 84.3173 55.4226C83.396 52.7813 83.396 50.5306 85.2385 48.6997C84.6321 43.2013 81.3028 39.0965 79.0229 34.496C78.539 33.5398 78.0667 32.566 77.676 31.569C75.542 26.2047 78.8072 20.4731 84.533 19.6509C85.9907 19.4527 86.6962 18.858 86.877 17.4528C86.9236 17.0038 87.0577 16.5782 87.1452 16.1408C87.9965 11.7328 90.3754 9.6104 95.4132 9.1731C97.0516 9.02733 98.7251 9.27221 100.375 9.41798C101.775 9.54625 102.929 9.12643 103.932 8.16435C105.728 6.42679 107.512 4.65427 109.349 2.94586C111.314 1.12084 113.378 -0.675031 116.363 0.252058C117.36 0.555257 118.346 1.12665 119.156 1.80302C121.354 3.65137 123.821 4.01286 126.479 3.28402C128.637 2.68928 130.788 2.03624 132.864 1.20827C136.03 -0.0686604 137.96 0.80596 139.336 3.76798C141.359 8.06524 141.616 12.6074 140.864 17.307C140.281 20.9745 137.949 22.9978 135.051 24.6129C137.354 31.569 138.362 38.7058 139.348 45.8368C139.383 46.0176 139.371 46.1983 139.43 46.3674C141.109 51.3119 139.214 55.5334 136.648 59.5391C132.374 66.2153 125.605 68.1103 118.305 68.8275C116.486 69.0082 114.631 68.8625 112.649 68.8625C112.795 69.4572 112.905 69.8712 113.005 70.2968C117.932 70.565 121.85 72.8798 125.302 76.0984C128.66 79.2412 130.911 83.0895 131.249 87.6783C131.43 90.0689 132.485 91.1184 134.479 91.9406C136.736 92.8735 138.899 94.063 141.325 95.2524C142.135 92.6694 142.893 90.2438 143.633 87.8241C144.287 85.725 144.858 83.6026 145.598 81.5385C145.779 81.0021 146.665 80.1916 146.823 80.2732C147.476 80.6056 148.222 81.1595 148.45 81.7951C148.817 82.8271 148.852 83.9991 148.91 85.1069C148.963 86.0165 149.225 86.4188 150.234 86.5296C151.278 86.6579 152.333 87.0019 153.283 87.4742C155.575 88.5995 156.852 90.4596 156.828 93.0484C156.828 94.5178 156.863 96.0338 156.537 97.4623C155.598 101.555 152.794 103.474 148.211 103.363C148.146 103.655 148.012 103.946 148.012 104.249C148.001 107.042 146.7 109.41 145.418 111.765C144.409 113.66 143.289 115.491 142.234 117.363C142.044 117.716 141.898 118.088 141.797 118.476C141.459 119.812 141.144 120.313 140.193 120.202C139.925 120.167 139.622 120.08 139.249 119.969C136.613 119.112 133.978 118.196 131.465 117.013C128.31 115.538 125.278 113.759 122.194 112.127C121.879 111.958 121.57 111.8 120.993 111.509C121.133 113.718 121.243 115.736 121.401 117.753C121.465 118.61 121.634 119.45 121.716 120.29C121.815 121.199 122.229 121.357 123.15 121.322C128.806 121.053 134.427 120.989 139.978 121.759C143.12 122.19 146.24 122.884 149.324 123.975C158.572 127.228 167.306 131.456 175.376 136.954C181.848 141.374 187.551 146.726 191.679 153.537C191.749 153.649 191.819 153.762 191.889 153.875C193.09 155.904 193.014 156.452 191.207 157.956C190.989 158.135 190.771 158.314 190.554 158.493C188.357 160.32 186.155 162.135 183.947 163.939C183.597 164.219 183.23 164.463 183.003 164.633C184.192 166.539 185.224 168.201 186.315 169.962C193.731 165.571 201.183 161.356 208.168 156.388C202.472 156.901 197.288 159.595 191.621 159.985C191.554 159.834 191.484 159.68 191.411 159.525C192.093 159.099 192.723 158.528 193.463 158.26C198.419 156.429 203.457 154.825 208.745 154.172C209.054 154.143 209.416 154.038 209.673 154.155C210.291 154.4 211.119 154.633 211.369 155.128ZM181.615 162.912C184.495 160.603 187.516 158.166 190.548 155.723C187.982 151.428 184.832 147.603 181.096 144.248C173.569 137.479 164.91 132.575 155.616 128.715C150.356 126.529 145.062 124.243 139.336 123.724C134.089 123.252 128.759 123.479 123.488 123.188C121.004 123.042 118.806 123.724 116.585 124.587C114.375 125.444 112.142 126.249 109.943 127.158C103.326 129.916 96.4802 130.424 89.5008 129.03C86.6962 128.482 83.9616 127.631 81.0287 126.867C81.1978 128.873 81.157 130.826 81.5477 132.692C81.9616 134.639 82.5797 136.604 83.4776 138.365C84.9586 141.251 87.5067 143.012 90.3463 144.557C94.2587 146.691 98.2994 148.26 102.696 148.924C111.617 150.26 120.579 150.126 129.558 149.857C130.45 149.834 131.348 149.764 132.229 149.887C132.666 149.956 133.045 150.417 133.447 150.697C133.068 151.035 132.73 151.583 132.304 151.671C132.032 151.729 131.76 151.782 131.488 151.828V151.84C130.252 152.091 129.016 152.312 127.786 152.277C120.118 152.108 112.433 152.131 104.807 151.473C96.2995 150.744 88.5795 147.77 82.638 141.24C82.4922 141.07 82.2998 140.936 82.1074 140.826C79.4486 139.082 76.8014 137.321 74.1076 135.654C70.3934 133.327 66.2653 133.036 62.038 133.362C58.5803 133.619 55.5833 135.205 52.6097 136.75C46.5865 139.881 41.5954 144.132 38.5401 150.318C37.3972 152.639 36.5226 155.105 35.6247 157.542C32.3361 166.551 34.2778 175.04 38.7675 182.988C42.5283 189.617 48.1491 194.719 54.1373 199.39C61.0701 204.783 68.6326 209.366 74.9706 215.512C75.1047 215.634 75.2738 215.716 75.3962 215.838C76.9083 217.3 78.4204 218.761 79.9325 220.223C80.8072 221.068 81.6118 221.972 82.568 222.713C85.8799 225.249 90.4571 225.733 93.2733 221.033C93.9322 219.931 95.0808 219.057 96.1654 218.316C97.4889 217.418 98.5793 217.698 99.6113 218.911C100.072 219.459 100.428 220.1 100.9 220.625C101.46 221.255 102.014 222.007 102.731 222.38C104.987 223.523 107.419 224.048 109.978 224.118C112.905 224.194 114.351 222.549 115.623 220.17C118.211 215.267 120.993 210.462 123.78 205.675C126.001 201.833 128.38 198.101 130.608 194.276C131.406 192.929 131.71 191.174 132.753 190.125C133.989 188.865 133.809 187.442 134.246 186.107C133.313 185.699 132.462 185.407 131.698 184.958C131.342 184.749 130.957 184.218 130.934 183.827C130.882 182.737 131.068 181.652 131.057 180.562C130.975 171.944 130.886 163.332 130.788 154.726C130.788 154.23 130.788 153.694 130.992 153.28C131.103 153.006 131.383 152.703 131.64 152.557C131.741 152.514 131.832 152.493 131.914 152.493C132.229 152.493 132.619 152.942 132.823 153.286C132.987 153.572 132.934 153.986 132.946 154.341C132.998 159.95 133.068 165.56 133.103 171.175C133.132 175.233 133.115 179.297 133.115 183.378C138.217 184.941 143.459 185.407 148.776 185.297C149.662 185.273 149.773 184.813 149.861 184.131C150.636 178.58 151.435 173.035 152.199 167.484C153.196 160.213 153.441 152.965 152.356 145.636C151.155 137.613 145.89 132.464 138.654 130.919C133.855 129.893 128.917 129.514 124.025 128.931C122.165 128.715 120.252 128.738 118.171 128.651C119.646 127.182 121.278 126.832 122.946 126.843C128.345 126.867 133.698 127.415 138.922 128.762C146.316 130.645 151.837 134.732 153.767 142.516C154.17 144.12 154.898 144.843 156.391 145.636C161.172 148.172 165.872 150.919 170.327 153.974C174.297 156.697 177.901 159.95 181.615 162.912ZM162.216 196.369C162.267 196.19 162.319 196.012 162.373 195.833C160.519 194.859 158.624 193.973 156.84 192.882C154.205 191.267 151.143 190.247 149.225 187.6C149.12 187.454 148.84 187.396 148.654 187.384C144.345 187.168 140.036 186.958 135.849 186.766C135.739 187.856 135.581 189.215 135.447 190.574C135.109 193.903 134.806 194.422 138.946 194.912C139.126 194.935 139.307 194.923 139.482 194.935C143.908 195.273 148.327 195.652 152.747 195.932C155.901 196.148 159.062 196.235 162.216 196.369ZM151.762 100.669C153.89 99.1415 154.63 96.99 154.554 94.9376C154.543 91.0193 153.441 89.6316 150.076 88.8328C149.907 88.7978 149.715 88.7861 149.558 88.722C148.817 88.4071 148.415 88.687 148.088 89.3809C146.788 92.1855 146.555 95.1358 146.91 98.1561C146.98 98.7859 147.336 99.4214 147.709 99.9637C148.706 101.48 150.281 101.725 151.762 100.669ZM146.182 89.2351C147.114 87.5442 147.249 85.9057 146.858 84.0749C146.24 89.0019 143.179 93.2058 143.01 98.2902C142.875 102.803 142.368 107.299 142.03 111.812C142.001 112.214 142.065 112.616 142.088 113.03C143.412 111.404 144.835 109.823 145.295 108.004C145.948 105.491 147.091 102.803 145.354 100.174C145.039 99.7013 144.846 99.1007 144.794 98.5352C144.52 95.3282 144.601 92.098 146.182 89.2351ZM141.225 98.6051C141.301 97.7655 141.103 97.334 140.316 96.9667C133.896 93.8706 127.5 90.7278 120.66 87.3868C120.515 89.1243 120.369 90.7511 120.211 92.5994C120.981 92.2671 121.343 92.0047 121.722 91.9756C122.398 91.9173 123.249 91.7715 123.71 92.098C124.083 92.3662 124.1 93.2991 124.048 93.9172C123.966 94.6752 123.663 95.4157 123.43 96.2495C124.24 96.0337 124.888 95.8238 125.541 95.7014C127.681 95.3282 129.745 95.474 131.622 96.7101C133.774 98.1328 134.357 100.162 133.103 102.407C131.348 105.526 128.952 107.94 125.313 108.768C123.943 109.071 122.555 109.275 121.086 109.544C127.366 112.156 132.934 116.161 139.774 117.858C139.832 116.972 139.867 116.231 139.925 115.491C140.351 109.858 140.753 104.238 141.225 98.6051ZM134.199 22.438C137.733 20.8113 139.091 18.4323 138.689 14.8289C138.397 15.1671 138.193 15.4353 137.972 15.6802C135.086 18.8696 130.736 21.0095 125.727 18.8463C124.719 18.3973 123.599 18.1816 122.52 17.9134C121.255 17.5985 120.252 18.0008 119.448 19.0445C118.868 19.787 118.241 20.4828 117.564 21.132C114.859 23.715 111.751 24.9045 107.967 24.0415C106.801 23.7675 105.57 23.7266 104.369 23.68C102.766 23.6217 101.448 24.298 100.655 25.6916C99.7688 27.2367 98.935 28.8402 98.2411 30.4786C97.7163 31.7614 97.005 32.7585 96.1304 33.5223C94.9875 34.5077 93.5648 35.0791 91.8214 35.2715C90.4337 35.4406 89.1451 35.7846 88.1131 36.91C85.9674 39.2189 85.565 41.802 86.7953 44.6299C87.3784 45.9651 87.979 47.3878 88.941 48.4432C90.253 49.8775 91.9147 51.0087 93.4599 52.2215C93.8913 52.5597 94.4511 52.7404 95.3607 53.2127C95.4831 51.0087 95.7397 49.1487 95.6639 47.3062C95.5181 43.7844 95.1799 40.2743 96.2353 36.84C96.5677 35.7322 97.0166 34.4843 97.8271 33.7089C98.9291 32.6535 100.305 31.6331 101.74 31.2425C106.871 29.8198 112.031 28.3912 117.261 27.4933C123.15 26.4846 128.806 24.9161 134.199 22.438ZM139.103 12.0243C138.835 10.4967 138.508 8.65999 138.228 7.06237C136.736 8.11773 135.482 9.28388 133.989 10.0069C131.686 11.1147 129.138 11.2372 126.614 10.8698C124.619 10.5666 122.643 10.1177 120.66 9.79115C117.739 9.31886 115.139 9.52292 113.028 12.1351C111.763 13.6977 110.002 14.9397 108.27 16.0184C106.019 17.4061 103.39 17.3536 100.812 17.2428C96.2353 17.0621 96.0895 17.0154 94.9759 21.4002C94.212 24.4205 92.3054 26.1697 89.7165 27.4292C88.9877 27.7732 88.2122 28.0122 87.46 28.3154C86.463 28.7177 85.4309 29.0676 84.4864 29.5574C82.4981 30.6011 81.2211 34.1287 82.189 36.0995C82.7721 37.289 83.6234 38.3443 84.4747 39.6562C85.7225 36.1345 87.7282 33.8371 91.4191 33.464C93.9788 33.2191 95.5356 31.7906 96.5269 29.4699C97.279 27.709 98.1653 25.9831 99.174 24.3564C100.229 22.6479 101.879 21.75 103.92 21.7617C105.086 21.7733 106.288 21.715 107.395 21.9949C111.763 23.1319 115.051 21.4701 117.628 18.1058C119.243 15.9834 121.232 15.447 123.675 16.0942C124.462 16.3099 125.249 16.5023 125.99 16.823C130.013 18.6306 133.29 17.8259 136.689 14.1525C137.342 13.4587 138.129 12.8756 139.103 12.0243ZM136.759 54.8162C137.284 53.4343 137.575 52.1107 137.535 50.5597C137.255 42.8981 135.605 35.4814 134.007 28.0472C133.82 27.1784 133.616 26.3155 133.406 25.3767C132.876 25.5517 132.462 25.7091 132.048 25.8373C128.578 26.8985 125.156 28.1464 121.646 28.9976C115.99 30.3679 110.27 31.464 104.591 32.7118C103.547 32.9451 102.48 33.2307 101.541 33.7089C99.9495 34.5427 98.3344 35.4698 98.2527 37.6038C98.142 40.7699 98.0603 43.9302 97.9262 47.0846C97.8504 48.9563 97.8621 50.863 97.5123 52.6938C97.0633 54.9736 95.798 55.5684 93.7864 54.4314C92.0838 53.4926 90.6145 52.1457 88.9644 51.0904C88.3113 50.6764 87.1335 50.1458 86.7778 50.414C86.1948 50.8629 86.0373 51.9183 85.8099 52.7521C85.7341 53.0553 85.944 53.446 86.0373 53.7958C87.0577 57.5974 89.6699 59.8073 93.25 61.1309C93.7514 61.3233 94.3287 62.1396 94.3462 62.6819C94.4045 64.3728 94.3578 66.0987 94.0546 67.7604C93.7456 69.4805 93.8564 70.8158 95.6639 71.533C95.8155 71.5971 95.9671 71.7429 96.0662 71.8886C97.3898 73.632 99.2731 74.4716 101.302 74.9439C104.807 75.7719 108.229 75.7602 111.314 73.4163C110.696 70.9266 110.089 68.4893 109.471 66.0345C110.626 66.4252 111.547 67.0666 112.433 66.9966C116.124 66.7401 119.885 66.6059 123.488 65.8188C129.692 64.4544 134.38 60.9501 136.759 54.8162ZM136.532 5.62799C136.823 5.21401 137.027 4.45019 136.846 4.03621C136.502 3.24906 135.791 2.66596 134.782 2.9575C134.147 3.13825 133.529 3.41812 132.876 3.61054C130.299 4.35104 127.739 5.17904 125.121 5.75045C122.095 6.42682 119.657 4.97494 117.337 3.21405C115.418 1.75637 114.375 1.68056 112.503 3.17323C110.795 4.53763 109.395 6.26936 107.734 7.69206C102.795 11.9777 103.518 11.8436 97.0866 11.4062C91.7223 11.0564 89.7807 12.9631 89.0168 17.4061C88.4221 20.8171 87.9848 21.0911 84.6205 21.7966C80.2707 22.7179 77.2737 27.7557 80.2824 31.8605C80.883 29.569 82.4573 28.193 84.5213 27.3067C85.7575 26.7761 87.0344 26.3388 88.2705 25.814C90.7253 24.7703 92.7135 23.3127 93.1683 20.4264C93.2966 19.6859 93.6639 18.9804 93.8972 18.2632C94.5969 16.1292 96.1129 15.1963 98.2878 15.2196C98.8708 15.2312 99.4539 15.3245 100.025 15.2662C102.2 15.0738 104.41 15.0505 106.521 14.584C108.946 14.0301 110.538 12.0593 112.089 10.2868C114.165 7.93113 116.695 7.30143 119.593 7.68043C122.398 8.04193 125.156 8.73578 127.96 8.93985C131.261 9.18474 134.456 8.7008 136.532 5.62799ZM131.237 101.76C132.194 100.162 131.989 98.955 130.287 98.2436C129.027 97.7305 127.523 97.5731 126.147 97.6197C125.022 97.6605 123.937 98.3252 122.8 98.5701C122.264 98.6809 121.477 98.6284 121.121 98.3019C120.829 98.0454 120.882 97.2232 121.016 96.7218C121.243 95.8763 121.657 95.0833 121.996 94.2612C119.523 95.2291 118.031 97.1358 116.62 99.1007C115.978 99.987 115.273 100.424 114.194 100.488C110.987 100.669 107.914 100.051 105.005 98.8092C100.982 97.0891 97.6697 94.5294 95.9963 90.2671C95.8621 89.9406 95.2907 89.5733 94.9409 89.5966C90.8477 89.9115 86.7662 90.2905 82.5214 90.6637C82.7488 93.6665 82.8712 96.4419 84.8479 98.6809C86.6204 100.704 88.9411 101.771 91.4308 102.663C100.935 106.098 110.707 107.637 120.806 107.13C121.786 107.071 122.765 106.986 123.745 106.873C127.132 106.471 129.523 104.605 131.237 101.76ZM130.036 89.6724C129.284 87.2701 128.625 85.1652 127.931 82.9321C125.133 83.6143 122.497 84.2557 119.85 84.9029C119.795 85.0506 119.739 85.1964 119.681 85.3402C123.372 86.0049 126.514 87.9698 130.036 89.6724ZM126.876 81.1479C123.529 76.3666 119.29 73.2938 113.693 72.0811C113.961 73.0023 114.072 73.8069 114.421 74.5066C115.757 77.1888 117.168 79.8243 118.596 82.4598C118.754 82.7513 119.203 83.142 119.413 83.0895C121.861 82.5064 124.293 81.8301 126.876 81.1479ZM119.628 121.281C119.325 117.339 119.022 113.514 118.73 109.724C106.923 109.048 95.2558 107.701 84.5855 101.8C84.5311 102.041 84.4825 102.267 84.4397 102.477C83.3435 107.176 82.2532 111.888 81.1337 116.587C80.6264 118.675 79.985 120.727 79.5069 122.814C79.4253 123.164 79.7751 123.916 80.0783 124.004C84.0724 125.217 88.0431 126.651 92.1363 127.415C94.9001 127.922 97.8621 127.671 100.702 127.415C107.465 126.797 113.331 123.31 119.628 121.281ZM118.381 93.5907C118.55 90.5937 119.074 87.62 117.383 84.7279C115.611 81.6843 114.241 78.4074 112.684 75.1888C107.757 78.4191 102.83 78.0284 97.5939 75.6845C97.5939 79.7427 97.5706 83.6376 97.5939 87.5325C97.6114 90.2672 99.0924 92.3895 100.999 94.0047C104.713 97.1591 109.139 98.6693 114.048 98.4943C114.41 98.4827 114.859 98.2203 115.115 97.9404C116.037 96.8967 116.899 95.8122 117.751 94.7218C118.019 94.3836 118.357 93.9813 118.381 93.5907ZM95.7164 87.3051C95.7164 83.9525 95.7397 80.6406 95.7047 77.3229C95.6931 76.5241 95.5356 75.7253 95.4132 74.9323C95.0692 72.8215 93.2966 72.2501 91.6698 71.9236C90.871 71.7662 89.7399 72.4658 88.9994 73.0664C85.8333 75.6611 84.4864 79.3636 83.3785 83.1128C82.8363 84.9145 82.7371 86.8562 82.4456 88.7628C86.9119 88.273 91.1159 87.8124 95.7164 87.3051ZM79.6643 136.056C79.5419 133.024 79.3845 130.12 79.3028 127.228C79.2912 126.488 79.1221 126.091 78.4165 125.677C77.8451 125.327 77.472 124.476 77.2271 123.771C76.9939 123.118 77.093 122.354 76.9472 121.66C76.3991 118.937 75.8394 116.208 75.2096 113.503C74.405 110.012 73.5751 106.527 72.7199 103.048C72.5508 102.383 72.2884 101.631 71.3847 101.905C68.9941 102.622 66.6268 103.404 64.2712 104.156C66.2186 108.255 68.0845 112.179 69.9911 116.074C70.1486 116.401 70.5975 116.68 70.9649 116.768C71.8628 116.972 71.9677 117.485 71.7987 118.261C71.6937 118.71 71.5188 119.246 71.6762 119.619C73.4876 123.984 74.7315 128.505 75.4079 133.181C75.4312 133.386 75.5245 133.654 75.6819 133.741C77.023 134.552 78.4049 135.327 79.6643 136.056ZM69.1806 118.622C68.1953 118.051 67.6005 117.532 66.93 117.351C62.6444 116.208 58.3354 115.129 54.0265 114.086C53.7117 114.01 53.1752 114.22 52.9712 114.494C50.2249 117.911 47.5194 121.38 44.7906 124.826C44.5457 125.141 44.3008 125.52 43.951 125.677C43.5603 125.87 43.0647 125.858 42.6158 125.934C42.5808 125.52 42.4583 125.083 42.5341 124.692C42.6274 124.307 42.8956 123.963 43.1405 123.648C44.019 122.513 44.9131 121.39 45.8227 120.278C47.6535 118.051 49.4902 115.817 51.4902 113.38C48.6622 112.71 46.1842 112.103 43.6944 111.549C43.467 111.497 43.088 111.654 42.9189 111.841C41.3388 113.613 39.6537 115.322 38.2719 117.24C36.2544 120.056 33.788 122.354 30.9951 124.33C30.7327 124.499 30.2312 124.622 29.9689 124.546C29.9144 124.538 29.8697 124.519 29.8348 124.488C29.5899 124.272 29.4791 123.625 29.6365 123.322C29.9164 122.739 30.4062 122.243 30.8551 121.759C34.1787 118.249 37.5022 114.762 41.0998 110.978C36.8725 110.261 33.0242 109.643 29.1992 108.949C28.4587 108.815 28.0214 108.891 27.4791 109.497C24.797 112.447 22.2431 115.526 18.4473 117.217C17.5202 117.631 16.8205 118.575 16.0159 119.269C16.2025 119.52 16.2724 119.654 16.3716 119.718C16.7097 119.944 17.0538 120.158 17.4036 120.36C21.3452 122.639 25.4967 124.173 29.8114 125.182C32.0038 125.706 34.2331 126.099 36.4993 126.359C38.5556 126.612 40.5905 126.74 42.6041 126.744C50.808 126.744 58.6037 124.744 66.1078 121.019C67.1399 120.517 67.9737 119.584 69.1806 118.622ZM66.3119 115.042C62.5977 109.689 57.3909 106.203 51.0995 103.474C51.4552 104.517 51.6826 105.223 51.9508 105.917C52.3764 106.949 52.8954 107.952 53.2394 109.007C53.3618 109.386 53.1403 109.893 53.0703 110.342C53.0159 110.319 52.9595 110.296 52.9012 110.272C52.5105 110.127 52.0732 110.028 51.8283 109.748C51.3677 109.217 50.9712 108.582 50.7263 107.917C50.1899 106.506 49.8051 105.025 49.2337 103.62C49.0237 103.083 48.5398 102.477 48.0209 102.261C45.7119 101.322 43.3329 100.488 40.9773 99.6371C40.5167 99.4681 40.0152 99.3923 39.3622 99.2348C40.8665 102.634 42.2426 105.783 43.6595 108.926C43.7819 109.205 44.1084 109.555 44.3883 109.59C47.2803 110.016 49.9625 111.584 53.0061 111.217C53.0334 111.213 53.0625 111.209 53.0936 111.205C53.251 111.182 53.4318 111.293 53.5776 111.374C54.2306 111.695 54.8195 112.167 55.5075 112.348C59.0993 113.293 62.7085 114.156 66.3119 115.042ZM41.3155 108.972C39.9569 105.468 38.6683 102.162 37.2981 98.6168C32.5286 97.4506 27.4033 96.7334 22.0974 97.7538C22.1848 97.9871 22.2198 98.1212 22.2956 98.2203C24.1848 100.885 26.0564 103.55 27.9864 106.179C28.2313 106.523 28.7502 106.786 29.1759 106.873C31.6423 107.345 34.1087 107.759 36.5809 108.173C38.1261 108.442 39.6887 108.692 41.3155 108.972ZM18.5931 114.762C21.5551 113.223 23.4967 110.675 25.8115 108.267C18.0683 106.133 10.5525 103.631 2.40691 103.136C3.36898 106.826 10.1035 115.264 14.1209 117.992C15.6427 116.867 17.0013 115.59 18.5931 114.762ZM25.2926 105.888C23.9107 103.497 22.2315 101.351 20.7271 99.1007C20.1557 98.2319 19.6018 98.1095 18.7388 98.3486C15.9343 99.1007 13.1063 99.8179 10.3017 100.57C9.41548 100.803 8.55252 101.118 7.5438 101.433C13.6253 102.955 19.456 104.43 25.2926 105.888Z" fill="#2F3656"/>
<path d="M190.547 155.723C187.515 158.166 184.494 160.603 181.614 162.912C177.9 159.95 174.296 156.697 170.326 153.974C165.871 150.919 161.171 148.172 156.39 145.636C154.897 144.843 154.169 144.12 153.766 142.516C151.836 134.732 146.314 130.645 138.921 128.762C133.697 127.415 128.344 126.867 122.945 126.843C121.277 126.832 119.645 127.182 118.169 128.651C120.251 128.738 122.164 128.715 124.024 128.931C128.916 129.514 133.854 129.893 138.653 130.919C145.889 132.464 151.154 137.613 152.355 145.636C153.44 152.965 153.195 160.213 152.198 167.484C151.434 173.035 150.635 178.58 149.86 184.13C149.772 184.813 149.661 185.273 148.775 185.297C143.457 185.407 138.216 184.941 133.114 183.378C133.114 179.297 133.131 175.233 133.102 171.175C133.067 165.565 132.997 159.95 132.945 154.341C132.933 153.986 132.985 153.572 132.822 153.286C132.618 152.942 132.227 152.493 131.913 152.493C131.831 152.493 131.74 152.514 131.639 152.557L131.487 151.84V151.828C131.759 151.781 132.031 151.729 132.303 151.671C132.729 151.583 133.067 151.035 133.446 150.697C133.044 150.417 132.665 149.956 132.227 149.886C131.347 149.764 130.449 149.834 129.557 149.857C120.578 150.126 111.616 150.26 102.695 148.924C98.2983 148.26 94.2576 146.691 90.3393 144.557C87.5056 143.012 84.9575 141.251 83.4765 138.365C82.5786 136.604 81.9605 134.639 81.5465 132.692C81.1559 130.826 81.1967 128.872 81.0276 126.867C83.9605 127.631 86.6951 128.482 89.4997 129.03C96.4791 130.423 103.324 129.916 109.942 127.158C112.14 126.249 114.374 125.444 116.584 124.587C118.805 123.724 121.003 123.042 123.487 123.187C128.758 123.479 134.087 123.252 139.335 123.724C145.061 124.243 150.355 126.529 155.615 128.715C164.909 132.575 173.567 137.479 181.095 144.248C184.83 147.603 187.979 151.428 190.541 155.723H190.547Z" fill="#2F3656"/>
<path d="M138.688 14.8289C139.09 18.4323 137.731 20.8113 134.198 22.438C128.804 24.9161 123.149 26.4846 117.26 27.4933C112.029 28.3912 106.869 29.8198 101.738 31.2425C100.304 31.6331 98.9277 32.6535 97.8257 33.7089L96.1289 33.5223C97.0035 32.7585 97.7149 31.7614 98.2396 30.4786C98.9335 28.8402 99.7673 27.2367 100.654 25.6916C101.447 24.298 102.764 23.6217 104.368 23.68C105.569 23.7266 106.799 23.7675 107.965 24.0415C111.749 24.9044 114.857 23.715 117.563 21.132C118.239 20.4828 118.867 19.787 119.446 19.0445C120.251 18.0008 121.254 17.5985 122.519 17.9134C123.598 18.1816 124.717 18.3973 125.726 18.8463C130.734 21.0095 135.084 18.8696 137.97 15.6802C138.192 15.4353 138.396 15.1671 138.688 14.8289Z" fill="#F46C8A"/>
<path d="M138.228 7.06226C138.508 8.65988 138.834 10.4966 139.102 12.0242C138.129 12.8755 137.342 13.4586 136.689 14.1524C133.289 17.8258 130.012 18.6305 125.989 16.8229C125.249 16.5022 124.461 16.3098 123.674 16.0941C121.231 15.4469 119.243 15.9833 117.628 18.1057C115.051 21.47 111.762 23.1318 107.395 21.9948C106.287 21.7149 105.086 21.7732 103.92 21.7616C101.879 21.7499 100.229 22.6478 99.1735 24.3562C98.1648 25.983 97.2785 27.7089 96.5263 29.4698C95.5351 31.7905 93.9783 33.219 91.4186 33.4639C87.7277 33.837 85.722 36.1343 84.4742 39.6561C83.6229 38.3442 82.7716 37.2889 82.1885 36.0994C81.2206 34.1286 82.4975 30.601 84.4858 29.5573C85.4304 29.0675 86.4625 28.7176 87.4595 28.3153C88.2117 28.0121 88.9872 27.7731 89.716 27.4291C92.3049 26.1696 94.2115 24.4204 94.9753 21.4059C96.089 17.0153 96.2348 17.062 100.812 17.2427C103.389 17.3535 106.019 17.406 108.269 16.0183C110.001 14.9396 111.762 13.6976 113.027 12.135C115.138 9.5228 117.739 9.31875 120.66 9.79104C122.642 10.1176 124.619 10.5665 126.613 10.8697C129.138 11.2371 131.686 11.1146 133.989 10.0068C135.482 9.28376 136.735 8.11762 138.228 7.06226Z" fill="#F46C8A"/>
<path d="M136.846 4.03614C137.027 4.45013 136.822 5.21394 136.531 5.62793C134.455 8.70073 131.26 9.18468 127.96 8.93979C125.155 8.73571 122.397 8.04187 119.593 7.68036C116.695 7.30136 114.164 7.93107 112.088 10.2867C110.537 12.0592 108.946 14.03 106.52 14.5839C104.409 15.0504 102.199 15.0738 100.025 15.2662C99.4532 15.3245 98.8701 15.2312 98.287 15.2195C96.1122 15.1962 94.5962 16.1291 93.8965 18.2631C93.6632 18.9803 93.2959 19.6859 93.1676 20.4264C92.7128 23.3126 90.7245 24.7703 88.2698 25.814C87.0337 26.3387 85.7567 26.776 84.5206 27.3066C82.4565 28.1929 80.8822 29.569 80.2817 31.8605C77.273 27.7556 80.27 22.7178 84.6198 21.7966C87.9841 21.0911 88.4214 20.817 89.0161 17.406C89.78 12.963 91.7216 11.0563 97.0859 11.4062C103.517 11.8435 102.794 11.9776 107.733 7.692C109.395 6.2693 110.794 4.53756 112.502 3.17317C114.374 1.6805 115.418 1.7563 117.336 3.21399C119.657 4.97487 122.094 6.42675 125.12 5.75038C127.738 5.17897 130.298 4.35098 132.875 3.61047C133.528 3.41806 134.146 3.13819 134.782 2.95743C135.79 2.6659 136.502 3.24899 136.846 4.03614Z" fill="#F46C8A"/>
<path d="M134.001 44.8164C135.4 45.3878 135.919 46.6006 135.896 48.0583C135.896 50.239 134.345 52.2097 132.281 52.6354C130.316 53.0552 128.66 51.7958 128.59 49.79C128.526 47.8367 129.365 46.2216 130.712 44.898C131.721 43.9184 132.934 44.3791 134.001 44.8164Z" fill="#F46C8A"/>
<path fill-rule="evenodd" clip-rule="evenodd" d="M134.245 186.107C133.808 187.442 133.989 188.865 132.753 190.125C131.709 191.174 131.406 192.929 130.607 194.276C128.38 198.101 126.001 201.833 123.779 205.675C120.992 210.462 118.211 215.267 115.622 220.17C114.351 222.549 112.905 224.194 109.978 224.118C107.418 224.048 104.987 223.523 102.73 222.38C102.013 222.007 101.459 221.255 100.899 220.625C100.427 220.1 100.071 219.459 99.6108 218.911C98.5788 217.698 97.4884 217.418 96.1648 218.316C95.0745 219.057 93.9316 219.931 93.2728 221.033C90.4565 225.733 85.8794 225.249 82.5675 222.713C81.6113 221.972 80.8066 221.068 79.932 220.223C78.4199 218.761 76.9078 217.3 75.3957 215.838C75.2733 215.716 75.1042 215.634 74.97 215.512C68.632 209.366 61.0695 204.783 54.1368 199.39C48.1486 194.719 42.5278 189.617 38.7669 182.988C34.2772 175.04 32.3356 166.551 35.6241 157.542C36.5221 155.105 37.3967 152.639 38.5395 150.318C41.5948 144.132 46.586 139.881 52.6091 136.75C55.5828 135.205 58.5798 133.619 62.0374 133.362C66.2647 133.036 70.3929 133.327 74.1071 135.654C76.8009 137.321 79.4481 139.082 82.1069 140.826C82.2993 140.936 82.4917 141.07 82.6375 141.24C88.579 147.77 96.2989 150.744 104.806 151.472C112.433 152.131 120.118 152.108 127.785 152.277C129.015 152.312 130.251 152.091 131.487 151.84L131.639 152.557C131.383 152.703 131.103 153.006 130.992 153.28C130.788 153.694 130.788 154.23 130.788 154.726C130.885 163.332 130.974 171.944 131.056 180.562C131.068 181.652 130.881 182.737 130.934 183.827C130.957 184.218 131.342 184.749 131.697 184.958C132.461 185.407 133.313 185.699 134.245 186.107ZM124.864 189.046C124.654 189.203 124.374 189.302 124.246 189.506C122.91 191.705 121.575 193.903 120.31 196.136C120.164 196.381 120.421 196.865 120.491 197.238C120.928 197.11 121.511 197.11 121.779 196.83C123.82 194.678 124.473 191.938 124.864 189.046ZM117.604 205.203C117.785 204.9 117.75 204.474 117.82 204.089C117.575 204.066 117.47 204.025 117.406 204.054C114.765 205.483 113.849 208.322 112.176 210.532C111.785 211.057 112.38 211.617 113.004 211.471C113.535 211.348 114.17 211.034 114.444 210.608C115.564 208.847 116.584 207.028 117.604 205.203ZM117.663 189.436C117.496 189.37 117.327 189.304 117.156 189.238C115.016 190.929 114.036 193.296 113.535 195.909C113.488 196.148 113.96 196.754 114.141 196.731C114.567 196.672 115.208 196.451 115.33 196.136C116.17 193.926 116.899 191.67 117.663 189.436ZM49.5363 147.408C49.6821 147.199 49.7054 146.75 49.583 146.545C49.4489 146.341 48.9766 146.166 48.7725 146.254C48.0903 146.534 47.2157 146.779 46.8308 147.344C45.4276 149.342 44.1351 151.414 42.9534 153.56C42.4928 154.376 42.4811 155.443 42.2654 156.405C42.3898 156.452 42.5141 156.497 42.6385 156.539C42.8076 156.417 43.0175 156.329 43.1283 156.172C45.2779 153.268 47.4139 150.347 49.5363 147.408ZM49.1457 155.029C49.1923 154.761 48.9766 154.254 48.7608 154.172C48.5159 154.085 48.1136 154.3 47.8337 154.475C47.618 154.615 47.4839 154.895 47.3615 155.128C45.8338 158.213 44.7143 161.42 45.1749 164.924C45.344 166.213 46.0262 167.449 46.4752 168.702C46.654 168.667 46.8328 168.63 47.0116 168.592C47.0816 168.358 47.2507 168.096 47.204 167.886C46.586 164.551 47.3614 161.414 48.3352 158.271C48.6617 157.202 48.9319 156.122 49.1457 155.029ZM42.3237 162.982C42.3703 162.434 42.0671 161.851 41.9214 161.274C41.5482 161.536 40.9884 161.723 40.8543 162.073C39.4083 165.729 38.9827 169.513 39.8106 173.373C39.9447 173.979 40.5161 174.469 40.8893 175.023C41.0409 174.953 41.1945 174.885 41.3499 174.819C41.4257 174.154 41.5249 173.507 41.5832 172.842C41.8397 169.559 42.1196 166.271 42.3237 162.982Z" fill="#F46C8A"/>
<path d="M129.108 39.0732C129.126 41.0731 128.467 42.0002 127.155 42.216C125.709 42.4492 124.706 41.8136 124.414 40.1402C124.193 38.8633 124.146 37.4697 124.373 36.1928C124.607 34.7992 126.099 34.4086 127.19 35.324C128.455 36.391 129.061 37.8079 129.108 39.0732Z" fill="#2F3656"/>
<path d="M125.359 55.6208C125.854 57.9006 122.42 61.9588 120.053 61.9588C118.268 61.9588 115.901 60.3787 115.318 58.7053C115.184 58.3263 115.394 57.819 115.452 57.37C115.936 57.475 116.403 57.5625 116.875 57.6849C116.986 57.7199 117.067 57.8773 117.155 57.9765C119.703 60.921 121.16 59.5274 122.869 56.7112C123.114 56.3088 123.067 55.7025 123.341 55.3293C123.586 54.9969 124.122 54.6121 124.461 54.6588C124.81 54.7112 125.271 55.2418 125.359 55.6208Z" fill="#2F3656"/>
<path d="M124.245 189.506C124.373 189.302 124.653 189.203 124.863 189.046C124.472 191.938 123.819 194.678 121.778 196.83C121.51 197.11 120.927 197.11 120.49 197.238C120.42 196.865 120.163 196.381 120.309 196.136C121.574 193.903 122.91 191.705 124.245 189.506Z" fill="#2F3656"/>
<path d="M122.945 48.0932C123.023 48.1477 123.103 48.1962 123.184 48.239C122.531 49.4401 121.937 50.6763 121.196 51.8191C121.027 52.0756 120.222 52.2097 119.931 52.0406C119.628 51.8657 119.4 51.1777 119.499 50.7987C119.657 50.1223 120.053 49.4868 120.421 48.8804C120.829 48.204 120.771 47.7376 120.042 47.3644C119.325 46.9971 118.607 46.6239 117.943 46.1633C117.709 46.0058 117.494 45.5452 117.552 45.2887C117.604 45.0438 118.013 44.7522 118.304 44.6939C119.336 44.5248 122.397 46.3557 122.776 47.3177C122.87 47.5685 122.893 47.8367 122.945 48.0932Z" fill="#2F3656"/>
<path d="M117.82 204.089C117.75 204.474 117.785 204.9 117.605 205.203C116.584 207.028 115.564 208.847 114.444 210.608C114.17 211.034 113.535 211.348 113.004 211.471C112.38 211.617 111.786 211.057 112.176 210.532C113.85 208.322 114.765 205.483 117.406 204.054C117.471 204.025 117.576 204.066 117.82 204.089Z" fill="#2F3656"/>
<path d="M117.155 189.238C117.326 189.304 117.495 189.37 117.662 189.437C116.898 191.67 116.169 193.926 115.33 196.136C115.207 196.451 114.566 196.672 114.14 196.731C113.96 196.754 113.487 196.148 113.534 195.909C114.035 193.296 115.015 190.929 117.155 189.238Z" fill="#2F3656"/>
<path d="M115.383 90.372C115.371 91.1767 115.528 92.1854 114.421 92.267C113.307 92.3545 113.109 91.3574 113.027 90.4945C112.975 89.7831 112.916 89.0251 113.132 88.3721C113.278 87.9348 113.837 87.4392 114.275 87.3634C114.555 87.3167 115.079 87.9464 115.26 88.3837C115.453 88.856 115.359 89.4391 115.383 89.7948C115.383 90.098 115.394 90.2321 115.383 90.372Z" fill="#2F3656"/>
<path d="M112.322 112.459C112.555 113.013 112.538 113.672 112.625 114.255C112.398 115.188 112.748 116.57 111.348 116.558C110.031 116.546 110.101 115.252 110.066 114.302C110.054 113.683 110.101 113.019 110.322 112.459C110.468 112.08 110.975 111.596 111.313 111.596C111.669 111.608 112.165 112.08 112.322 112.459Z" fill="#2F3656"/>
<path d="M111.639 94.4769C111.727 95.4274 112.03 96.7509 110.596 96.7743C109.284 96.7976 109.517 95.509 109.155 94.372C109.604 93.7248 110.042 92.547 110.526 92.5237C111.604 92.4653 111.558 93.6665 111.639 94.4769Z" fill="#2F3656"/>
<path d="M110.357 83.83C110.112 84.1857 109.931 84.7396 109.628 84.827C109.237 84.9378 108.427 84.7687 108.351 84.5471C107.925 83.2702 107.634 81.935 107.383 80.6056C107.354 80.4423 107.879 79.9817 108.106 80.005C108.497 80.0458 109.057 80.2732 109.191 80.5881C109.651 81.5968 109.955 82.6755 110.357 83.83Z" fill="#2F3656"/>
<path d="M106.993 40.5425C109.471 42.0818 109.885 46.4315 107.698 47.9475C106.701 48.6355 105.85 48.6414 104.964 47.7259C103.873 46.6239 103.098 45.4344 103.156 43.8077C103.278 43.1488 103.348 42.4724 103.547 41.8427C104.077 40.1051 105.477 39.6037 106.993 40.5425Z" fill="#2F3656"/>
<path d="M108.642 55.1953C108.642 57.7433 106.846 59.5858 104.368 59.5916C102.1 59.5916 100.631 57.9765 100.596 55.446C100.561 53.2419 102.182 51.6618 104.432 51.6851C106.724 51.7085 108.642 53.3003 108.642 55.1953Z" fill="#F46C8A"/>
<path d="M107.488 90.0339C107.342 90.9085 107.745 92.2671 106.322 92.2904C104.928 92.2963 104.952 90.996 104.94 89.9756C104.917 89.3167 104.94 88.617 105.15 88.0106C105.278 87.62 105.815 87.0836 106.106 87.1244C106.52 87.171 107.051 87.62 107.214 88.0223C107.453 88.617 107.406 89.3401 107.488 90.0339Z" fill="#2F3656"/>
<path d="M106.409 117.689C106.677 118.476 106.747 119.328 106.893 120.155C106.712 121.199 106.63 122.243 106.321 123.211C106.193 123.59 105.598 124.015 105.173 124.05C104.916 124.074 104.345 123.421 104.333 123.077C104.286 121.333 104.356 119.596 104.479 117.87C104.514 117.567 105.039 117.106 105.365 117.071C105.715 117.048 106.298 117.386 106.409 117.689Z" fill="#2F3656"/>
<path d="M103.01 82.3723C103.068 82.9845 103.144 83.6376 102.998 84.2206C102.888 84.6579 102.439 85.0078 102.135 85.3868C101.739 85.0428 101.237 84.7512 100.998 84.3198C100.8 83.9175 100.899 83.3577 100.864 82.8737C100.876 82.8737 100.888 82.8737 100.899 82.8737C100.895 82.7416 100.895 82.6075 100.899 82.4714C100.946 81.7426 100.754 80.7455 101.786 80.6639C102.888 80.5764 102.94 81.5618 103.01 82.3723Z" fill="#2F3656"/>
<path d="M100.217 109.789C100.416 110.407 100.398 111.1 100.474 111.888C100.305 112.751 100.182 113.73 99.8908 114.657C99.7917 114.995 99.2494 115.468 98.9695 115.421C98.5905 115.38 97.9492 114.896 97.9492 114.616C97.9841 112.943 98.1299 111.269 98.3398 109.619C98.3748 109.375 98.9695 109.007 99.2611 109.048C99.6226 109.106 100.107 109.456 100.217 109.789Z" fill="#2F3656"/>
<path d="M96.1295 33.5223L97.8262 33.7088C97.0157 34.4843 96.5668 35.7321 96.2344 36.84C95.1791 40.2743 95.5172 43.7844 95.663 47.3061C95.7388 49.1487 95.4823 51.0087 95.3598 53.2127C94.4502 52.7404 93.8905 52.5596 93.459 52.2215C91.9138 51.0087 90.2521 49.8775 88.9401 48.4431C87.9781 47.3878 87.3775 45.9651 86.7944 44.6298C85.5641 41.8019 85.9665 39.2189 88.1122 36.9099C89.1442 35.7846 90.4328 35.4406 91.8205 35.2715C93.5639 35.0791 94.9866 34.5077 96.1295 33.5223Z" fill="#F46C8A"/>
<path d="M93.5645 119.013C93.7336 119.392 93.6403 119.887 93.6636 120.564C93.5762 121.1 93.5762 121.899 93.273 122.569C93.0572 123.03 92.4392 123.31 91.9902 123.671C91.7103 123.222 91.2089 122.774 91.1972 122.313C91.1739 121.158 91.2847 119.975 91.5412 118.855C91.6345 118.418 92.2409 118.091 92.6199 117.712C92.9464 118.138 93.3604 118.529 93.5645 119.013Z" fill="#2F3656"/>
<path d="M89.4769 106.401C89.8539 106.933 90.2174 107.443 90.5672 107.929C90.0833 109.701 89.7509 111.229 89.2203 112.698C89.0862 113.089 88.3807 113.281 87.9317 113.573C87.7043 113.089 87.232 112.564 87.302 112.127C87.5275 110.661 87.8637 109.225 88.3107 107.818C88.4798 107.275 89.0746 106.873 89.4769 106.401Z" fill="#2F3656"/>
<path d="M85.4061 118.272C85.651 118.529 85.7443 118.943 86.0242 119.596C85.3944 120.57 84.7414 121.66 84.0009 122.68C83.8551 122.873 83.2837 122.948 83.0505 122.826C82.8114 122.704 82.5316 122.155 82.6248 121.975C83.2196 120.75 83.8901 119.549 84.5956 118.395C84.7006 118.226 85.2953 118.15 85.4061 118.272Z" fill="#2F3656"/>
<path d="M49.5825 146.545C49.7049 146.75 49.6816 147.198 49.5359 147.408C47.4135 150.347 45.2775 153.268 43.1279 156.172C43.0171 156.329 42.8072 156.417 42.6381 156.539C42.5137 156.497 42.3893 156.452 42.2649 156.405C42.4806 155.443 42.4923 154.376 42.9529 153.56C44.1346 151.414 45.4271 149.342 46.8304 147.344C47.2152 146.779 48.0898 146.534 48.772 146.254C48.9761 146.166 49.4484 146.341 49.5825 146.545Z" fill="#2F3656"/>
<path d="M48.7608 154.172C48.9766 154.254 49.1923 154.755 49.1457 155.029C48.9319 156.121 48.6617 157.202 48.3352 158.271C47.3615 161.414 46.586 164.551 47.204 167.886C47.2507 168.096 47.0816 168.358 47.0116 168.592C46.8328 168.63 46.654 168.667 46.4752 168.702C46.0262 167.449 45.344 166.213 45.1749 164.924C44.7143 161.42 45.8338 158.213 47.3615 155.128C47.4839 154.895 47.618 154.609 47.8337 154.475C48.1136 154.3 48.5159 154.085 48.7608 154.172Z" fill="#2F3656"/>
<path d="M41.9221 161.274C42.0679 161.851 42.3711 162.434 42.3244 162.982C42.1203 166.271 41.8405 169.559 41.5839 172.842C41.5256 173.507 41.4265 174.154 41.3507 174.819C41.1952 174.885 41.0417 174.953 40.8901 175.023C40.5169 174.469 39.9455 173.979 39.8114 173.373C38.9834 169.513 39.409 165.729 40.8551 162.073C40.9892 161.723 41.5489 161.536 41.9221 161.274Z" fill="#2F3656"/>
</svg>
