<svg width="21" height="21" viewBox="0 0 21 21" fill="none" xmlns="http://www.w3.org/2000/svg">
<path d="M19.6097 3.25166C19.9362 3.17446 20.1825 3.54501 19.9849 3.8161L14.8612 10.8473C14.799 10.9325 14.7773 11.0406 14.8015 11.1433L16.8039 19.6097C16.8811 19.9362 16.5105 20.1825 16.2395 19.9849L9.20826 14.8612C9.12303 14.7991 9.01492 14.7773 8.91229 14.8016L0.445813 16.8039C0.119385 16.8811 -0.126922 16.5106 0.070627 16.2395L5.19439 9.20827C5.2565 9.12304 5.27827 9.01493 5.254 8.91231L3.25164 0.445825C3.17444 0.119398 3.54499 -0.126909 3.81608 0.0706387L10.8473 5.1944C10.9325 5.25651 11.0406 5.27828 11.1432 5.25401L19.6097 3.25166Z" fill="#474D67"/>
</svg>
