<svg width="16" height="19" viewBox="0 0 16 19" fill="none" xmlns="http://www.w3.org/2000/svg">
<path d="M14.916 13.19V7.41602C14.916 4.27402 14.916 2.70201 13.94 1.72601C12.964 0.750013 11.392 0.75 8.25 0.75H7.41599C4.27399 0.75 2.702 0.750013 1.726 1.72601C0.749998 2.70201 0.75 4.27402 0.75 7.41602V15.333" stroke="currentColor" stroke-width="1.5" stroke-linecap="round"/>
<path d="M14.916 13.25H2.83299C1.68199 13.25 0.75 14.182 0.75 15.333C0.75 16.484 1.68199 17.416 2.83299 17.416H14.916" stroke="currentColor" stroke-width="1.5" stroke-linecap="round"/>
<path d="M14.916 17.416C13.766 17.416 12.833 16.484 12.833 15.333C12.833 14.182 13.766 13.25 14.916 13.25" stroke="currentColor" stroke-width="1.5" stroke-linecap="round"/>
<path d="M8.08899 9.08301L6.87199 5.315C6.79599 5.079 6.561 4.91602 6.295 4.91602C6.028 4.91602 5.793 5.079 5.717 5.315L4.5 9.08301M10.333 4.91602V9.08301M4.948 7.83301H7.64099" stroke="currentColor" stroke-width="1.5" stroke-linecap="round" stroke-linejoin="round"/>
</svg>
