<svg width="18" height="18" viewBox="0 0 18 18" fill="none" xmlns="http://www.w3.org/2000/svg">
<path fill-rule="evenodd" clip-rule="evenodd" d="M12.9683 0.150492C11.8488 -1.65155e-05 10.4149 -8.20933e-06 8.58933 1.24008e-07H8.494C6.66843 -8.20933e-06 5.23453 -1.65155e-05 4.11502 0.150492C2.96781 0.304734 2.05759 0.627267 1.34243 1.34243C0.627267 2.05759 0.304734 2.96781 0.150492 4.11502C-1.65155e-05 5.23453 -8.20933e-06 6.66843 1.24008e-07 8.494V8.58933C-8.20933e-06 10.4149 -1.65155e-05 11.8488 0.150492 12.9683C0.304734 14.1155 0.627267 15.0258 1.34243 15.7409C2.05759 16.4561 2.96781 16.7786 4.11502 16.9328C5.23453 17.0833 6.66842 17.0833 8.494 17.0833H8.58933C10.4149 17.0833 11.8488 17.0833 12.9683 16.9328C14.1155 16.7786 15.0258 16.4561 15.7409 15.7409C16.4561 15.0258 16.7786 14.1155 16.9328 12.9683C17.0833 11.8488 17.0833 10.4149 17.0833 8.58933V8.494C17.0833 6.66842 17.0833 5.23453 16.9328 4.11502C16.7786 2.96781 16.4561 2.05759 15.7409 1.34243C15.0258 0.627267 14.1155 0.304734 12.9683 0.150492ZM5 9.375C5 9.02983 4.72018 8.75 4.375 8.75C4.02983 8.75 3.75 9.02983 3.75 9.375V12.7083C3.75 13.0535 4.02983 13.3333 4.375 13.3333C4.72018 13.3333 5 13.0535 5 12.7083V9.375ZM8.54167 3.75C8.88683 3.75 9.16667 4.02983 9.16667 4.375V12.7083C9.16667 13.0535 8.88683 13.3333 8.54167 13.3333C8.1965 13.3333 7.91667 13.0535 7.91667 12.7083V4.375C7.91667 4.02983 8.1965 3.75 8.54167 3.75ZM13.3333 7.70833C13.3333 7.36317 13.0535 7.08333 12.7083 7.08333C12.3632 7.08333 12.0833 7.36317 12.0833 7.70833V12.7083C12.0833 13.0535 12.3632 13.3333 12.7083 13.3333C13.0535 13.3333 13.3333 13.0535 13.3333 12.7083V7.70833Z" fill="currentColor"/>
</svg>
