<svg width="18" height="18" viewBox="0 0 18 18" fill="none" xmlns="http://www.w3.org/2000/svg">
<path d="M4.5 12.834V9.5" stroke="currentColor" stroke-width="1.5" stroke-linecap="round"/>
<path d="M8.66699 12.834V4.5" stroke="currentColor" stroke-width="1.5" stroke-linecap="round"/>
<path d="M12.834 12.834V7.83398" stroke="currentColor" stroke-width="1.5" stroke-linecap="round"/>
<path d="M0.75 8.66699C0.75 4.93499 0.750004 3.06897 1.91 1.90997C3.069 0.749973 4.93501 0.75 8.66701 0.75C12.399 0.75 14.265 0.749973 15.424 1.90997C16.584 3.06897 16.584 4.93499 16.584 8.66699C16.584 12.399 16.584 14.265 15.424 15.424C14.265 16.584 12.399 16.584 8.66701 16.584C4.93501 16.584 3.069 16.584 1.91 15.424C0.750004 14.265 0.75 12.399 0.75 8.66699Z" stroke="currentColor" stroke-width="1.5" stroke-linejoin="round"/>
</svg>
