<svg width="18" height="18" viewBox="0 0 18 18" fill="none" xmlns="http://www.w3.org/2000/svg">
<path d="M8.23642 18.0001C8.14599 18.0001 8.05557 17.995 7.96514 17.985C5.78484 17.7338 3.77283 16.6914 2.30087 15.0461C0.816358 13.3883 0 11.2507 0 9.02264C0 7.80438 0.238628 6.6238 0.708347 5.51104C1.16048 4.43596 1.81106 3.4714 2.63746 2.64249C3.46387 1.81357 4.42591 1.163 5.49848 0.708347C6.60873 0.238628 7.7868 0 9.00254 0C10.2183 0 11.3964 0.238628 12.5066 0.708347C13.5792 1.163 14.5412 1.81357 15.3676 2.64249C16.194 3.4714 16.8421 4.43596 17.2967 5.51104C17.7665 6.6238 18.0051 7.80438 18.0051 9.02264C18.0051 10.7408 17.5982 11.9339 16.7642 12.6674C15.5359 13.745 13.765 13.5164 12.2002 13.3129C11.1301 13.1748 10.0249 13.0316 9.7561 13.4586C9.64056 13.642 9.86411 14.0288 10.1329 14.3001C10.9241 15.0913 10.9241 16.3824 10.1329 17.1737C9.59785 17.7087 8.92216 18.0001 8.23642 18.0001ZM9.00254 1.25593C4.73236 1.25593 1.25845 4.7399 1.25845 9.02264C1.25845 12.9713 4.20487 16.2895 8.11083 16.7391C8.50017 16.7843 8.91463 16.621 9.24368 16.2895C9.5451 15.9855 9.5451 15.4932 9.24368 15.1893C8.465 14.4081 8.254 13.4887 8.69107 12.793C9.02264 12.2629 9.57776 11.9816 10.3841 11.9289C10.9794 11.8912 11.6501 11.9766 12.3609 12.0695C13.7249 12.2454 15.134 12.4287 15.9353 11.7254C16.4754 11.2507 16.7491 10.3414 16.7491 9.02264C16.7466 4.7399 13.2727 1.25593 9.00254 1.25593Z" fill="#2B3556"/>
<path d="M13.6067 9.83647C12.9134 9.83647 12.3508 9.27381 12.3508 8.58053C12.3508 7.88726 12.9134 7.3246 13.6067 7.3246C14.3 7.3246 14.8626 7.88726 14.8626 8.58053C14.8626 9.27381 14.3 9.83647 13.6067 9.83647ZM4.39818 9.83647C3.7049 9.83647 3.14224 9.27381 3.14224 8.58053C3.14224 7.88726 3.7049 7.3246 4.39818 7.3246C5.09145 7.3246 5.65411 7.88726 5.65411 8.58053C5.65411 9.27381 5.08894 9.83647 4.39818 9.83647ZM4.39818 8.58053C4.39567 8.58053 4.39567 8.58053 4.39818 8.58053V8.58053ZM6.98038 6.06866C6.2871 6.06866 5.72444 5.506 5.72444 4.81273C5.72444 4.11945 6.2871 3.55679 6.98038 3.55679C7.67366 3.55679 8.23631 4.11945 8.23631 4.81273C8.23631 5.506 7.67366 6.06866 6.98038 6.06866ZM11.0948 6.06866C10.4015 6.06866 9.83889 5.506 9.83889 4.81273C9.83889 4.11945 10.4015 3.55679 11.0948 3.55679C11.7881 3.55679 12.3508 4.11945 12.3508 4.81273C12.3508 5.506 11.7881 6.06866 11.0948 6.06866Z" fill="#2B3556"/>
</svg>
