<svg width="17" height="18" viewBox="0 0 17 18" fill="none" xmlns="http://www.w3.org/2000/svg">
<path d="M0.750122 8.65802V10.75C0.750122 13.5 0.750118 14.875 1.60412 15.729C2.45912 16.584 3.83312 16.584 6.58312 16.584H9.91712C12.6661 16.584 14.0411 16.584 14.8961 15.729C15.7501 14.875 15.7501 13.5 15.7501 10.75V8.65802C15.7501 7.25702 15.7501 6.55701 15.4531 5.95001C15.1571 5.34401 14.6041 4.91402 13.4981 4.05402L11.8311 2.75702C10.1111 1.41902 9.25112 0.75 8.25012 0.75C7.24912 0.75 6.38912 1.41902 4.66912 2.75702L3.00212 4.05402C1.89612 4.91402 1.34312 5.34401 1.04712 5.95001C0.750119 6.55701 0.750122 7.25702 0.750122 8.65802Z" stroke="currentColor" stroke-width="1.5" stroke-linecap="round" stroke-linejoin="round"/>
<path d="M10.7501 12.834C10.0841 13.352 9.20912 13.667 8.25012 13.667C7.29212 13.667 6.41612 13.352 5.75012 12.834" stroke="currentColor" stroke-width="1.5" stroke-linecap="round" stroke-linejoin="round"/>
</svg>
