<svg width="17" height="18" viewBox="0 0 17 18" fill="none" xmlns="http://www.w3.org/2000/svg">
<path d="M8.1251 0C8.7811 0 9.35951 0.224792 9.96835 0.591633C10.5567 0.946125 11.2279 1.46812 12.0638 2.11832L12.0899 2.13868L13.7566 3.43506L14.4833 4.00472C15.144 4.53553 15.6083 4.97518 15.8896 5.55013L15.9555 5.6958C16.2628 6.42872 16.2501 7.27683 16.2501 8.53275V10.673C16.2501 12.0077 16.2501 13.0732 16.1378 13.9087C16.0289 14.7184 15.8055 15.3942 15.3142 15.9392L15.2125 16.0458C14.6498 16.6083 13.9389 16.8549 13.0754 16.971C12.2399 17.0833 11.1743 17.0833 9.83976 17.0833H6.41039C5.07573 17.0833 4.01025 17.0833 3.17472 16.971C2.36499 16.8622 1.6892 16.6388 1.14427 16.1475L1.03767 16.0458C0.475083 15.4832 0.228475 14.7723 0.112375 13.9087C0.0271164 13.2745 0.00665794 12.508 0.00169961 11.5918L7.45876e-05 10.625V8.53275C7.45876e-05 7.19308 -0.014417 6.3169 0.360591 5.55013C0.735675 4.78353 1.4362 4.25745 2.49357 3.43506L4.16023 2.13868L4.7657 1.66911C5.34237 1.2251 5.83594 0.860292 6.28181 0.591633C6.89068 0.224783 7.4691 1.66667e-05 8.1251 0ZM11.2826 12.1964C11.0176 11.8561 10.5409 11.7775 10.1832 12.0019L10.1132 12.0508C9.59593 12.4533 8.90143 12.7083 8.1251 12.7083C7.44568 12.7083 6.82885 12.5134 6.33877 12.1948L6.13696 12.0508L6.06697 12.0019C5.70918 11.7777 5.23252 11.856 4.96752 12.1964C4.70255 12.537 4.74334 13.0188 5.0489 13.3106L5.11319 13.3659L5.26862 13.4814C6.06055 14.0456 7.05568 14.3749 8.1251 14.375C9.2656 14.375 10.3218 14.0004 11.1369 13.3659L11.2013 13.3106C11.5069 13.0188 11.5478 12.5371 11.2826 12.1964Z" fill="currentColor"/>
</svg>
